<svg width="2658" height="316" viewBox="0 0 2658 316" fill="none" xmlns="http://www.w3.org/2000/svg">
    <mask id="mask0" mask-type="alpha" maskUnits="userSpaceOnUse" x="8" y="30" width="2650" height="286">
        <path fill-rule="evenodd" clip-rule="evenodd" d="M2000.14 206.169V239.862H2128.52V253.263H2000.14V266.667H2128.52V280.071H2000.14V293.472H2128.52V306.876H1986.72V38.8179H2128.52V52.2222H2000.14V65.6264H2128.52V79.0268H2000.14V92.431H2128.52V105.835H2000.14V139.155H2121.06V152.556H2000.14V165.96H2121.06V179.364H2000.14V192.764H2121.06V206.169H2000.14ZM746.357 245.817V232.417H827.221C843.741 232.417 859.02 228.446 873.058 220.503C887.093 212.561 898.303 201.515 906.688 187.366C915.072 173.22 919.265 157.584 919.265 140.459C919.289 125.025 914.963 109.896 906.783 96.8038C898.495 83.2493 886.846 72.0614 872.962 64.3226C859.047 56.3372 843.268 52.1631 827.221 52.2222H658.411V306.876H644.995V38.8179H827.221C841.152 38.7968 854.942 41.6157 867.746 47.1022C877.435 51.1644 886.505 56.5659 894.69 63.1484C897.005 65.0242 899.237 66.9996 901.38 69.0689C910.82 78.1906 918.397 89.019 924.111 101.554C929.751 113.75 932.675 127.024 932.682 140.459C932.751 150.667 931.519 160.843 929.015 170.741C926.612 180.112 922.824 189.073 917.777 197.328C908.2 213.19 894.307 226.004 877.717 234.277L905.852 306.876H891.504L864.857 239.675C863.293 240.195 861.72 240.684 860.137 241.143C858.514 241.613 856.793 242.084 854.974 242.554C854.356 242.714 853.738 242.872 853.119 243.027L878.274 306.876H863.926L839.332 245.261C836.347 245.545 833.352 245.719 830.354 245.783C829.309 245.806 828.265 245.818 827.221 245.817L850.883 306.876H836.722L813.247 245.817H801.135L823.679 306.876H809.519L786.787 245.817H746.357ZM1618.92 171.358L1618.54 171.171C1625.17 164.939 1630.45 157.423 1634.07 149.082C1637.69 140.741 1639.57 131.75 1639.59 122.659C1639.6 122.2 1639.6 121.742 1639.6 121.283C1639.66 112.366 1637.91 103.53 1634.45 95.3088C1630.99 87.088 1625.9 79.6539 1619.49 73.457C1619.27 73.2346 1619.04 73.0135 1618.82 72.7936C1611.95 65.8303 1603.71 60.3654 1594.62 56.7436C1586.68 53.6936 1578.23 52.1599 1569.73 52.2222H1422.16V306.876H1408.74V38.8179H1569.73C1584.38 38.8179 1598.14 42.5731 1611 50.0834C1623.85 57.5912 1634.07 67.7054 1641.65 80.4259C1649.11 92.7467 1653.04 106.881 1653.01 121.283C1653.09 130.381 1651.82 139.441 1649.25 148.171C1646.63 156.93 1642.48 165.158 1636.99 172.475C1647.45 186.581 1653.07 203.689 1653.01 221.247C1653.07 229.696 1652.01 238.116 1649.85 246.286C1647.97 253.275 1645.15 259.975 1641.46 266.202C1636.72 274.343 1630.56 281.573 1623.27 287.555C1619.52 290.6 1615.47 293.268 1611.18 295.519C1599.67 301.534 1586.94 304.878 1573.95 305.301C1572.54 305.358 1571.14 305.386 1569.73 305.385H1484.95V291.985H1569.73C1588.86 291.985 1605.28 285.19 1619.01 271.6C1625.61 265.184 1630.84 257.496 1634.38 249.001C1637.91 240.506 1639.69 231.381 1639.59 222.181C1639.6 221.869 1639.6 221.558 1639.6 221.247C1639.6 212.064 1637.61 203.004 1633.63 194.068C1629.66 185.132 1624.69 177.624 1618.73 171.545C1618.73 171.42 1618.79 171.358 1618.92 171.358ZM611.83 174.709V306.876H598.413V174.709C598.517 160.574 596.469 146.506 592.338 132.987C589.494 123.855 585.593 115.086 580.715 106.857C568.914 86.9387 552.827 71.5508 532.455 60.6932C514.415 51.173 494.509 45.7118 474.132 44.6928C470.845 44.4993 467.553 44.4027 464.26 44.403C441.06 44.1673 418.22 50.1451 398.115 61.7149C378.117 73.2562 362.403 88.8627 350.973 108.534C339.587 128.048 333.666 150.262 333.832 172.849C333.754 187.653 336.244 202.359 341.193 216.313C344.391 225.386 348.644 234.053 353.865 242.134C356.151 245.644 358.638 249.018 361.314 252.241C369.796 262.455 379.712 271.389 390.754 278.767C401.82 286.189 413.944 291.899 426.715 295.706C439.436 299.533 452.65 301.478 465.936 301.477C480.273 301.543 494.474 298.693 507.674 293.102V306.876C493.886 311.715 479.725 314.134 465.191 314.134C450.335 314.16 435.554 312.028 421.312 307.806C407.089 303.587 393.922 297.351 381.813 289.099C369.701 280.846 359.05 271.104 349.859 259.873C340.665 248.642 333.459 235.519 328.241 220.503C322.993 205.232 320.349 189.189 320.419 173.043C320.419 172.978 320.419 172.914 320.419 172.849C320.347 153.97 324.052 135.268 331.317 117.84C337.794 102.016 347.106 87.5053 358.796 75.02C359.564 74.206 360.342 73.4015 361.131 72.6068C372.067 61.6617 384.788 52.6555 398.748 45.9737C401.451 44.6603 404.191 43.4233 406.964 42.2643C424.914 34.7565 444.013 31.0026 464.26 31.0026C481.593 30.9047 498.829 33.5753 515.318 38.9132C517.696 39.6928 520.055 40.5305 522.392 41.4256C535.503 46.3658 547.834 53.1656 559.006 61.6158C562.599 64.3582 566.051 67.2809 569.347 70.3728C581.025 81.415 590.537 94.5382 597.395 109.068C598.473 111.315 599.496 113.588 600.463 115.885C608.041 133.879 611.83 153.487 611.83 174.709ZM1375.57 174.709V306.876H1362.16V174.709C1362.26 160.574 1360.21 146.506 1356.08 132.987C1353.24 123.855 1349.34 115.086 1344.46 106.857C1332.66 86.9387 1316.57 71.5508 1296.2 60.6932C1278.16 51.173 1258.26 45.7118 1237.88 44.6928C1234.59 44.4992 1231.3 44.4026 1228 44.403C1204.8 44.1673 1181.96 50.1451 1161.86 61.7149C1141.86 73.2562 1126.15 88.8627 1114.72 108.534C1103.33 128.048 1097.41 150.262 1097.58 172.849C1097.5 187.653 1099.99 202.358 1104.94 216.313C1108.14 225.387 1112.39 234.053 1117.61 242.134C1119.9 245.644 1122.39 249.018 1125.06 252.241C1133.54 262.455 1143.46 271.389 1154.5 278.767C1165.57 286.189 1177.69 291.899 1190.46 295.706C1203.18 299.533 1216.4 301.478 1229.68 301.477C1244.02 301.542 1258.22 298.692 1271.42 293.102V306.876C1257.63 311.715 1243.47 314.134 1228.94 314.134C1214.08 314.16 1199.3 312.028 1185.06 307.806C1170.84 303.587 1157.67 297.351 1145.56 289.099C1133.45 280.846 1122.79 271.104 1113.6 259.873C1104.41 248.642 1097.21 235.519 1091.99 220.503C1086.74 205.232 1084.09 189.189 1084.16 173.043C1084.16 172.978 1084.16 172.914 1084.16 172.849C1084.09 153.97 1087.8 135.268 1095.07 117.84C1101.54 102.016 1110.85 87.5053 1122.54 75.02C1123.31 74.206 1124.09 73.4015 1124.88 72.6068C1135.81 61.6617 1148.53 52.6555 1162.49 45.9737C1165.2 44.6602 1167.94 43.4232 1170.71 42.2643C1188.66 34.7565 1207.76 31.0026 1228 31.0026C1245.34 30.9043 1262.58 33.5749 1279.07 38.9132C1281.44 39.6928 1283.8 40.5305 1286.14 41.4256C1299.25 46.3658 1311.58 53.1656 1322.75 61.6158C1326.35 64.3582 1329.8 67.2809 1333.1 70.3728C1344.77 81.4153 1354.28 94.5385 1361.14 109.068C1362.22 111.315 1363.24 113.588 1364.21 115.885C1371.79 133.879 1375.57 153.487 1375.57 174.709ZM1569.73 265.176H1484.95V278.581H1569.73C1577.07 278.672 1584.35 277.283 1591.14 274.497C1597.93 271.71 1604.09 267.583 1609.25 262.363C1609.33 262.278 1609.42 262.193 1609.51 262.107C1614.85 256.913 1619.08 250.689 1621.95 243.813C1624.82 236.936 1626.25 229.549 1626.18 222.101C1626.18 221.816 1626.18 221.531 1626.18 221.247C1626.18 210.954 1623.31 200.864 1617.89 192.113C1612.62 183.238 1605.06 175.941 1596 170.985C1604.98 166.346 1612.55 159.369 1617.89 150.791C1623.26 142.256 1626.13 132.387 1626.17 122.305C1626.18 121.964 1626.18 121.623 1626.18 121.283C1626.22 114.229 1624.84 107.241 1622.12 100.728C1619.41 94.2162 1615.42 88.3125 1610.39 83.3653C1610.04 83.0018 1609.68 82.6421 1609.32 82.2864C1603.93 76.8408 1597.52 72.5167 1590.45 69.5645C1583.87 66.9114 1576.82 65.5734 1569.73 65.6264H1435.57V306.876H1448.99V79.0268H1569.73C1581.15 79.0268 1591.18 83.2776 1599.82 91.7791C1603.47 95.2986 1606.5 99.4058 1608.78 103.929C1611.44 109.325 1612.81 115.267 1612.77 121.283C1612.83 126.567 1611.95 131.819 1610.17 136.795C1608.04 142.549 1604.59 147.724 1600.1 151.908C1596.07 155.807 1591.32 158.875 1586.11 160.935C1580.9 162.995 1575.33 164.007 1569.73 163.913H1528.73H1484.95V177.317H1528.73H1569.73C1580.18 177.282 1590.23 181.31 1597.77 188.548C1598.47 189.191 1599.15 189.852 1599.82 190.53C1603.87 194.575 1607.13 199.34 1609.43 204.579C1611.67 209.848 1612.81 215.521 1612.77 221.247C1612.82 226.359 1612.06 231.447 1610.51 236.321C1608.46 242.619 1604.88 248.312 1600.1 252.893C1596.11 256.866 1591.37 260.001 1586.16 262.11C1580.94 264.22 1575.35 265.263 1569.73 265.176ZM585 174.709V306.876H571.584V174.709C571.657 164.063 570.241 153.458 567.375 143.204C565.088 135.165 561.774 127.454 557.514 120.261C548.137 104.437 535.312 92.3065 519.038 83.8685C505.543 76.9489 490.797 72.802 475.67 71.6728C471.875 71.3617 468.068 71.2078 464.26 71.2115C445.008 71.2115 427.431 75.7711 411.532 84.8902C395.997 93.6507 383.097 106.411 374.174 121.843C365.168 137.355 360.665 154.356 360.665 172.849C360.665 188.734 363.583 203.222 369.419 216.313C372.777 223.96 377.122 231.135 382.344 237.655C385.549 241.626 389.113 245.293 392.99 248.612C402.866 257.05 414.108 263.595 426.715 268.249C439.392 272.915 452.801 275.279 466.31 275.229C480.553 275.186 494.635 272.208 507.674 266.48V280.071C498.992 283.389 489.966 285.726 480.764 287.04C475.851 287.725 470.896 288.07 465.936 288.073C445.279 288.279 424.903 283.286 406.686 273.556C388.813 264.008 373.872 249.788 363.459 232.417C352.943 215.065 347.345 195.184 347.264 174.9C347.253 174.216 347.248 173.532 347.249 172.849C347.19 157.498 350.265 142.296 356.285 128.172C361.657 115.331 369.312 103.568 378.879 93.4527C379.507 92.7943 380.143 92.1436 380.787 91.5008C390.014 82.3555 400.755 74.8735 412.535 69.3854C414.356 68.5248 416.195 67.7062 418.053 66.9302C432.689 60.8285 448.402 57.7262 464.26 57.8073C486.993 57.8073 507.52 62.6477 525.842 72.3285C543.891 81.7485 558.908 96.0731 569.16 113.651C578.002 128.762 583.261 145.696 584.531 163.154C584.846 166.998 585.003 170.853 585 174.709ZM1348.74 174.709V306.876H1335.33V174.709C1335.4 164.063 1333.99 153.459 1331.12 143.204C1328.84 135.165 1325.52 127.454 1321.26 120.261C1311.88 104.437 1299.06 92.3065 1282.79 83.8685C1269.29 76.9484 1254.54 72.8015 1239.41 71.6728C1235.62 71.3617 1231.81 71.2078 1228 71.2115C1208.75 71.2115 1191.18 75.7711 1175.28 84.8902C1159.74 93.6507 1146.84 106.411 1137.92 121.843C1128.91 137.355 1124.41 154.356 1124.41 172.849C1124.41 188.734 1127.33 203.222 1133.17 216.313C1136.52 223.96 1140.87 231.135 1146.09 237.655C1149.29 241.626 1152.86 245.293 1156.74 248.612C1166.61 257.05 1177.86 263.595 1190.46 268.249C1203.14 272.915 1216.55 275.279 1230.06 275.229C1244.3 275.186 1258.38 272.207 1271.42 266.48V280.071C1262.74 283.388 1253.71 285.726 1244.51 287.04C1239.6 287.725 1234.64 288.07 1229.68 288.073C1209.03 288.279 1188.65 283.286 1170.43 273.556C1152.56 264.008 1137.62 249.789 1127.2 232.417C1116.69 215.064 1111.09 195.184 1111.01 174.9C1111 174.216 1110.99 173.532 1110.99 172.849C1110.94 157.497 1114.01 142.296 1120.03 128.172C1125.4 115.331 1133.06 103.569 1142.62 93.4527C1143.25 92.7943 1143.89 92.1436 1144.53 91.5008C1153.76 82.3552 1164.5 74.8731 1176.28 69.3854C1178.1 68.5248 1179.94 67.7062 1181.8 66.9302C1196.43 60.8285 1212.15 57.7262 1228 57.8073C1250.74 57.8073 1271.26 62.6477 1289.59 72.3285C1307.64 81.7479 1322.65 96.0725 1332.91 113.651C1341.75 128.762 1347.01 145.697 1348.28 163.154C1348.59 166.998 1348.75 170.853 1348.74 174.709ZM746.357 219.013V205.608H827.221C835.717 205.751 844.158 204.213 852.057 201.082C859.956 197.951 867.157 193.29 873.245 187.366C884.929 176.337 891.78 161.142 892.305 145.091C892.392 143.549 892.435 142.004 892.435 140.459C892.461 126.294 887.109 112.647 877.457 102.271C875.997 100.633 874.467 99.0578 872.871 97.551C859.828 85.2015 844.611 79.0268 827.221 79.0268H685.241V306.876H671.828V65.6264H827.221C837.442 65.5318 847.581 67.4659 857.048 71.3166C866.516 75.1673 875.124 80.8579 882.372 88.0583C898.025 103.01 905.852 120.477 905.852 140.459C905.977 151.154 903.942 161.764 899.868 171.656C895.872 181.012 890.015 189.46 882.655 196.489C875.395 203.761 866.748 209.502 857.225 213.371C847.703 217.24 837.5 219.158 827.221 219.013H746.357ZM2284.1 152.556H2262.86C2256.67 152.597 2250.49 152.211 2244.36 151.4C2230.4 149.449 2220.51 145.03 2214.69 138.145C2210.42 132.928 2208.21 126.34 2208.45 119.609C2208.45 110.089 2213.62 102.194 2223.95 95.927C2224.4 95.655 2224.85 95.3894 2225.31 95.1302C2229.49 92.8183 2233.93 91.0186 2238.54 89.77C2247.11 87.3479 2257.52 85.9666 2269.75 85.626C2271.8 85.5695 2273.85 85.5415 2275.9 85.5421C2291.67 85.5421 2306.33 87.3733 2319.87 91.0357C2332.7 94.5024 2343.41 99.3898 2352 105.698C2352.47 106.048 2352.94 106.404 2353.41 106.765L2342.79 114.954C2327.26 104.282 2304.97 98.9463 2275.9 98.9463C2271.55 98.9382 2267.2 99.0589 2262.86 99.3085C2253.72 99.8524 2246.17 101.011 2240.22 102.785C2238.41 103.317 2236.64 103.963 2234.91 104.718C2230.58 106.632 2227.33 108.822 2225.16 111.287C2223.05 113.549 2221.88 116.52 2221.86 119.609C2221.86 126.273 2224.57 131.12 2229.97 134.15C2230.3 134.338 2230.65 134.518 2230.99 134.687C2232.92 135.594 2234.93 136.3 2237 136.795C2241.23 137.865 2246.57 138.571 2253.01 138.911C2256.29 139.079 2259.57 139.161 2262.86 139.155H2284.1C2294.4 139.095 2304.69 139.903 2314.85 141.572C2325.97 143.466 2335.96 146.476 2344.83 150.604C2351.73 153.779 2358.19 157.847 2364.03 162.704C2372.33 169.526 2379.1 178.015 2383.91 187.619C2388.71 197.224 2391.44 207.73 2391.92 218.456C2392.08 220.872 2392.17 223.293 2392.17 225.715C2392.17 237.752 2389.5 249.045 2384.15 259.595C2379.38 268.921 2372.88 277.259 2365 284.166C2363.74 285.284 2362.46 286.37 2361.14 287.421C2355.85 291.606 2350.13 295.211 2344.07 298.172C2338.49 300.943 2332.37 303.391 2325.73 305.519C2324.77 305.825 2323.82 306.122 2322.85 306.411C2313.22 309.256 2303.35 311.207 2293.36 312.24C2285.95 313.021 2278.5 313.406 2271.05 313.391C2254.11 313.468 2237.22 311.496 2220.75 307.516C2215.02 306.111 2209.36 304.438 2203.79 302.503C2193.38 298.938 2183.36 294.323 2173.88 288.729C2165.88 283.989 2158.42 278.402 2151.62 272.065L2162.43 264.059C2170.69 271.426 2179.93 277.616 2189.89 282.45C2196.38 285.626 2203.08 288.346 2209.94 290.589C2226.29 295.912 2243.29 298.988 2260.46 299.735C2263.99 299.904 2267.52 299.988 2271.05 299.987C2294.73 299.987 2314.82 296.46 2331.32 289.408C2337.96 286.602 2344.24 283.031 2350.05 278.767C2356.48 274.119 2362.17 268.531 2366.94 262.191C2374.76 251.649 2378.91 238.836 2378.75 225.715C2378.85 217.191 2377.48 208.715 2374.7 200.656C2370.67 189.453 2363.55 179.618 2354.16 172.288C2341.12 161.832 2323.69 155.532 2301.87 153.387C2295.96 152.82 2290.03 152.543 2284.1 152.556ZM2544.77 152.556H2523.52C2517.34 152.596 2511.16 152.21 2505.03 151.4C2491.07 149.449 2481.17 145.03 2475.35 138.145C2471.09 132.928 2468.88 126.339 2469.12 119.609C2469.12 110.089 2474.29 102.194 2484.62 95.927C2485.07 95.655 2485.52 95.3894 2485.98 95.1302C2490.16 92.8186 2494.6 91.0188 2499.21 89.77C2507.78 87.3479 2518.18 85.9666 2530.41 85.626C2532.46 85.5695 2534.51 85.5415 2536.57 85.5421C2552.34 85.5421 2567 87.3733 2580.54 91.0357C2593.36 94.5024 2604.07 99.3898 2612.66 105.698C2613.14 106.048 2613.61 106.404 2614.08 106.765L2603.46 114.954C2587.93 104.282 2565.63 98.9463 2536.57 98.9463C2532.21 98.9382 2527.87 99.0589 2523.52 99.3085C2514.39 99.8524 2506.84 101.011 2500.89 102.785C2499.08 103.317 2497.3 103.963 2495.57 104.718C2491.25 106.632 2488 108.822 2485.82 111.287C2483.72 113.549 2482.54 116.52 2482.53 119.609C2482.53 126.273 2485.23 131.12 2490.64 134.15C2490.97 134.338 2491.32 134.518 2491.66 134.687C2493.59 135.594 2495.6 136.3 2497.67 136.795C2501.9 137.865 2507.24 138.571 2513.68 138.911C2516.96 139.079 2520.24 139.161 2523.52 139.155H2544.77C2555.07 139.095 2565.36 139.903 2575.52 141.572C2586.63 143.466 2596.63 146.476 2605.5 150.604C2612.4 153.779 2618.86 157.848 2624.7 162.704C2633 169.526 2639.77 178.015 2644.57 187.619C2649.38 197.224 2652.11 207.73 2652.58 218.456C2652.75 220.872 2652.83 223.293 2652.83 225.715C2652.83 237.752 2650.16 249.045 2644.82 259.595C2640.05 268.921 2633.55 277.259 2625.67 284.166C2624.41 285.284 2623.12 286.37 2621.81 287.421C2616.52 291.606 2610.8 295.211 2604.74 298.172C2599.15 300.943 2593.04 303.391 2586.4 305.519C2585.44 305.825 2584.48 306.122 2583.52 306.411C2573.89 309.256 2564.01 311.207 2554.02 312.24C2546.62 313.021 2539.17 313.405 2531.72 313.391C2514.78 313.468 2497.89 311.496 2481.42 307.516C2475.69 306.111 2470.03 304.438 2464.46 302.503C2454.05 298.938 2444.02 294.323 2434.55 288.729C2426.55 283.989 2419.09 278.402 2412.29 272.065L2423.09 264.059C2431.36 271.426 2440.6 277.616 2450.56 282.45C2457.05 285.626 2463.74 288.346 2470.61 290.589C2486.96 295.912 2503.95 298.989 2521.13 299.735C2524.66 299.904 2528.19 299.988 2531.72 299.987C2555.4 299.987 2575.49 296.46 2591.99 289.408C2598.63 286.602 2604.91 283.031 2610.72 278.767C2617.15 274.119 2622.84 268.531 2627.61 262.191C2635.43 251.649 2639.58 238.837 2639.42 225.715C2639.52 217.191 2638.15 208.714 2635.36 200.656C2631.33 189.453 2624.21 179.618 2614.82 172.288C2601.79 161.832 2584.36 155.532 2562.53 153.387C2556.63 152.82 2550.7 152.543 2544.77 152.556ZM2284.1 206.169H2262.86C2252.55 206.229 2242.26 205.421 2232.1 203.752C2220.98 201.856 2210.99 198.844 2202.12 194.716C2195.22 191.542 2188.76 187.475 2182.92 182.62C2174.62 175.798 2167.85 167.31 2163.05 157.705C2158.24 148.101 2155.51 137.595 2155.03 126.868C2154.87 124.452 2154.79 122.031 2154.79 119.609C2154.79 107.572 2157.46 96.279 2162.8 85.7289C2167.57 76.4027 2174.07 68.0652 2181.95 61.1583C2183.21 60.0387 2184.49 58.9518 2185.81 57.8988C2191.1 53.7152 2196.82 50.1122 2202.88 47.1517C2208.46 44.3814 2214.58 41.9326 2221.22 39.8053C2222.18 39.4989 2223.14 39.2016 2224.1 38.9132C2233.73 36.0679 2243.61 34.1166 2253.6 33.0842C2261.01 32.3028 2268.45 31.9185 2275.9 31.9328C2292.84 31.8543 2309.73 33.8256 2326.2 37.8039C2331.93 39.21 2337.59 40.8842 2343.16 42.8209C2353.57 46.3859 2363.6 51.001 2373.07 56.5949C2381.07 61.3348 2388.53 66.9216 2395.33 73.2587L2384.53 81.2608C2376.26 73.8947 2367.02 67.7069 2357.06 62.8739C2350.57 59.6978 2343.87 56.9781 2337.01 54.7345C2320.66 49.4122 2303.67 46.3354 2286.49 45.5887C2282.96 45.4184 2279.43 45.3332 2275.9 45.3332C2252.22 45.3332 2232.13 48.8597 2215.63 55.9125C2208.99 58.7191 2202.71 62.2914 2196.9 66.5566C2190.47 71.2037 2184.78 76.7903 2180.02 83.1289C2172.19 93.6718 2168.04 106.486 2168.2 119.609C2168.1 128.133 2169.48 136.61 2172.26 144.668C2176.29 155.871 2183.41 165.706 2192.8 173.036C2205.83 183.492 2223.26 189.792 2245.08 191.937C2250.99 192.503 2256.92 192.779 2262.86 192.764H2283.35C2289.62 192.725 2295.88 193.112 2302.09 193.923C2315.97 195.837 2325.89 200.122 2331.83 206.779C2336.37 212.019 2338.76 218.786 2338.5 225.715C2338.5 235.235 2333.33 243.129 2323 249.397C2322.55 249.669 2322.1 249.935 2321.64 250.194C2317.46 252.506 2313.02 254.305 2308.41 255.554C2299.84 257.976 2289.43 259.357 2277.2 259.698C2275.15 259.753 2273.1 259.78 2271.05 259.778C2255.28 259.778 2240.62 257.948 2227.08 254.288C2214.25 250.822 2203.55 245.934 2194.96 239.626C2194.48 239.276 2194.01 238.92 2193.54 238.558L2204.16 230.37C2219.69 241.042 2241.99 246.378 2271.05 246.378C2275.4 246.386 2279.75 246.265 2284.1 246.015C2293.23 245.472 2300.78 244.313 2306.73 242.539C2308.54 242.007 2310.31 241.361 2312.04 240.606C2316.37 238.692 2319.62 236.501 2321.8 234.033C2323.9 231.771 2325.07 228.802 2325.09 225.715C2325.09 219.051 2322.39 214.204 2316.98 211.174C2316.65 210.986 2316.31 210.806 2315.96 210.637C2314.03 209.73 2312.02 209.024 2309.95 208.529C2305.72 207.459 2300.38 206.752 2293.94 206.409C2290.66 206.242 2287.38 206.162 2284.1 206.169ZM2544.77 206.169H2523.52C2513.22 206.229 2502.93 205.42 2492.77 203.752C2481.66 201.856 2471.66 198.844 2462.79 194.716C2455.89 191.542 2449.43 187.475 2443.59 182.62C2435.29 175.798 2428.52 167.309 2423.72 157.705C2418.91 148.1 2416.18 137.594 2415.7 126.868C2415.54 124.452 2415.45 122.031 2415.45 119.609C2415.45 107.572 2418.13 96.279 2423.47 85.7289C2428.24 76.403 2434.74 68.0656 2442.62 61.1583C2443.88 60.0386 2445.16 58.9517 2446.48 57.8988C2451.77 53.7152 2457.49 50.1122 2463.55 47.1517C2469.13 44.3814 2475.25 41.9326 2481.89 39.8053C2482.85 39.499 2483.81 39.2016 2484.77 38.9132C2494.4 36.0679 2504.27 34.1166 2514.26 33.0842C2521.67 32.3028 2529.12 31.9185 2536.57 31.9328C2553.51 31.8543 2570.4 33.8256 2586.87 37.8039C2592.6 39.21 2598.26 40.8842 2603.83 42.8209C2614.24 46.3856 2624.26 51.0008 2633.74 56.5949C2641.74 61.335 2649.2 66.9218 2656 73.2587L2645.19 81.2608C2636.93 73.895 2627.69 67.7073 2617.73 62.8739C2611.24 59.6978 2604.54 56.9781 2597.68 54.7345C2581.33 49.4119 2564.33 46.3351 2547.15 45.5887C2543.63 45.4184 2540.1 45.3332 2536.57 45.3332C2512.89 45.3332 2492.8 48.8597 2476.3 55.9125C2469.66 58.7191 2463.37 62.2914 2457.56 66.5566C2451.14 71.2037 2445.45 76.7903 2440.68 83.1289C2432.86 93.6723 2428.71 106.486 2428.87 119.609C2428.77 128.133 2430.14 136.609 2432.92 144.668C2436.95 155.871 2444.08 165.706 2453.47 173.036C2466.5 183.492 2483.93 189.792 2505.76 191.937C2511.66 192.503 2517.59 192.779 2523.52 192.764H2544.02C2550.29 192.725 2556.55 193.112 2562.76 193.923C2576.64 195.837 2586.56 200.122 2592.5 206.779C2597.04 212.019 2599.43 218.786 2599.17 225.715C2599.17 235.235 2594 243.129 2583.67 249.397C2583.22 249.669 2582.77 249.935 2582.31 250.194C2578.13 252.506 2573.69 254.305 2569.08 255.554C2560.51 257.976 2550.11 259.357 2537.87 259.698C2535.82 259.753 2533.77 259.78 2531.72 259.778C2515.95 259.778 2501.29 257.948 2487.75 254.288C2474.92 250.822 2464.22 245.934 2455.63 239.626C2455.15 239.276 2454.68 238.92 2454.21 238.558L2464.83 230.37C2480.36 241.042 2502.66 246.378 2531.72 246.378C2536.07 246.386 2540.42 246.265 2544.77 246.015C2553.9 245.472 2561.45 244.313 2567.4 242.539C2569.21 242.007 2570.99 241.361 2572.71 240.606C2577.04 238.692 2580.29 236.501 2582.46 234.033C2584.57 231.772 2585.74 228.802 2585.76 225.715C2585.76 219.051 2583.05 214.204 2577.65 211.174C2577.31 210.986 2576.97 210.806 2576.62 210.637C2574.7 209.73 2572.68 209.024 2570.61 208.529C2566.39 207.459 2561.05 206.752 2554.61 206.409C2551.33 206.242 2548.05 206.162 2544.77 206.169ZM2284.1 179.364H2262.86C2255.26 179.403 2247.68 178.883 2240.17 177.809C2232.49 176.67 2225.53 174.904 2219.28 172.509C2213.34 170.286 2207.75 167.236 2202.67 163.448C2196.75 159.127 2191.84 153.58 2188.26 147.187C2184.68 140.793 2182.53 133.704 2181.95 126.403C2181.72 124.145 2181.61 121.878 2181.62 119.609C2181.59 112.766 2183 105.992 2185.76 99.7307C2188.53 93.4693 2192.58 87.8604 2197.66 83.27C2200.39 80.6779 2203.31 78.296 2206.4 76.1447C2213.88 71.0042 2222.14 67.0916 2230.86 64.5551C2243.65 60.6767 2258.66 58.7375 2275.9 58.7375C2289.03 58.6849 2302.13 59.9828 2315 62.6108C2320.57 63.7683 2326.09 65.2099 2331.52 66.9302C2339.44 69.4047 2347.13 72.5856 2354.48 76.4344C2361.64 80.1818 2368.35 84.7368 2374.46 90.0102L2364.03 98.3859C2358.04 93.5545 2351.49 89.4622 2344.52 86.1978C2338.42 83.3251 2332.11 80.9276 2325.65 79.0268C2310.24 74.4367 2293.66 72.1417 2275.9 72.1417C2259.37 72.1417 2245.3 73.9183 2233.69 77.4714C2227.38 79.3251 2221.37 82.0411 2215.81 85.5421C2211.78 88.0862 2208.1 91.1412 2204.85 94.6308C2198.48 101.379 2194.96 110.329 2195.03 119.609C2194.97 124.807 2195.78 129.978 2197.43 134.908C2200.14 142.664 2205.28 149.342 2212.08 153.955C2223.45 161.958 2240.37 165.96 2262.86 165.96H2283.35C2300.71 165.96 2315.42 168.245 2327.46 172.814C2333.43 175.029 2339.07 178.08 2344.18 181.876C2358.28 192.487 2365.33 207.1 2365.33 225.715C2365.36 232.558 2363.95 239.33 2361.19 245.591C2358.42 251.852 2354.37 257.46 2349.29 262.05C2346.56 264.643 2343.64 267.027 2340.55 269.179C2333.07 274.32 2324.81 278.232 2316.1 280.769C2303.3 284.647 2288.29 286.586 2271.05 286.586C2257.92 286.639 2244.82 285.341 2231.95 282.713C2226.38 281.556 2220.86 280.114 2215.43 278.394C2207.51 275.919 2199.82 272.738 2192.47 268.89C2185.31 265.142 2178.61 260.587 2172.49 255.314L2182.92 246.934C2188.91 251.767 2195.46 255.861 2202.43 259.126C2208.53 261.997 2214.84 264.394 2221.3 266.293C2236.71 270.886 2253.29 273.182 2271.05 273.182C2287.58 273.182 2301.65 271.406 2313.26 267.853C2319.57 265.998 2325.58 263.28 2331.14 259.778C2335.17 257.235 2338.85 254.181 2342.1 250.693C2348.47 243.945 2351.99 234.995 2351.92 225.715C2351.98 220.516 2351.17 215.343 2349.52 210.412C2346.81 202.658 2341.67 195.981 2334.87 191.369C2323.5 183.366 2306.58 179.364 2284.1 179.364ZM2544.77 179.364H2523.52C2515.93 179.403 2508.35 178.883 2500.83 177.809C2493.16 176.67 2486.2 174.904 2479.95 172.509C2474.01 170.286 2468.42 167.236 2463.34 163.448C2457.42 159.127 2452.51 153.58 2448.93 147.187C2445.35 140.793 2443.2 133.704 2442.62 126.403C2442.39 124.145 2442.28 121.878 2442.28 119.609C2442.25 112.766 2443.67 105.992 2446.43 99.7307C2449.2 93.4693 2453.25 87.8604 2458.33 83.27C2461.06 80.6779 2463.98 78.296 2467.07 76.1447C2474.55 71.0038 2482.81 67.0913 2491.53 64.5551C2504.32 60.6767 2519.33 58.7375 2536.57 58.7375C2549.7 58.6849 2562.8 59.9828 2575.66 62.6108C2581.24 63.7681 2586.76 65.2098 2592.19 66.9302C2600.11 69.4049 2607.8 72.5858 2615.15 76.4344C2622.31 80.1818 2629.01 84.7368 2635.13 90.0102L2624.7 98.3859C2618.71 93.5545 2612.16 89.4622 2605.19 86.1978C2599.09 83.3251 2592.78 80.9276 2586.31 79.0268C2570.91 74.4367 2554.33 72.1417 2536.57 72.1417C2520.04 72.1417 2505.97 73.9183 2494.35 77.4714C2488.05 79.3251 2482.03 82.0411 2476.48 85.5421C2472.45 88.0862 2468.76 91.1412 2465.52 94.6308C2459.14 101.38 2455.63 110.329 2455.7 119.609C2455.64 124.807 2456.45 129.978 2458.1 134.908C2460.81 142.664 2465.95 149.343 2472.75 153.955C2484.12 161.958 2501.04 165.96 2523.52 165.96H2544.02C2561.38 165.96 2576.09 168.245 2588.13 172.814C2594.1 175.029 2599.74 178.08 2604.85 181.876C2618.95 192.487 2626 207.1 2626 225.715C2626.03 232.558 2624.62 239.33 2621.86 245.591C2619.09 251.852 2615.04 257.46 2609.96 262.05C2607.23 264.643 2604.31 267.027 2601.22 269.179C2593.74 274.32 2585.48 278.233 2576.76 280.769C2563.97 284.647 2548.96 286.586 2531.72 286.586C2518.59 286.639 2505.49 285.341 2492.62 282.713C2487.05 281.556 2481.53 280.114 2476.11 278.394C2468.18 275.919 2460.49 272.738 2453.14 268.89C2445.98 265.142 2439.28 260.587 2433.16 255.314L2443.59 246.934C2449.58 251.767 2456.13 255.861 2463.1 259.126C2469.2 261.998 2475.51 264.394 2481.97 266.293C2497.38 270.886 2513.96 273.182 2531.72 273.182C2548.25 273.182 2562.32 271.406 2573.93 267.853C2580.24 265.998 2586.25 263.28 2591.81 259.778C2595.84 257.235 2599.52 254.181 2602.77 250.693C2609.14 243.944 2612.66 234.994 2612.59 225.715C2612.65 220.516 2611.84 215.343 2610.19 210.412C2607.48 202.657 2602.34 195.98 2595.54 191.369C2584.17 183.366 2567.25 179.364 2544.77 179.364ZM558.167 174.709V306.876H544.754V174.709C544.829 166.483 543.761 158.286 541.583 150.352C538.225 138.215 531.51 127.269 522.209 118.771C510.525 108.093 495.846 101.247 480.15 99.156C474.889 98.3815 469.578 98.0005 464.26 98.0161C454.287 97.9068 444.379 99.6373 435.034 103.121C425.438 106.825 416.731 112.507 409.479 119.796C402.479 126.539 396.921 134.631 393.143 143.582C389.365 152.534 387.445 162.158 387.499 171.873C387.496 172.198 387.495 172.523 387.495 172.849C387.463 179.252 388.089 185.642 389.361 191.918C390.416 197.068 392.007 202.093 394.108 206.912C396.309 212.012 399.119 216.828 402.477 221.254C405.272 224.915 408.5 228.225 412.089 231.113C419.667 237.192 428.145 241.815 437.522 244.982C446.902 248.147 456.808 249.729 467.241 249.729C481.318 249.749 495.191 246.364 507.674 239.862V254.01C496.998 258.53 485.653 261.275 474.09 262.138C471.748 262.303 469.401 262.386 467.054 262.386C454.756 262.386 443.081 260.493 432.027 256.709C421.213 253.059 411.168 247.442 402.4 240.141C395.734 234.52 390.137 227.745 385.877 220.141C384.347 217.45 382.959 214.681 381.718 211.845C378.062 203.401 375.714 194.45 374.754 185.3C374.298 181.165 374.073 177.008 374.078 172.849C373.888 161.406 376.021 150.044 380.35 139.448C384.679 128.853 391.113 119.244 399.264 111.203C399.532 110.932 399.801 110.663 400.073 110.395C408.311 102.104 418.132 95.5498 428.954 91.1221C439.775 86.6945 451.377 84.4832 463.07 84.6195C463.467 84.6149 463.863 84.6123 464.26 84.6119C473.776 84.5537 483.261 85.6949 492.491 88.0087C499.364 89.7603 506.02 92.2742 512.334 95.5038C526.493 102.763 537.673 113.28 545.872 127.055C552.304 137.987 556.284 150.184 557.537 162.803C557.962 166.758 558.173 170.732 558.167 174.709ZM1321.91 174.709V306.876H1308.5V174.709C1308.57 166.483 1307.51 158.286 1305.33 150.352C1301.97 138.215 1295.25 127.269 1285.95 118.771C1274.27 108.093 1259.59 101.247 1243.89 99.156C1238.63 98.3815 1233.32 98.0005 1228 98.0161C1218.03 97.9068 1208.12 99.6373 1198.78 103.121C1189.18 106.825 1180.48 112.507 1173.23 119.796C1166.23 126.539 1160.67 134.631 1156.89 143.582C1153.11 152.534 1151.19 162.158 1151.25 171.873C1151.24 172.198 1151.24 172.523 1151.24 172.849C1151.21 179.252 1151.83 185.642 1153.11 191.918C1154.16 197.068 1155.75 202.093 1157.86 206.912C1160.06 212.012 1162.87 216.828 1166.22 221.254C1169.02 224.915 1172.25 228.225 1175.84 231.113C1183.41 237.192 1191.89 241.815 1201.27 244.982C1210.65 248.147 1220.55 249.729 1230.99 249.729C1245.06 249.749 1258.94 246.363 1271.42 239.862V254.01C1260.74 258.53 1249.4 261.275 1237.83 262.138C1235.49 262.303 1233.15 262.386 1230.8 262.386C1218.5 262.386 1206.83 260.493 1195.77 256.709C1184.96 253.059 1174.92 247.441 1166.15 240.141C1159.48 234.521 1153.88 227.746 1149.62 220.141C1148.09 217.45 1146.71 214.681 1145.47 211.845C1141.81 203.401 1139.46 194.45 1138.5 185.3C1138.04 181.165 1137.82 177.008 1137.83 172.849C1137.64 161.406 1139.77 150.044 1144.1 139.448C1148.43 128.853 1154.86 119.244 1163.01 111.203C1163.28 110.932 1163.55 110.663 1163.82 110.395C1172.06 102.104 1181.88 95.5498 1192.7 91.1221C1203.52 86.6945 1215.12 84.4832 1226.81 84.6195C1227.21 84.6149 1227.61 84.6123 1228 84.6119C1237.52 84.5533 1247.01 85.6946 1256.24 88.0087C1263.11 89.7605 1269.76 92.2745 1276.08 95.5038C1290.24 102.763 1301.42 113.28 1309.62 127.055C1316.05 137.987 1320.03 150.184 1321.28 162.803C1321.71 166.758 1321.92 170.732 1321.91 174.709ZM116.205 306.876L10 38.8179H24.5349L123.471 288.82L222.41 38.8179H236.758L130.74 306.876H116.205ZM1764.25 306.876V38.8179H1777.66V239.862H1876.6V253.263H1777.66V266.667H1876.6V280.071H1777.66V293.472H1876.6V306.876H1764.25ZM746.357 192.208V178.804H827.221C832.346 178.856 837.437 177.978 842.248 176.211C846.74 174.51 850.871 171.979 854.424 168.75C859.712 163.958 863.292 157.574 864.621 150.566C865.297 147.24 865.627 143.853 865.605 140.459C865.592 133.716 863.281 127.179 859.053 121.923C857.518 119.953 855.813 118.12 853.959 116.445C846.752 109.592 837.17 105.79 827.221 105.835H712.071V306.876H698.658V92.431H827.221C841.009 92.431 853.089 97.2715 863.461 106.952C867.403 110.559 870.775 114.741 873.462 119.358C877.145 125.778 879.062 133.059 879.018 140.459C879.072 146.1 878.328 151.72 876.809 157.153C874.532 165.205 870.074 172.471 863.926 178.152C853.865 187.523 841.63 192.208 827.221 192.208H746.357ZM1569.73 137.108H1484.95V150.508H1569.73C1573.59 150.549 1577.43 149.901 1581.07 148.595C1584.67 147.258 1587.97 145.22 1590.78 142.598C1595.33 138.388 1598.24 132.702 1598.99 126.552C1599.24 124.806 1599.36 123.045 1599.35 121.283C1599.36 114.683 1596.92 108.314 1592.5 103.407C1591.84 102.635 1591.14 101.893 1590.41 101.18C1587.76 98.534 1584.66 96.3829 1581.25 94.829C1577.62 93.2217 1573.69 92.4043 1569.73 92.431H1462.4V306.876H1475.82V105.835H1569.73C1573.59 105.828 1577.31 107.253 1580.18 109.834C1580.46 110.076 1580.73 110.325 1581 110.582C1582.21 111.723 1583.25 113.03 1584.1 114.463C1585.31 116.531 1585.94 118.886 1585.94 121.283C1585.95 122.892 1585.77 124.497 1585.4 126.064C1584.78 128.752 1583.34 131.181 1581.28 133.01C1578.64 135.322 1575.33 136.723 1571.83 137.005C1571.13 137.074 1570.43 137.108 1569.73 137.108ZM517.92 306.876V174.709C517.965 169.622 517.382 164.549 516.184 159.605C514.202 151.191 509.668 143.594 503.202 137.851C493.39 129.164 480.409 124.821 464.26 124.821C457.744 124.721 451.272 125.921 445.225 128.35C439.178 130.779 433.677 134.389 429.043 138.968C424.291 143.429 420.496 148.808 417.889 154.778C415.483 160.497 414.271 166.646 414.325 172.849C414.312 176.391 414.561 179.93 415.069 183.436C415.534 186.637 416.282 189.791 417.305 192.86C418.208 195.574 419.343 198.205 420.698 200.725C422.011 203.171 423.592 205.465 425.41 207.564C428.861 211.5 432.997 214.78 437.617 217.244C442.27 219.763 447.256 221.613 452.427 222.737C456.392 223.584 460.42 224.107 464.47 224.3C465.952 224.375 467.436 224.412 468.92 224.411C483.079 224.411 495.997 220.937 507.674 213.988V227.388C495.626 233.719 482.646 236.885 468.733 236.885C462.266 236.91 455.817 236.225 449.5 234.841C447.476 234.391 445.469 233.86 443.486 233.252C435.718 230.894 428.431 227.176 421.965 222.272C417.306 218.696 413.357 214.284 410.318 209.261C408.921 206.981 407.676 204.611 406.594 202.166C404.221 196.76 402.6 191.054 401.778 185.208C401.187 181.115 400.897 176.984 400.908 172.849C400.775 162.973 403.08 153.216 407.62 144.443C410.606 138.838 414.439 133.726 418.984 129.289C431.032 117.374 446.124 111.417 464.26 111.417C471.432 111.36 478.582 112.19 485.549 113.887C495.692 116.331 505.06 121.273 512.799 128.263C522.071 136.734 528.186 148.101 530.142 160.501C530.959 165.192 531.358 169.947 531.337 174.709V306.876H517.92ZM1281.67 306.876V174.709C1281.71 169.622 1281.13 164.549 1279.93 159.605C1277.95 151.192 1273.41 143.595 1266.95 137.851C1257.14 129.164 1244.15 124.821 1228 124.821C1221.49 124.722 1215.02 125.922 1208.97 128.351C1202.93 130.78 1197.42 134.39 1192.79 138.968C1188.04 143.429 1184.24 148.808 1181.64 154.778C1179.23 160.497 1178.02 166.646 1178.07 172.849C1178.06 176.391 1178.31 179.93 1178.82 183.436C1179.28 186.637 1180.03 189.791 1181.05 192.86C1181.95 195.574 1183.09 198.205 1184.44 200.725C1185.76 203.171 1187.34 205.465 1189.16 207.564C1192.61 211.5 1196.74 214.779 1201.36 217.244C1206.02 219.764 1211 221.613 1216.18 222.737C1220.14 223.584 1224.17 224.107 1228.22 224.3C1229.7 224.375 1231.18 224.412 1232.66 224.411C1246.83 224.411 1259.74 220.937 1271.42 213.988V227.388C1259.37 233.719 1246.39 236.885 1232.48 236.885C1226.01 236.91 1219.56 236.225 1213.24 234.841C1211.22 234.391 1209.21 233.86 1207.23 233.252C1199.46 230.894 1192.18 227.176 1185.71 222.272C1181.05 218.696 1177.1 214.283 1174.07 209.261C1172.67 206.981 1171.42 204.611 1170.34 202.166C1167.96 196.76 1166.34 191.054 1165.52 185.208C1164.93 181.115 1164.64 176.984 1164.66 172.849C1164.52 162.973 1166.83 153.216 1171.37 144.443C1174.35 138.838 1178.18 133.727 1182.73 129.289C1194.78 117.374 1209.87 111.417 1228 111.417C1235.18 111.36 1242.33 112.19 1249.29 113.887C1259.44 116.331 1268.8 121.273 1276.54 128.263C1285.82 136.734 1291.93 148.101 1293.89 160.501C1294.7 165.192 1295.11 169.947 1295.08 174.709V306.876H1281.67ZM738.905 132.64V306.876H725.488V119.236H827.221C830.401 119.206 833.565 119.701 836.585 120.7C839.646 121.739 842.478 123.359 844.923 125.473C846.762 127.018 848.339 128.85 849.593 130.898C851.324 133.785 852.222 137.094 852.188 140.459C852.237 143.79 851.82 147.112 850.952 150.329C848.835 157.707 844.007 162.378 836.467 164.34C833.442 165.084 830.335 165.441 827.221 165.403H746.357V151.999H827.221C833.331 151.999 837.017 149.577 838.279 144.733C838.625 143.335 838.792 141.899 838.775 140.459C838.769 139.096 838.269 137.781 837.367 136.757C836.838 136.124 836.158 135.527 835.326 134.965C833.029 133.415 830.327 132.64 827.221 132.64H738.905ZM202.846 306.876L308.864 38.8179H323.399L217.194 306.876H202.846ZM145.084 306.876L251.106 38.8179H265.637L159.432 306.876H145.084ZM173.967 306.876L280.172 38.8179H294.52L188.315 306.876H173.967ZM1042.8 306.876V38.8179H1056.21V306.876H1042.8ZM1015.97 306.876V38.8179H1029.39V306.876H1015.97ZM989.138 306.876V38.8179H1002.55V306.876H989.138ZM962.309 306.876V38.8179H975.722V306.876H962.309ZM1683.76 306.876V38.8179H1697.17V306.876H1683.76ZM1737.42 306.876V38.8179H1750.83V306.876H1737.42ZM1710.59 306.876V38.8179H1724V306.876H1710.59ZM1973.31 38.8179V306.876H1959.89V38.8179H1973.31ZM1946.48 38.8179V306.876H1933.06V38.8179H1946.48ZM1919.64 38.8179V306.876H1906.23V38.8179H1919.64ZM1569.73 238.372H1484.95V251.776H1569.73C1573.59 251.851 1577.44 251.157 1581.04 249.735C1584.64 248.313 1587.92 246.191 1590.69 243.492C1595.13 239.22 1598.02 233.582 1598.88 227.48C1599.2 225.418 1599.36 223.334 1599.35 221.247C1599.38 213.512 1596.37 206.074 1590.98 200.53C1590.79 200.329 1590.6 200.129 1590.41 199.932C1588.03 197.43 1585.26 195.33 1582.21 193.714C1578.35 191.716 1574.07 190.688 1569.73 190.717H1484.76V204.121H1569.73C1573.2 204.122 1576.55 205.367 1579.18 207.629C1579.82 208.159 1580.43 208.728 1581 209.333C1582.51 210.897 1583.74 212.717 1584.62 214.708C1585.5 216.774 1585.95 219 1585.94 221.247C1585.95 222.955 1585.77 224.659 1585.41 226.328C1584.89 228.657 1583.97 230.671 1582.66 232.371C1582.24 232.915 1581.78 233.428 1581.28 233.904C1578.36 236.725 1574.46 238.32 1570.39 238.36C1570.17 238.368 1569.95 238.371 1569.73 238.372ZM125.15 256.987L38.879 38.8179H53.2269L132.789 239.862L125.15 256.987ZM140.055 221.62L67.7618 38.8179H82.2929L147.137 203.191L140.055 221.62ZM154.216 184.762L96.6408 38.8179H110.989L161.294 165.96L154.216 184.762Z" stroke="#CFCFCF" stroke-width="2" stroke-linecap="round"/>
    </mask>
    <g mask="url(#mask0)">
        <rect x="-122.267" y="-154.271" width="2922" height="539.942" transform="rotate(2.93253 -122.267 -154.271)" fill="#C87EF6"/>
    </g>
    <mask id="mask1" mask-type="alpha" maskUnits="userSpaceOnUse" x="0" y="0" width="2614" height="288">
        <path fill-rule="evenodd" clip-rule="evenodd" d="M1962.03 176.991V210.074H2088.08V223.231H1962.03V236.392H2088.08V249.553H1962.03V262.711H2088.08V275.872H1948.86V12.6761H2088.08V25.8372H1962.03V38.9983H2088.08V52.1557H1962.03V65.3168H2088.08V78.4779L1962.03 78.4779V111.193L2080.77 111.193V124.351L1962.03 124.351V137.512H2080.77V150.673H1962.03V163.83H2080.77V176.991H1962.03ZM730.999 215.921V202.763H810.396C826.617 202.763 841.618 198.864 855.401 191.066C869.182 183.268 880.188 172.422 888.421 158.53C896.654 144.64 900.77 129.288 900.77 112.474C900.794 97.3197 896.547 82.4652 888.515 69.6102C880.377 56.3016 868.939 45.3166 855.308 37.7181C841.645 29.8776 826.152 25.7792 810.396 25.8372H644.649V275.872H631.475V12.6761L810.396 12.6761C824.075 12.6554 837.614 15.4232 850.186 20.8101C859.699 24.7987 868.605 30.1022 876.641 36.5652C878.914 38.407 881.105 40.3466 883.209 42.3784C892.479 51.3347 899.918 61.9666 905.529 74.2742C911.066 86.2495 913.937 99.2823 913.944 112.474C914.012 122.497 912.802 132.488 910.343 142.206C907.984 151.407 904.265 160.205 899.309 168.311C889.906 183.885 876.265 196.467 859.976 204.59L887.601 275.872H873.513L847.35 209.89C845.814 210.4 844.269 210.881 842.715 211.332C841.121 211.793 839.432 212.255 837.646 212.717C837.039 212.874 836.432 213.029 835.825 213.181L860.523 275.872H846.435L822.288 215.374C819.356 215.654 816.416 215.825 813.472 215.887C812.447 215.91 811.421 215.921 810.396 215.921L833.629 275.872H819.725L796.675 215.921H784.783L806.919 275.872H793.015L770.696 215.921H730.999ZM1587.73 142.812L1587.36 142.629C1593.87 136.51 1599.05 129.13 1602.61 120.94C1606.16 112.75 1608 103.922 1608.03 94.9966C1608.03 94.5462 1608.04 94.0958 1608.04 93.6453C1608.1 84.8902 1606.38 76.2141 1602.98 68.1424C1599.59 60.0706 1594.59 52.7714 1588.29 46.6869C1588.07 46.4686 1587.85 46.2514 1587.64 46.0355C1580.89 39.1986 1572.8 33.8327 1563.87 30.2767C1556.08 27.2819 1547.79 25.7761 1539.43 25.8372H1394.54V275.872H1381.37V12.6761L1539.43 12.6761C1553.82 12.6761 1567.33 16.3632 1579.96 23.7373C1592.58 31.1089 1602.61 41.0396 1610.05 53.5294C1617.38 65.6267 1621.24 79.5043 1621.21 93.6453C1621.28 102.579 1620.04 111.474 1617.52 120.046C1614.94 128.646 1610.86 136.724 1605.47 143.909C1615.75 157.759 1621.27 174.556 1621.21 191.796C1621.26 200.092 1620.22 208.359 1618.1 216.381C1616.26 223.243 1613.49 229.822 1609.87 235.936C1605.21 243.929 1599.16 251.028 1592.01 256.901C1588.32 259.892 1584.34 262.511 1580.14 264.721C1568.83 270.627 1556.33 273.91 1543.58 274.326C1542.2 274.382 1540.82 274.409 1539.43 274.408H1456.19V261.251H1539.43C1558.21 261.251 1574.34 254.579 1587.82 241.236C1594.3 234.937 1599.44 227.387 1602.91 219.047C1606.38 210.706 1608.13 201.747 1608.03 192.713C1608.03 192.407 1608.04 192.101 1608.04 191.796C1608.04 182.78 1606.08 173.885 1602.18 165.11C1598.28 156.336 1593.4 148.965 1587.55 142.996C1587.55 142.873 1587.61 142.812 1587.73 142.812ZM598.913 146.103V275.872H585.739V146.103C585.841 132.224 583.83 118.411 579.774 105.137C576.981 96.1709 573.151 87.5608 568.362 79.481C556.775 59.9241 540.98 44.8153 520.977 34.1546C503.265 24.8071 483.719 19.445 463.713 18.4444C460.485 18.2545 457.253 18.1596 454.02 18.1599C431.24 17.9285 408.814 23.7979 389.074 35.1578C369.439 46.4897 354.01 61.8131 342.787 81.128C331.608 100.287 325.795 122.099 325.957 144.276C325.881 158.812 328.326 173.251 333.185 186.952C336.325 195.86 340.501 204.37 345.627 212.305C347.872 215.751 350.314 219.064 352.941 222.228C361.269 232.257 371.005 241.029 381.847 248.273C392.712 255.56 404.616 261.167 417.156 264.904C429.646 268.662 442.62 270.572 455.665 270.571C469.742 270.635 483.685 267.837 496.646 262.348V275.872C483.108 280.623 469.204 282.999 454.934 282.999C440.347 283.024 425.835 280.931 411.851 276.785C397.885 272.643 384.958 266.52 373.068 258.417C361.176 250.314 350.718 240.749 341.693 229.722C332.666 218.694 325.591 205.809 320.468 191.066C315.315 176.072 312.719 160.32 312.788 144.467C312.787 144.403 312.787 144.339 312.788 144.276C312.717 125.74 316.355 107.377 323.488 90.2652C329.848 74.7281 338.991 60.4804 350.468 48.2216C351.223 47.4223 351.987 46.6324 352.761 45.8521C363.499 35.1055 375.989 26.2627 389.696 19.7021C392.35 18.4125 395.04 17.1979 397.763 16.06C415.387 8.68837 434.14 5.00257 454.02 5.00257C471.038 4.90646 487.961 7.52859 504.151 12.7697C506.486 13.5351 508.802 14.3576 511.097 15.2365C523.97 20.0871 536.078 26.7635 547.047 35.0605C550.575 37.7531 553.964 40.6229 557.201 43.6586C568.667 54.5005 578.006 67.3857 584.739 81.6521C585.798 83.8579 586.802 86.0896 587.751 88.3449C595.192 106.013 598.913 125.265 598.913 146.103ZM1348.8 146.103V275.872H1335.63V146.103C1335.73 132.224 1333.72 118.411 1329.66 105.137C1326.87 96.1709 1323.04 87.5608 1318.25 79.481C1306.66 59.9241 1290.87 44.8153 1270.87 34.1546C1253.16 24.8071 1233.61 19.445 1213.61 18.4444C1210.38 18.2544 1207.14 18.1595 1203.91 18.1599C1181.13 17.9285 1158.7 23.7979 1138.96 35.1578C1119.33 46.4897 1103.9 61.8131 1092.68 81.128C1081.5 100.287 1075.69 122.099 1075.85 144.276C1075.77 158.811 1078.22 173.25 1083.07 186.952C1086.22 195.861 1090.39 204.37 1095.52 212.305C1097.76 215.751 1100.21 219.064 1102.83 222.228C1111.16 232.257 1120.9 241.029 1131.74 248.273C1142.61 255.56 1154.51 261.167 1167.05 264.904C1179.54 268.662 1192.51 270.572 1205.56 270.571C1219.63 270.635 1233.58 267.837 1246.54 262.348V275.872C1233 280.623 1219.09 282.999 1204.83 282.999C1190.24 283.024 1175.73 280.931 1161.74 276.785C1147.78 272.643 1134.85 266.52 1122.96 258.417C1111.07 250.314 1100.61 240.749 1091.58 229.722C1082.56 218.694 1075.48 205.809 1070.36 191.066C1065.21 176.072 1062.61 160.32 1062.68 144.467C1062.68 144.403 1062.68 144.339 1062.68 144.276C1062.61 125.74 1066.25 107.377 1073.38 90.2652C1079.74 74.7281 1088.88 60.4804 1100.36 48.2216C1101.11 47.4223 1101.88 46.6324 1102.65 45.8521C1113.39 35.1055 1125.88 26.2627 1139.59 19.7021C1142.24 18.4124 1144.93 17.1979 1147.66 16.06C1165.28 8.68837 1184.03 5.00257 1203.91 5.00257C1220.93 4.90606 1237.85 7.52819 1254.04 12.7697C1256.38 13.5351 1258.7 14.3576 1260.99 15.2365C1273.86 20.0871 1285.97 26.7635 1296.94 35.0605C1300.47 37.7531 1303.86 40.6229 1307.09 43.6586C1318.56 54.5008 1327.9 67.386 1334.63 81.6521C1335.69 83.8579 1336.69 86.0895 1337.64 88.3449C1345.08 106.013 1348.8 125.265 1348.8 146.103ZM1539.43 234.929H1456.19V248.09H1539.43C1546.64 248.18 1553.79 246.816 1560.46 244.08C1567.13 241.344 1573.17 237.292 1578.24 232.166C1578.32 232.083 1578.41 231.999 1578.49 231.915C1583.74 226.816 1587.89 220.705 1590.71 213.953C1593.52 207.2 1594.93 199.948 1594.86 192.634C1594.86 192.355 1594.86 192.075 1594.86 191.796C1594.87 181.69 1592.05 171.783 1586.72 163.19C1581.55 154.477 1574.12 147.312 1565.23 142.445C1574.05 137.891 1581.47 131.04 1586.72 122.618C1592 114.238 1594.82 104.548 1594.86 94.6485C1594.86 94.3141 1594.86 93.9797 1594.86 93.6453C1594.9 86.7198 1593.54 79.8577 1590.88 73.4636C1588.21 67.0696 1584.3 61.2729 1579.36 56.4154C1579.01 56.0585 1578.66 55.7054 1578.31 55.3561C1573.02 50.0093 1566.72 45.7637 1559.78 42.865C1553.31 40.26 1546.4 38.9463 1539.43 38.9983H1407.71V275.872H1420.89V52.1557H1539.43C1550.65 52.1557 1560.5 56.3293 1568.98 64.6767C1572.56 68.1323 1575.53 72.165 1577.78 76.6063C1580.39 81.9043 1581.73 87.7387 1581.69 93.6453C1581.75 98.8333 1580.88 103.99 1579.14 108.876C1577.05 114.525 1573.66 119.607 1569.25 123.714C1565.3 127.543 1560.63 130.556 1555.52 132.578C1550.4 134.601 1544.93 135.595 1539.43 135.502H1499.18H1456.19V148.663H1499.18H1539.43C1549.69 148.629 1559.57 152.583 1566.97 159.69C1567.65 160.321 1568.32 160.97 1568.98 161.637C1572.95 165.608 1576.15 170.286 1578.41 175.43C1580.61 180.604 1581.73 186.174 1581.69 191.796C1581.74 196.815 1581 201.811 1579.48 206.596C1577.47 212.78 1573.95 218.37 1569.25 222.868C1565.34 226.769 1560.69 229.847 1555.56 231.918C1550.44 233.99 1544.96 235.014 1539.43 234.929ZM572.57 146.103V275.872H559.396V146.103C559.468 135.649 558.077 125.237 555.263 115.169C553.018 107.276 549.764 99.7044 545.582 92.6421C536.375 77.1054 523.782 65.1945 507.804 56.9095C494.554 50.1154 480.075 46.0437 465.222 44.935C461.496 44.6296 457.759 44.4785 454.02 44.4821C435.116 44.4821 417.859 48.959 402.248 57.9127C386.995 66.5143 374.329 79.0433 365.567 94.1956C356.725 109.425 352.304 126.119 352.304 144.276C352.304 159.873 355.169 174.098 360.899 186.952C364.196 194.46 368.462 201.505 373.589 207.907C376.736 211.805 380.235 215.406 384.042 218.664C393.739 226.949 404.777 233.376 417.156 237.946C429.602 242.527 442.768 244.848 456.032 244.8C470.017 244.757 483.843 241.832 496.646 236.209V249.553C488.122 252.811 479.259 255.106 470.224 256.396C465.4 257.068 460.535 257.407 455.665 257.41C435.383 257.612 415.377 252.71 397.489 243.156C379.941 233.781 365.271 219.82 355.047 202.763C344.722 185.726 339.226 166.206 339.146 146.29C339.135 145.618 339.13 144.947 339.131 144.276C339.073 129.203 342.092 114.277 348.003 100.409C353.277 87.8015 360.793 76.2521 370.187 66.3199C370.804 65.6734 371.428 65.0345 372.06 64.4034C381.121 55.424 391.667 48.0777 403.233 42.6891C405.02 41.8441 406.827 41.0404 408.651 40.2785C423.021 34.2875 438.449 31.2414 454.02 31.321C476.34 31.321 496.495 36.0736 514.484 45.5789C532.206 54.828 546.95 68.8927 557.017 86.1514C565.698 100.988 570.861 117.616 572.109 134.757C572.418 138.531 572.572 142.316 572.57 146.103ZM1322.46 146.103V275.872H1309.29V146.103C1309.36 135.649 1307.97 125.237 1305.16 115.169C1302.91 107.276 1299.66 99.7044 1295.48 92.6421C1286.27 77.1054 1273.67 65.1945 1257.7 56.9095C1244.45 50.115 1229.97 46.0432 1215.11 44.935C1211.39 44.6296 1207.65 44.4785 1203.91 44.4821C1185.01 44.4821 1167.75 48.959 1152.14 57.9127C1136.88 66.5143 1124.22 79.0433 1115.46 94.1956C1106.61 109.425 1102.19 126.119 1102.19 144.276C1102.19 159.873 1105.06 174.098 1110.79 186.952C1114.09 194.46 1118.35 201.505 1123.48 207.907C1126.63 211.805 1130.13 215.406 1133.94 218.664C1143.63 226.949 1154.67 233.376 1167.05 237.946C1179.5 242.527 1192.66 244.848 1205.92 244.8C1219.91 244.756 1233.73 241.832 1246.54 236.209V249.553C1238.01 252.81 1229.15 255.106 1220.12 256.396C1215.29 257.068 1210.43 257.407 1205.56 257.41C1185.28 257.612 1165.27 252.71 1147.38 243.156C1129.83 233.782 1115.16 219.82 1104.94 202.763C1094.61 185.726 1089.12 166.206 1089.04 146.29C1089.03 145.618 1089.02 144.947 1089.02 144.276C1088.96 129.203 1091.98 114.277 1097.9 100.409C1103.17 87.8018 1110.68 76.2524 1120.08 66.3199C1120.69 65.6734 1121.32 65.0345 1121.95 64.4034C1131.01 55.4237 1141.56 48.0773 1153.13 42.6891C1154.91 41.8442 1156.72 41.0404 1158.54 40.2785C1172.91 34.2875 1188.34 31.2414 1203.91 31.321C1226.23 31.321 1246.38 36.0736 1264.37 45.5789C1282.1 54.8274 1296.84 68.8922 1306.91 86.1514C1315.59 100.989 1320.75 117.616 1322 134.757C1322.31 138.531 1322.46 142.316 1322.46 146.103ZM730.999 189.602V176.441H810.396C818.738 176.582 827.026 175.071 834.782 171.997C842.538 168.923 849.608 164.346 855.585 158.53C867.057 147.7 873.784 132.782 874.3 117.022C874.385 115.507 874.427 113.991 874.427 112.474C874.453 98.5658 869.198 85.1659 859.721 74.978C858.287 73.3695 856.785 71.8234 855.218 70.3439C842.411 58.2184 827.471 52.1557 810.396 52.1557H670.992V275.872H657.822V38.9983H810.396C820.432 38.9054 830.387 40.8045 839.682 44.5853C848.978 48.3662 857.43 53.9536 864.547 61.0233C879.916 75.7041 887.601 92.8542 887.601 112.474C887.723 122.975 885.725 133.392 881.726 143.104C877.801 152.291 872.051 160.586 864.824 167.487C857.697 174.627 849.206 180.264 839.856 184.063C830.506 187.862 820.488 189.745 810.396 189.602H730.999ZM2240.84 124.351H2219.99C2213.92 124.391 2207.85 124.012 2201.83 123.217C2188.12 121.3 2178.41 116.962 2172.69 110.201C2168.51 105.079 2166.33 98.6104 2166.57 92.002C2166.57 82.654 2171.64 74.9031 2181.79 68.7493C2182.23 68.4823 2182.68 68.2215 2183.12 67.967C2187.23 65.697 2191.59 63.9299 2196.12 62.704C2204.53 60.3258 2214.74 58.9695 2226.75 58.6352C2228.77 58.5797 2230.78 58.5522 2232.79 58.5528C2248.28 58.5528 2262.67 60.3508 2275.97 63.9468C2288.56 67.3506 2299.08 72.1494 2307.51 78.3431C2307.98 78.6866 2308.44 79.036 2308.9 79.3912L2298.47 87.4316C2283.23 76.9531 2261.33 71.7139 2232.79 71.7139C2228.52 71.7059 2224.25 71.8245 2219.99 72.0695C2211.02 72.6035 2203.61 73.7415 2197.76 75.4833C2195.99 76.0053 2194.24 76.6392 2192.55 77.3811C2188.3 79.2602 2185.11 81.41 2182.97 83.8306C2180.91 86.0517 2179.75 88.9691 2179.74 92.002C2179.74 98.5452 2182.39 103.304 2187.69 106.279C2188.03 106.464 2188.36 106.64 2188.7 106.806C2190.59 107.697 2192.57 108.39 2194.6 108.876C2198.76 109.927 2204 110.619 2210.32 110.954C2213.54 111.119 2216.76 111.199 2219.99 111.193H2240.84C2250.96 111.134 2261.06 111.928 2271.04 113.567C2281.95 115.426 2291.76 118.382 2300.47 122.434C2307.25 125.552 2313.59 129.547 2319.33 134.315C2327.48 141.013 2334.12 149.348 2338.84 158.778C2343.56 168.208 2346.24 178.524 2346.71 189.056C2346.87 191.428 2346.95 193.805 2346.95 196.183C2346.95 208.001 2344.33 219.09 2339.08 229.449C2334.4 238.606 2328.02 246.792 2320.28 253.574C2319.04 254.672 2317.78 255.738 2316.49 256.77C2311.3 260.879 2305.68 264.418 2299.73 267.326C2294.25 270.046 2288.24 272.451 2281.72 274.539C2280.78 274.84 2279.84 275.132 2278.9 275.415C2269.44 278.209 2259.74 280.125 2249.93 281.139C2242.66 281.906 2235.35 282.283 2228.04 282.269C2211.4 282.345 2194.81 280.408 2178.64 276.501C2173.02 275.121 2167.46 273.479 2161.99 271.578C2151.77 268.078 2141.93 263.547 2132.63 258.054C2124.77 253.4 2117.44 247.915 2110.77 241.693L2121.38 233.832C2129.49 241.066 2138.57 247.142 2148.35 251.889C2154.72 255.008 2161.29 257.678 2168.03 259.881C2184.08 265.107 2200.77 268.128 2217.64 268.861C2221.1 269.027 2224.57 269.109 2228.04 269.108C2251.29 269.108 2271.01 265.645 2287.21 258.72C2293.73 255.966 2299.9 252.46 2305.6 248.273C2311.92 243.709 2317.5 238.223 2322.18 231.998C2329.86 221.647 2333.94 209.067 2333.78 196.183C2333.88 187.814 2332.53 179.491 2329.8 171.579C2325.84 160.579 2318.85 150.922 2309.63 143.726C2296.83 133.459 2279.72 127.273 2258.29 125.167C2252.49 124.61 2246.67 124.338 2240.84 124.351ZM2496.78 124.351H2475.93C2469.86 124.391 2463.79 124.012 2457.77 123.217C2444.06 121.3 2434.35 116.962 2428.63 110.201C2424.45 105.079 2422.27 98.6099 2422.51 92.002C2422.51 82.654 2427.58 74.9031 2437.73 68.7493C2438.17 68.4823 2438.62 68.2215 2439.07 67.967C2443.17 65.6973 2447.53 63.9302 2452.06 62.704C2460.47 60.3258 2470.68 58.9695 2482.69 58.6352C2484.7 58.5797 2486.72 58.5522 2488.73 58.5528C2504.22 58.5528 2518.62 60.3508 2531.91 63.9468C2544.5 67.3506 2555.01 72.1494 2563.45 78.3431C2563.92 78.6866 2564.38 79.036 2564.84 79.3912L2554.41 87.4316C2539.16 76.9531 2517.27 71.7139 2488.73 71.7139C2484.46 71.7059 2480.19 71.8245 2475.93 72.0695C2466.96 72.6035 2459.55 73.7415 2453.7 75.4833C2451.92 76.0053 2450.18 76.6392 2448.48 77.3811C2444.24 79.2602 2441.05 81.41 2438.91 83.8306C2436.84 86.0517 2435.69 88.9691 2435.68 92.002C2435.68 98.5452 2438.33 103.304 2443.64 106.279C2443.97 106.464 2444.3 106.64 2444.64 106.806C2446.53 107.697 2448.51 108.39 2450.55 108.876C2454.7 109.927 2459.94 110.619 2466.26 110.954C2469.48 111.119 2472.7 111.199 2475.93 111.193H2496.78C2506.9 111.134 2517 111.928 2526.98 113.567C2537.89 115.426 2547.7 118.382 2556.42 122.434C2563.19 125.552 2569.53 129.547 2575.27 134.315C2583.41 141.013 2590.06 149.348 2594.78 158.778C2599.5 168.208 2602.18 178.524 2602.65 189.056C2602.81 191.428 2602.89 193.805 2602.89 196.183C2602.89 208.001 2600.27 219.09 2595.03 229.449C2590.34 238.606 2583.96 246.792 2576.22 253.574C2574.99 254.672 2573.72 255.738 2572.43 256.77C2567.24 260.879 2561.62 264.418 2555.67 267.326C2550.18 270.046 2544.18 272.451 2537.66 274.539C2536.72 274.84 2535.78 275.132 2534.83 275.415C2525.38 278.209 2515.68 280.125 2505.87 281.139C2498.6 281.906 2491.29 282.283 2483.98 282.269C2467.34 282.345 2450.75 280.408 2434.58 276.501C2428.96 275.121 2423.4 273.479 2417.93 271.578C2407.71 268.078 2397.87 263.547 2388.56 258.054C2380.71 253.4 2373.38 247.915 2366.71 241.693L2377.32 233.832C2385.43 241.066 2394.51 247.142 2404.29 251.889C2410.65 255.008 2417.23 257.678 2423.97 259.881C2440.02 265.107 2456.71 268.128 2473.58 268.861C2477.04 269.027 2480.51 269.109 2483.98 269.108C2507.23 269.108 2526.95 265.645 2543.15 258.72C2549.67 255.966 2555.84 252.46 2561.55 248.273C2567.86 243.709 2573.44 238.223 2578.12 231.998C2585.8 221.647 2589.88 209.067 2589.72 196.183C2589.82 187.814 2588.47 179.491 2585.74 171.579C2581.78 160.579 2574.79 150.922 2565.57 143.726C2552.77 133.459 2535.66 127.273 2514.23 125.167C2508.43 124.61 2502.61 124.338 2496.78 124.351ZM2240.84 176.991H2219.99C2209.87 177.051 2199.77 176.257 2189.79 174.618C2178.88 172.757 2169.06 169.799 2160.35 165.747C2153.58 162.63 2147.24 158.637 2141.51 153.87C2133.36 147.172 2126.71 138.837 2121.99 129.407C2117.27 119.977 2114.59 109.661 2114.12 99.1291C2113.96 96.7569 2113.88 94.3798 2113.88 92.002C2113.88 80.1835 2116.5 69.0949 2121.74 58.7362C2126.43 49.5792 2132.81 41.3929 2140.55 34.6113C2141.78 33.512 2143.05 32.4448 2144.34 31.4109C2149.53 27.3032 2155.15 23.7655 2161.1 20.8588C2166.58 18.1387 2172.59 15.7343 2179.11 13.6456C2180.05 13.3448 2180.99 13.0528 2181.94 12.7697C2191.39 9.97595 2201.09 8.06005 2210.9 7.04636C2218.17 6.27915 2225.48 5.9018 2232.79 5.91591C2249.43 5.83878 2266.02 7.77437 2282.19 11.6804C2287.81 13.0611 2293.37 14.7049 2298.84 16.6065C2309.06 20.1068 2318.9 24.6382 2328.2 30.1307C2336.06 34.7846 2343.39 40.27 2350.06 46.4922L2339.45 54.3492C2331.34 47.1166 2322.26 41.0411 2312.48 36.2957C2306.11 33.1773 2299.54 30.5069 2292.8 28.304C2276.75 23.0783 2260.06 20.0573 2243.19 19.3241C2239.73 19.1568 2236.26 19.0732 2232.79 19.0733C2209.54 19.0733 2189.82 22.5357 2173.62 29.4606C2167.1 32.2163 2160.93 35.7238 2155.23 39.9117C2148.91 44.4745 2143.33 49.9598 2138.65 56.1834C2130.97 66.535 2126.89 79.1166 2127.05 92.002C2126.95 100.371 2128.3 108.694 2131.03 116.606C2134.99 127.606 2141.98 137.262 2151.2 144.459C2164 154.726 2181.11 160.912 2202.54 163.018C2208.34 163.573 2214.16 163.844 2219.99 163.83H2240.11C2246.26 163.791 2252.41 164.172 2258.51 164.968C2272.14 166.847 2281.87 171.055 2287.71 177.59C2292.17 182.736 2294.51 189.38 2294.26 196.183C2294.26 205.531 2289.19 213.282 2279.04 219.436C2278.6 219.703 2278.15 219.963 2277.71 220.218C2273.6 222.488 2269.24 224.255 2264.71 225.481C2256.3 227.859 2246.08 229.215 2234.08 229.55C2232.06 229.604 2230.05 229.63 2228.04 229.628C2212.55 229.628 2198.16 227.832 2184.86 224.238C2172.27 220.834 2161.75 216.035 2153.32 209.842C2152.85 209.498 2152.39 209.149 2151.93 208.794L2162.36 200.753C2177.61 211.232 2199.5 216.471 2228.04 216.471C2232.31 216.479 2236.58 216.36 2240.84 216.115C2249.81 215.581 2257.22 214.443 2263.07 212.702C2264.84 212.18 2266.59 211.546 2268.28 210.804C2272.53 208.925 2275.72 206.774 2277.86 204.35C2279.92 202.13 2281.08 199.214 2281.09 196.183C2281.09 189.64 2278.44 184.881 2273.13 181.906C2272.8 181.721 2272.47 181.545 2272.13 181.378C2270.24 180.488 2268.26 179.794 2266.23 179.308C2262.07 178.258 2256.83 177.564 2250.51 177.227C2247.29 177.063 2244.07 176.985 2240.84 176.991ZM2496.78 176.991H2475.93C2465.81 177.051 2455.71 176.257 2445.73 174.618C2434.82 172.757 2425.01 169.799 2416.29 165.747C2409.52 162.63 2403.18 158.637 2397.44 153.87C2389.29 147.171 2382.65 138.837 2377.93 129.407C2373.21 119.976 2370.53 109.661 2370.06 99.1291C2369.9 96.7569 2369.82 94.3798 2369.82 92.002C2369.82 80.1835 2372.44 69.0949 2377.69 58.7362C2382.37 49.5795 2388.75 41.3932 2396.49 34.6113C2397.72 33.5119 2398.99 32.4447 2400.28 31.4109C2405.47 27.3032 2411.09 23.7655 2417.04 20.8588C2422.52 18.1387 2428.53 15.7343 2435.05 13.6456C2435.99 13.3448 2436.93 13.0528 2437.87 12.7697C2447.33 9.97595 2457.03 8.06005 2466.84 7.04636C2474.11 6.27915 2481.42 5.9018 2488.73 5.91591C2505.37 5.83878 2521.95 7.77437 2538.12 11.6804C2543.75 13.0611 2549.31 14.7049 2554.77 16.6065C2565 20.1066 2574.84 24.638 2584.15 30.1307C2592 34.7848 2599.32 40.2703 2606 46.4922L2595.39 54.3492C2587.28 47.1169 2578.2 41.0414 2568.42 36.2957C2562.05 33.1773 2555.48 30.5069 2548.74 28.304C2532.69 23.0779 2516 20.0569 2499.13 19.3241C2495.67 19.1568 2492.2 19.0732 2488.73 19.0733C2465.48 19.0733 2445.76 22.5357 2429.56 29.4606C2423.04 32.2163 2416.87 35.7238 2411.16 39.9117C2404.85 44.4745 2399.27 49.9598 2394.59 56.1834C2386.91 66.5355 2382.83 79.1171 2382.99 92.002C2382.9 100.371 2384.24 108.694 2386.97 116.606C2390.93 127.606 2397.92 137.263 2407.14 144.459C2419.94 154.726 2437.05 160.912 2458.48 163.018C2464.28 163.573 2470.1 163.844 2475.93 163.83H2496.05C2502.2 163.792 2508.35 164.172 2514.45 164.968C2528.08 166.847 2537.82 171.055 2543.65 177.59C2548.11 182.736 2550.45 189.38 2550.2 196.183C2550.2 205.531 2545.13 213.282 2534.98 219.436C2534.54 219.703 2534.09 219.963 2533.65 220.218C2529.54 222.488 2525.18 224.255 2520.65 225.481C2512.24 227.859 2502.03 229.215 2490.02 229.55C2488 229.604 2485.99 229.63 2483.98 229.628C2468.49 229.628 2454.1 227.832 2440.8 224.238C2428.21 220.834 2417.7 216.035 2409.26 209.842C2408.79 209.498 2408.33 209.149 2407.87 208.794L2418.3 200.753C2433.54 211.232 2455.44 216.471 2483.98 216.471C2488.25 216.479 2492.52 216.36 2496.78 216.115C2505.75 215.581 2513.16 214.443 2519.01 212.702C2520.79 212.18 2522.53 211.546 2524.22 210.804C2528.47 208.925 2531.66 206.774 2533.8 204.35C2535.86 202.13 2537.02 199.214 2537.03 196.183C2537.03 189.64 2534.38 184.881 2529.07 181.906C2528.74 181.721 2528.41 181.545 2528.06 181.378C2526.17 180.488 2524.2 179.794 2522.16 179.308C2518.01 178.258 2512.77 177.564 2506.45 177.227C2503.23 177.064 2500.01 176.985 2496.78 176.991ZM2240.84 150.673H2219.99C2212.53 150.711 2205.09 150.201 2197.71 149.146C2190.18 148.028 2183.34 146.293 2177.2 143.943C2171.37 141.76 2165.88 138.765 2160.89 135.045C2155.08 130.803 2150.26 125.357 2146.74 119.079C2143.23 112.802 2141.12 105.841 2140.55 98.6724C2140.33 96.4557 2140.22 94.2295 2140.22 92.002C2140.19 85.2826 2141.58 78.632 2144.29 72.4841C2147.01 66.3362 2150.99 60.829 2155.98 56.3219C2158.66 53.7769 2161.52 51.4382 2164.55 49.3258C2171.9 44.2786 2180.01 40.437 2188.57 37.9465C2201.13 34.1384 2215.87 32.2344 2232.79 32.2344C2245.69 32.1827 2258.55 33.4571 2271.18 36.0374C2276.66 37.1739 2282.07 38.5894 2287.4 40.2785C2295.18 42.7081 2302.73 45.8313 2309.95 49.6103C2316.98 53.2897 2323.56 57.7621 2329.57 62.9398L2319.33 71.1636C2313.45 66.4198 2307.01 62.4018 2300.17 59.1966C2294.18 56.376 2287.99 54.022 2281.64 52.1557C2266.52 47.6489 2250.23 45.3954 2232.79 45.3954C2216.57 45.3954 2202.75 47.1398 2191.35 50.6284C2185.16 52.4486 2179.25 55.1153 2173.79 58.5528C2169.84 61.0508 2166.22 64.0503 2163.04 67.4766C2156.78 74.1026 2153.32 82.89 2153.39 92.002C2153.33 97.1055 2154.13 102.183 2155.75 107.024C2158.41 114.639 2163.45 121.196 2170.13 125.725C2181.29 133.583 2197.91 137.512 2219.99 137.512H2240.11C2257.16 137.512 2271.59 139.755 2283.42 144.242C2289.28 146.417 2294.81 149.412 2299.84 153.14C2313.68 163.558 2320.61 177.906 2320.61 196.183C2320.64 202.902 2319.25 209.552 2316.53 215.699C2313.82 221.846 2309.84 227.353 2304.85 231.859C2302.17 234.406 2299.31 236.746 2296.27 238.859C2288.93 243.906 2280.82 247.748 2272.26 250.238C2259.7 254.046 2244.96 255.95 2228.04 255.95C2215.14 256.002 2202.28 254.728 2189.65 252.147C2184.17 251.011 2178.76 249.595 2173.43 247.906C2165.65 245.477 2158.1 242.354 2150.88 238.575C2143.85 234.895 2137.27 230.423 2131.26 225.245L2141.51 217.017C2147.39 221.763 2153.82 225.782 2160.66 228.988C2166.65 231.807 2172.84 234.16 2179.19 236.025C2194.31 240.535 2210.6 242.789 2228.04 242.789C2244.26 242.789 2258.08 241.045 2269.48 237.556C2275.67 235.735 2281.58 233.067 2287.03 229.628C2290.99 227.131 2294.61 224.133 2297.79 220.708C2304.05 214.082 2307.51 205.295 2307.44 196.183C2307.5 191.078 2306.7 185.999 2305.08 181.158C2302.42 173.544 2297.37 166.988 2290.7 162.46C2279.54 154.602 2262.92 150.673 2240.84 150.673ZM2496.78 150.673H2475.93C2468.47 150.711 2461.03 150.201 2453.65 149.146C2446.11 148.028 2439.28 146.293 2433.15 143.943C2427.32 141.76 2421.83 138.765 2416.84 135.045C2411.02 130.803 2406.2 125.357 2402.69 119.079C2399.17 112.802 2397.06 105.841 2396.49 98.6724C2396.27 96.4557 2396.16 94.2295 2396.16 92.002C2396.13 85.2826 2397.52 78.632 2400.23 72.4841C2402.95 66.3362 2406.93 60.829 2411.92 56.3219C2414.59 53.7769 2417.46 51.4382 2420.49 49.3258C2427.84 44.2782 2435.95 40.4366 2444.51 37.9465C2457.07 34.1384 2471.81 32.2344 2488.73 32.2344C2501.62 32.1827 2514.49 33.4571 2527.12 36.0374C2532.6 37.1738 2538.01 38.5893 2543.34 40.2785C2551.12 42.7083 2558.67 45.8315 2565.89 49.6103C2572.92 53.2897 2579.5 57.7621 2585.51 62.9398L2575.27 71.1636C2569.38 66.4198 2562.95 62.4018 2556.11 59.1966C2550.12 56.376 2543.93 54.022 2537.58 52.1557C2522.46 47.6489 2506.17 45.3954 2488.73 45.3954C2472.5 45.3954 2458.69 47.1398 2447.29 50.6284C2441.1 52.4486 2435.19 55.1153 2429.73 58.5528C2425.78 61.0508 2422.16 64.0503 2418.98 67.4766C2412.72 74.1032 2409.26 82.8906 2409.34 92.002C2409.27 97.1053 2410.07 102.183 2411.69 107.024C2414.35 114.639 2419.39 121.196 2426.08 125.725C2437.24 133.583 2453.85 137.512 2475.93 137.512H2496.05C2513.1 137.512 2527.53 139.755 2539.36 144.242C2545.23 146.417 2550.76 149.412 2555.78 153.14C2569.63 163.558 2576.55 177.906 2576.55 196.183C2576.58 202.902 2575.19 209.552 2572.48 215.699C2569.76 221.846 2565.78 227.353 2560.79 231.859C2558.11 234.406 2555.25 236.746 2552.22 238.859C2544.87 243.907 2536.76 247.748 2528.2 250.238C2515.64 254.046 2500.9 255.95 2483.98 255.95C2471.08 256.002 2458.22 254.728 2445.59 252.147C2440.11 251.011 2434.7 249.595 2429.37 247.906C2421.59 245.477 2414.04 242.354 2406.82 238.575C2399.79 234.895 2393.21 230.423 2387.2 225.245L2397.44 217.017C2403.32 221.763 2409.76 225.782 2416.6 228.988C2422.59 231.808 2428.78 234.16 2435.13 236.025C2450.25 240.535 2466.53 242.789 2483.98 242.789C2500.21 242.789 2514.02 241.045 2525.42 237.556C2531.61 235.735 2537.52 233.067 2542.98 229.628C2546.93 227.131 2550.55 224.133 2553.73 220.708C2559.99 214.082 2563.45 205.294 2563.37 196.183C2563.43 191.078 2562.64 186 2561.02 181.158C2558.36 173.543 2553.31 166.988 2546.63 162.46C2535.48 154.602 2518.86 150.673 2496.78 150.673ZM546.223 146.103V275.872H533.053V146.103C533.127 138.025 532.079 129.977 529.939 122.187C526.643 110.27 520.05 99.5226 510.917 91.1785C499.445 80.6944 485.033 73.9732 469.621 71.9198C464.456 71.1593 459.241 70.7852 454.02 70.8006C444.227 70.6932 434.499 72.3924 425.324 75.8127C415.902 79.4497 407.352 85.0283 400.232 92.1855C393.359 98.8059 387.902 106.751 384.193 115.54C380.483 124.329 378.598 133.779 378.651 143.318C378.648 143.637 378.647 143.956 378.647 144.276C378.616 150.563 379.23 156.837 380.479 162.999C381.515 168.055 383.078 172.99 385.14 177.721C387.301 182.729 390.06 187.457 393.357 191.803C396.102 195.397 399.271 198.647 402.795 201.483C410.236 207.452 418.56 211.992 427.767 215.101C436.976 218.208 446.702 219.761 456.946 219.761C470.768 219.781 484.39 216.458 496.646 210.074V223.965C486.163 228.403 475.025 231.098 463.671 231.945C461.372 232.107 459.068 232.189 456.762 232.189C444.688 232.189 433.224 230.331 422.371 226.615C411.753 223.031 401.891 217.516 393.282 210.347C386.737 204.829 381.241 198.177 377.059 190.71C375.556 188.068 374.193 185.349 372.975 182.565C369.385 174.274 367.08 165.485 366.137 156.501C365.69 152.441 365.468 148.36 365.474 144.276C365.286 133.041 367.381 121.885 371.631 111.481C375.882 101.078 382.199 91.6434 390.202 83.7483C390.465 83.4823 390.73 83.2178 390.996 82.9547C399.085 74.8139 408.728 68.3789 419.354 64.0316C429.979 59.6843 441.37 57.5131 452.851 57.6469C453.24 57.6424 453.63 57.6399 454.02 57.6395C463.363 57.5823 472.676 58.7029 481.738 60.9747C488.487 62.6944 495.021 65.1628 501.221 68.3338C515.124 75.4608 526.1 85.7871 534.151 99.3125C540.466 110.046 544.374 122.022 545.604 134.413C546.022 138.295 546.228 142.198 546.223 146.103ZM1296.12 146.103V275.872H1282.94V146.103C1283.02 138.025 1281.97 129.977 1279.83 122.187C1276.53 110.27 1269.94 99.5226 1260.81 91.1785C1249.33 80.6944 1234.92 73.9732 1219.51 71.9198C1214.35 71.1593 1209.13 70.7852 1203.91 70.8006C1194.12 70.6932 1184.39 72.3924 1175.21 75.8127C1165.79 79.4501 1157.24 85.0288 1150.13 92.1855C1143.25 98.8059 1137.8 106.751 1134.09 115.54C1130.38 124.329 1128.49 133.779 1128.54 143.318C1128.54 143.637 1128.54 143.956 1128.54 144.276C1128.51 150.563 1129.12 156.837 1130.37 162.999C1131.41 168.056 1132.97 172.99 1135.03 177.721C1137.19 182.729 1139.95 187.457 1143.25 191.803C1145.99 195.397 1149.16 198.647 1152.69 201.483C1160.13 207.452 1168.45 211.992 1177.66 215.101C1186.87 218.208 1196.59 219.761 1206.84 219.761C1220.66 219.781 1234.28 216.457 1246.54 210.074V223.965C1236.05 228.403 1224.91 231.098 1213.56 231.945C1211.26 232.107 1208.96 232.189 1206.66 232.189C1194.58 232.189 1183.12 230.331 1172.26 226.615C1161.64 223.031 1151.78 217.515 1143.17 210.347C1136.63 204.829 1131.13 198.177 1126.95 190.71C1125.45 188.068 1124.09 185.349 1122.87 182.565C1119.28 174.274 1116.97 165.486 1116.03 156.501C1115.58 152.441 1115.36 148.36 1115.37 144.276C1115.18 133.041 1117.27 121.885 1121.52 111.481C1125.77 101.078 1132.09 91.6434 1140.1 83.7483C1140.36 83.4823 1140.62 83.2178 1140.89 82.9547C1148.97 74.8139 1158.62 68.3789 1169.24 64.0316C1179.87 59.6843 1191.26 57.5131 1202.74 57.6469C1203.13 57.6424 1203.52 57.6399 1203.91 57.6395C1213.25 57.582 1222.57 58.7025 1231.63 60.9747C1238.38 62.6947 1244.91 65.1631 1251.11 68.3338C1265.02 75.4608 1275.99 85.7871 1284.04 99.3125C1290.36 110.046 1294.26 122.022 1295.49 134.413C1295.91 138.295 1296.12 142.197 1296.12 146.103ZM112.278 275.872L8 12.6761H22.2712L119.412 258.144L216.557 12.6761H230.645L126.55 275.872H112.278ZM1730.43 275.872V12.6761H1743.6V210.074H1840.74V223.231H1743.6V236.392H1840.74V249.553H1743.6V262.711H1840.74V275.872H1730.43ZM730.999 163.284V150.123H810.396C815.428 150.174 820.427 149.312 825.15 147.577C829.561 145.907 833.617 143.422 837.106 140.252C842.298 135.546 845.812 129.278 847.117 122.397C847.781 119.131 848.105 115.806 848.084 112.474C848.071 105.853 845.802 99.4346 841.651 94.2742C840.143 92.3394 838.47 90.5396 836.649 88.8952C829.573 82.1664 820.165 78.4334 810.396 78.4779H697.335V275.872H684.165V65.3168H810.396C823.934 65.3168 835.795 70.0694 845.978 79.5746C849.849 83.1155 853.16 87.2223 855.798 91.755C859.415 98.0593 861.297 105.207 861.254 112.474C861.306 118.012 860.576 123.53 859.084 128.865C856.849 136.77 852.472 143.905 846.435 149.483C836.557 158.683 824.543 163.284 810.396 163.284H730.999ZM1539.43 109.183H1456.19V122.341H1539.43C1543.22 122.381 1547 121.744 1550.57 120.462C1554.1 119.149 1557.35 117.148 1560.11 114.574C1564.57 110.44 1567.43 104.857 1568.16 98.8184C1568.41 97.1047 1568.52 95.3759 1568.52 93.6453C1568.53 87.1649 1566.13 80.9114 1561.8 76.0934C1561.14 75.3361 1560.45 74.6067 1559.74 73.9074C1557.14 71.309 1554.09 69.1969 1550.75 67.6712C1547.18 66.0931 1543.33 65.2905 1539.43 65.3168H1434.05V275.872H1447.23V78.4779H1539.43C1543.22 78.4704 1546.88 79.8698 1549.7 82.4045C1549.97 82.6418 1550.24 82.8864 1550.5 83.1381C1551.69 84.259 1552.71 85.5419 1553.54 86.9487C1554.73 88.9799 1555.35 91.2921 1555.35 93.6453C1555.36 95.2255 1555.18 96.8016 1554.82 98.3393C1554.22 100.979 1552.8 103.364 1550.78 105.159C1548.18 107.429 1544.93 108.805 1541.5 109.082C1540.81 109.15 1540.12 109.183 1539.43 109.183ZM506.706 275.872V146.103C506.75 141.108 506.177 136.127 505.001 131.272C503.055 123.011 498.604 115.552 492.255 109.913C482.621 101.384 469.876 97.119 454.02 97.119C447.621 97.0211 441.267 98.1993 435.33 100.584C429.393 102.97 423.991 106.514 419.441 111.01C414.776 115.389 411.05 120.671 408.49 126.533C406.128 132.148 404.937 138.185 404.99 144.276C404.977 147.754 405.222 151.228 405.721 154.671C406.178 157.814 406.912 160.91 407.917 163.924C408.803 166.589 409.917 169.172 411.247 171.646C412.537 174.048 414.089 176.3 415.875 178.361C419.263 182.226 423.323 185.446 427.86 187.865C432.428 190.34 437.324 192.156 442.401 193.259C446.295 194.091 450.249 194.604 454.226 194.794C455.681 194.867 457.138 194.903 458.595 194.903C472.497 194.903 485.181 191.491 496.646 184.669V197.826C484.817 204.042 472.071 207.15 458.411 207.15C452.062 207.175 445.729 206.502 439.528 205.144C437.54 204.701 435.57 204.181 433.623 203.583C425.995 201.268 418.84 197.618 412.491 192.803C407.918 189.292 404.04 184.959 401.056 180.027C399.684 177.789 398.462 175.462 397.399 173.061C395.069 167.753 393.478 162.151 392.671 156.411C392.091 152.392 391.805 148.336 391.817 144.276C391.686 134.579 393.949 125 398.407 116.385C401.338 110.882 405.102 105.863 409.565 101.506C421.395 89.8073 436.213 83.9579 454.02 83.9579C461.061 83.9022 468.082 84.7169 474.923 86.3835C484.881 88.7828 494.079 93.6357 501.678 100.499C510.782 108.816 516.786 119.977 518.707 132.152C519.508 136.758 519.901 141.427 519.88 146.103V275.872H506.706ZM1256.6 275.872V146.103C1256.64 141.108 1256.07 136.127 1254.89 131.272C1252.95 123.011 1248.5 115.552 1242.15 109.913C1232.51 101.384 1219.77 97.119 1203.91 97.119C1197.51 97.0216 1191.16 98.2 1185.22 100.585C1179.28 102.97 1173.88 106.514 1169.33 111.01C1164.67 115.389 1160.94 120.671 1158.38 126.533C1156.02 132.148 1154.83 138.185 1154.88 144.276C1154.87 147.754 1155.11 151.228 1155.61 154.671C1156.07 157.814 1156.81 160.91 1157.81 163.924C1158.69 166.589 1159.81 169.172 1161.14 171.646C1162.43 174.048 1163.98 176.3 1165.77 178.361C1169.15 182.226 1173.21 185.446 1177.75 187.865C1182.32 190.34 1187.22 192.156 1192.29 193.259C1196.19 194.091 1200.14 194.604 1204.12 194.794C1205.57 194.867 1207.03 194.903 1208.48 194.903C1222.39 194.903 1235.07 191.491 1246.54 184.669V197.826C1234.71 204.042 1221.96 207.15 1208.3 207.15C1201.95 207.175 1195.62 206.502 1189.42 205.144C1187.43 204.701 1185.46 204.181 1183.51 203.583C1175.88 201.268 1168.73 197.618 1162.38 192.803C1157.81 189.291 1153.93 184.959 1150.95 180.027C1149.58 177.789 1148.35 175.462 1147.29 173.061C1144.96 167.753 1143.37 162.151 1142.56 156.411C1141.98 152.392 1141.7 148.336 1141.71 144.276C1141.58 134.579 1143.84 125 1148.3 116.385C1151.23 110.882 1154.99 105.863 1159.45 101.506C1171.29 89.8073 1186.1 83.9579 1203.91 83.9579C1210.95 83.9022 1217.97 84.7169 1224.81 86.3835C1234.77 88.7828 1243.97 93.6357 1251.57 100.499C1260.67 108.816 1266.68 119.977 1268.6 132.152C1269.4 136.758 1269.79 141.427 1269.77 146.103V275.872H1256.6ZM723.682 104.796V275.872H710.508V91.6352H810.396C813.519 91.6063 816.625 92.0919 819.59 93.0726C822.596 94.0927 825.376 95.6841 827.777 97.7591C829.583 99.276 831.131 101.075 832.363 103.086C834.062 105.921 834.943 109.17 834.911 112.474C834.958 115.745 834.549 119.006 833.697 122.165C831.618 129.409 826.878 133.995 819.474 135.921C816.504 136.652 813.454 137.003 810.396 136.965H730.999V123.804H810.396C816.396 123.804 820.015 121.426 821.254 116.67C821.593 115.297 821.757 113.887 821.741 112.474C821.735 111.135 821.244 109.844 820.358 108.839C819.839 108.218 819.171 107.631 818.354 107.08C816.098 105.557 813.446 104.796 810.396 104.796H723.682ZM197.348 275.872L301.442 12.6761H315.714L211.435 275.872H197.348ZM140.634 275.872L244.732 12.6761H259L154.721 275.872H140.634ZM168.992 275.872L273.271 12.6761H287.359L183.08 275.872H168.992ZM1022.06 275.872V12.6761H1035.24V275.872H1022.06ZM995.719 275.872V12.6761H1008.89V275.872H995.719ZM969.376 275.872V12.6761H982.546V275.872H969.376ZM943.033 275.872V12.6761H956.203V275.872H943.033ZM1651.39 275.872V12.6761H1664.57V275.872H1651.39ZM1704.08 275.872V12.6761H1717.25V275.872H1704.08ZM1677.74 275.872V12.6761H1690.91V275.872H1677.74ZM1935.69 12.6761V275.872H1922.52V12.6761H1935.69ZM1909.35 12.6761V275.872H1896.17V12.6761H1909.35ZM1883 12.6761V275.872H1869.83V12.6761H1883ZM1539.43 208.61H1456.19V221.771H1539.43C1543.23 221.845 1547.01 221.164 1550.54 219.767C1554.07 218.371 1557.29 216.287 1560.01 213.637C1564.38 209.443 1567.21 203.907 1568.05 197.916C1568.37 195.892 1568.53 193.845 1568.52 191.796C1568.55 184.202 1565.6 176.899 1560.3 171.455C1560.11 171.257 1559.93 171.061 1559.74 170.868C1557.4 168.411 1554.68 166.349 1551.69 164.762C1547.9 162.801 1543.69 161.791 1539.43 161.82H1456.01V174.981H1539.43C1542.84 174.982 1546.13 176.204 1548.72 178.425C1549.34 178.946 1549.94 179.504 1550.5 180.098C1551.99 181.634 1553.19 183.421 1554.05 185.376C1554.92 187.404 1555.36 189.59 1555.35 191.796C1555.36 193.473 1555.19 195.146 1554.83 196.785C1554.32 199.071 1553.41 201.049 1552.13 202.718C1551.72 203.253 1551.26 203.756 1550.78 204.223C1547.9 206.994 1544.08 208.56 1540.09 208.599C1539.87 208.606 1539.65 208.61 1539.43 208.61ZM121.061 226.888L36.3551 12.6761H50.4428L128.562 210.074L121.061 226.888ZM135.695 192.163L64.714 12.6761H78.9815L142.649 174.068L135.695 192.163ZM149.599 155.973L93.0691 12.6761H107.157L156.55 137.512L149.599 155.973Z" stroke="#CFCFCF" stroke-width="10" stroke-linecap="round"/>
    </mask>
    <g mask="url(#mask1)">
        <rect width="2869" height="538.312" transform="matrix(0.998726 0.0504714 0.0504714 -0.998726 -144.867 333.626)" fill="#07D8A6"/>
    </g>
</svg>
