<svg width="2608" height="284" viewBox="0 0 2608 284" fill="none" xmlns="http://www.w3.org/2000/svg">
    <path d="M1959.03 234.392V221.231H2085.08V208.074H1959.03V174.991H2077.77V161.83H1959.03V148.673H2077.77V135.512M2085.08 234.392V247.553H1959.03V260.711H2085.08V273.872H1945.86M1945.86 10.6761H2085.08V23.8372H1959.03V36.9983M2085.08 36.9983V50.1557H1959.03V63.3168H2085.08V76.4779H1959.03V109.193H2077.77V122.351H1959.03M1605.04 91.6453C1605.04 92.0958 1605.03 92.5462 1605.03 92.9966C1605 101.922 1603.16 110.75 1599.61 118.94C1596.05 127.13 1590.87 134.51 1584.36 140.629L1584.73 140.812C1584.61 140.812 1584.55 140.873 1584.55 140.996C1590.4 146.965 1595.28 154.336 1599.18 163.11C1603.08 171.885 1605.04 180.78 1605.04 189.796C1605.04 190.101 1605.03 190.407 1605.03 190.713C1605.13 199.747 1603.38 208.706 1599.91 217.047C1596.44 225.387 1591.3 232.937 1584.82 239.236M1391.54 23.8372V273.872H1378.37V10.6761H1536.43C1550.82 10.6761 1564.33 14.3632 1576.96 21.7373C1589.58 29.1089 1599.61 39.0396 1607.05 51.5294C1614.38 63.6267 1618.24 77.5043 1618.21 91.6453C1618.28 100.579 1617.04 109.474 1614.52 118.046C1611.94 126.646 1607.86 134.724 1602.47 141.909C1612.75 155.759 1618.27 172.556 1618.21 189.796C1618.26 198.092 1617.22 206.359 1615.1 214.381C1613.26 221.243 1610.49 227.822 1606.87 233.936C1602.21 241.929 1596.16 249.028 1589.01 254.901C1585.32 257.892 1581.34 260.511 1577.14 262.721C1565.83 268.627 1553.33 271.91 1540.58 272.326C1539.2 272.382 1537.82 272.409 1536.43 272.408H1453.19V259.251M1453.19 232.929V246.09H1536.43C1543.64 246.18 1550.79 244.816 1557.46 242.08C1564.13 239.344 1570.17 235.292 1575.24 230.166C1575.32 230.083 1575.41 229.999 1575.49 229.915C1580.74 224.816 1584.89 218.705 1587.71 211.952C1590.52 205.2 1591.93 197.948 1591.86 190.634C1591.86 190.355 1591.86 190.075 1591.86 189.796C1591.87 179.69 1589.05 169.783 1583.72 161.19M1583.72 120.618C1589 112.238 1591.82 102.548 1591.86 92.6485C1591.86 92.3141 1591.86 91.9797 1591.86 91.6453C1591.9 84.7198 1590.54 77.8577 1587.88 71.4636M1536.43 36.9983H1404.71M1404.71 273.872H1417.89V50.1557H1536.43C1547.65 50.1557 1557.5 54.3293 1565.98 62.6767C1569.56 66.1323 1572.53 70.165 1574.78 74.6063C1577.39 79.9043 1578.73 85.7387 1578.69 91.6453C1578.75 96.8333 1577.88 101.99 1576.14 106.876C1574.05 112.525 1570.66 117.607 1566.25 121.714M1536.43 133.502H1453.19M1496.18 146.663H1536.43C1546.69 146.629 1556.57 150.583 1563.97 157.69C1564.65 158.321 1565.32 158.97 1565.98 159.637C1569.95 163.608 1573.15 168.286 1575.41 173.43C1577.61 178.604 1578.73 184.174 1578.69 189.796C1578.74 194.815 1578 199.811 1576.48 204.596M727.999 187.602H807.396C817.488 187.745 827.506 185.862 836.856 182.063C846.206 178.264 854.697 172.627 861.824 165.487C869.051 158.586 874.801 150.291 878.726 141.104C882.725 131.392 884.723 120.975 884.601 110.474C884.601 90.8542 876.916 73.7041 861.547 59.0233C854.43 51.9536 845.978 46.3662 836.682 42.5853C827.387 38.8045 817.432 36.9054 807.396 36.9983H654.822V273.872H667.992M2278.64 50.1557C2284.99 52.022 2291.18 54.376 2297.17 57.1966C2304.01 60.4018 2310.45 64.4198 2316.33 69.1637L2326.57 60.9398C2320.56 55.7621 2313.98 51.2897 2306.95 47.6103C2299.73 43.8313 2292.18 40.7081 2284.4 38.2785C2279.07 36.5894 2273.66 35.1739 2268.18 34.0374C2255.55 31.4571 2242.69 30.1827 2229.79 30.2344C2212.87 30.2344 2198.13 32.1384 2185.57 35.9465C2177.01 38.437 2168.9 42.2786 2161.55 47.3258C2158.52 49.4382 2155.66 51.7769 2152.98 54.3219C2147.99 58.829 2144.01 64.3362 2141.29 70.4841C2138.58 76.632 2137.19 83.2826 2137.22 90.002C2137.22 92.2295 2137.33 94.4557 2137.55 96.6724C2138.12 103.841 2140.23 110.802 2143.74 117.079C2147.26 123.357 2152.08 128.803 2157.89 133.045C2162.88 136.765 2168.37 139.76 2174.2 141.943C2180.34 144.293 2187.18 146.028 2194.71 147.146C2202.09 148.201 2209.53 148.711 2216.99 148.673H2237.84C2259.92 148.673 2276.54 152.602 2287.7 160.46C2294.37 164.988 2299.42 171.544 2302.08 179.158M2188.35 48.6284C2182.16 50.4486 2176.25 53.1153 2170.79 56.5528M2150.39 90.002C2150.33 95.1055 2151.13 100.183 2152.75 105.024C2155.41 112.639 2160.45 119.196 2167.13 123.725M2237.11 135.512C2254.16 135.512 2268.59 137.755 2280.42 142.242C2286.28 144.417 2291.81 147.412 2296.84 151.14M2313.53 213.699C2310.82 219.846 2306.84 225.353 2301.85 229.859C2299.17 232.406 2296.31 234.746 2293.27 236.859C2285.93 241.906 2277.82 245.748 2269.26 248.238C2256.7 252.046 2241.96 253.951 2225.04 253.951C2212.14 254.002 2199.28 252.728 2186.65 250.147C2181.17 249.011 2175.76 247.595 2170.43 245.906C2162.65 243.477 2155.1 240.354 2147.88 236.575C2140.85 232.895 2134.27 228.423 2128.26 223.245L2138.51 215.017C2144.39 219.763 2150.82 223.782 2157.66 226.988C2163.65 229.807 2169.84 232.16 2176.19 234.025M2266.48 235.556C2272.67 233.735 2278.58 231.067 2284.03 227.628C2287.99 225.131 2291.61 222.133 2294.79 218.708M543.223 273.872H530.053V144.103C530.127 136.025 529.079 127.977 526.939 120.187C523.643 108.27 517.05 97.5226 507.917 89.1785C496.445 78.6944 482.033 71.9732 466.621 69.9198C461.456 69.1593 456.241 68.7852 451.02 68.8006C441.227 68.6932 431.499 70.3924 422.324 73.8127C412.902 77.4497 404.352 83.0283 397.232 90.1855C390.359 96.8059 384.902 104.751 381.193 113.54C377.483 122.329 375.598 131.779 375.651 141.318C375.648 141.637 375.647 141.956 375.647 142.276C375.616 148.563 376.23 154.837 377.479 160.999C378.515 166.055 380.077 170.99 382.14 175.721C384.301 180.729 387.06 185.457 390.357 189.803C393.102 193.397 396.271 196.647 399.795 199.483C407.236 205.452 415.56 209.992 424.767 213.101C433.976 216.208 443.702 217.761 453.946 217.761C467.768 217.781 481.39 214.458 493.646 208.074V221.965M1536.43 63.3168C1540.33 63.2905 1544.18 64.0931 1547.75 65.6712C1551.09 67.1969 1554.14 69.309 1556.74 71.9074C1557.45 72.6067 1558.14 73.3361 1558.8 74.0934C1563.13 78.9114 1565.53 85.1649 1565.52 91.6453C1565.52 93.3759 1565.41 95.1047 1565.16 96.8184C1564.43 102.857 1561.57 108.44 1557.11 112.574C1554.35 115.148 1551.1 117.149 1547.57 118.462C1544 119.744 1540.22 120.381 1536.43 120.341H1453.19V107.183H1536.43C1537.12 107.183 1537.81 107.15 1538.5 107.082C1541.93 106.805 1545.18 105.429 1547.78 103.159C1549.8 101.364 1551.22 98.9787 1551.82 96.3393C1552.18 94.8016 1552.36 93.2255 1552.35 91.6453C1552.35 89.2921 1551.73 86.9799 1550.54 84.9487C1549.71 83.5419 1548.69 82.259 1547.5 81.1381C1547.24 80.8864 1546.97 80.6418 1546.7 80.4045C1543.88 77.8698 1540.22 76.4704 1536.43 76.4779H1444.23V273.872H1431.05V63.3168M137.634 273.872H151.721L256 10.6761H241.732M284.359 10.6761H270.271L165.992 273.872H180.08M992.719 273.872H1005.89V10.6761H992.719M979.546 10.6761H966.376V273.872H979.546M1701.08 273.872H1714.25V10.6761H1701.08M1919.52 273.872H1932.69V10.6761H1919.52M2534.87 50.1557C2541.22 52.022 2547.42 54.376 2553.4 57.1966C2560.25 60.4018 2566.68 64.4198 2572.56 69.1637L2582.8 60.9398C2576.8 55.7621 2570.21 51.2897 2563.19 47.6103C2555.96 43.8313 2548.42 40.7081 2540.64 38.2785C2535.3 36.5894 2529.89 35.1739 2524.42 34.0374C2511.78 31.4571 2498.92 30.1827 2486.03 30.2344C2469.1 30.2344 2454.36 32.1384 2441.8 35.9465C2433.24 38.437 2425.13 42.2786 2417.79 47.3258C2414.76 49.4382 2411.89 51.7769 2409.21 54.3219C2404.22 58.829 2400.24 64.3362 2397.53 70.4841C2394.81 76.632 2393.43 83.2826 2393.46 90.002C2393.45 92.2295 2393.56 94.4557 2393.78 96.6724C2394.35 103.841 2396.46 110.802 2399.98 117.079C2403.49 123.357 2408.32 128.803 2414.13 133.045C2419.12 136.765 2424.61 139.76 2430.44 141.943C2436.57 144.293 2443.41 146.028 2450.94 147.146C2458.32 148.201 2465.77 148.711 2473.22 148.673H2494.07C2516.15 148.673 2532.77 152.602 2543.93 160.46C2550.61 164.988 2555.65 171.544 2558.31 179.158M2444.58 48.6284C2438.39 50.4486 2432.48 53.1153 2427.03 56.5528M2406.63 90.002C2406.57 95.1055 2407.36 100.183 2408.98 105.024C2411.64 112.639 2416.69 119.196 2423.37 123.725M2493.34 135.512C2510.39 135.512 2524.83 137.755 2536.65 142.242C2542.52 144.417 2548.05 147.412 2553.07 151.14M2569.77 213.699C2567.05 219.846 2563.07 225.353 2558.08 229.859C2555.41 232.406 2552.54 234.746 2549.51 236.859C2542.16 241.906 2534.05 245.748 2525.49 248.238C2512.93 252.046 2498.19 253.951 2481.27 253.951C2468.38 254.002 2455.51 252.728 2442.88 250.147C2437.4 249.011 2431.99 247.595 2426.66 245.906C2418.88 243.477 2411.33 240.354 2404.11 236.575C2397.08 232.895 2390.5 228.423 2384.49 223.245L2394.74 215.017C2400.62 219.763 2407.05 223.782 2413.9 226.988C2419.88 229.807 2426.07 232.16 2432.42 234.025M2522.71 235.556C2528.9 233.735 2534.81 231.067 2540.27 227.628C2544.22 225.132 2547.84 222.133 2551.02 218.708M1291.44 273.872H1278.27V144.103C1278.34 136.025 1277.29 127.977 1275.15 120.187C1271.86 108.27 1265.26 97.5225 1256.13 89.1785C1244.66 78.6944 1230.25 71.9732 1214.83 69.9198C1209.67 69.1593 1204.45 68.7851 1199.23 68.8005C1189.44 68.6932 1179.71 70.3923 1170.54 73.8127C1161.12 77.4496 1152.57 83.0283 1145.45 90.1854C1138.57 96.8058 1133.12 104.751 1129.41 113.54C1125.7 122.329 1123.81 131.779 1123.86 141.318C1123.86 141.637 1123.86 141.956 1123.86 142.276C1123.83 148.563 1124.44 154.837 1125.69 160.999C1126.73 166.055 1128.29 170.99 1130.35 175.721C1132.52 180.729 1135.27 185.457 1138.57 189.803C1141.32 193.397 1144.48 196.647 1148.01 199.483C1155.45 205.452 1163.77 209.992 1172.98 213.101C1182.19 216.208 1191.92 217.761 1202.16 217.761C1215.98 217.781 1229.6 214.458 1241.86 208.074V221.965M727.999 213.921V200.763H807.396C823.617 200.763 838.618 196.864 852.401 189.066C866.182 181.268 877.188 170.422 885.421 156.53C893.654 142.64 897.77 127.288 897.77 110.474C897.794 95.3197 893.547 80.4652 885.515 67.6102C877.377 54.3016 865.939 43.3166 852.308 35.7181C838.645 27.8776 823.152 23.7792 807.396 23.8372H641.649V273.872H628.475V10.6761H807.396C821.075 10.6554 834.614 13.4232 847.186 18.8101C856.699 22.7987 865.605 28.1022 873.641 34.5652C875.914 36.407 878.105 38.3466 880.209 40.3784C889.479 49.3347 896.918 59.9666 902.529 72.2742C908.066 84.2495 910.937 97.2823 910.944 110.474C911.012 120.497 909.802 130.488 907.343 140.206C904.984 149.407 901.265 158.205 896.309 166.311C886.906 181.885 873.265 194.467 856.976 202.59L884.601 273.872H870.513L844.35 207.89C842.814 208.4 841.269 208.881 839.715 209.332C838.121 209.793 836.432 210.255 834.646 210.717C834.039 210.874 833.432 211.029 832.825 211.181L857.523 273.872H843.435L819.288 213.374C816.356 213.654 813.416 213.825 810.472 213.887C809.447 213.91 808.421 213.921 807.396 213.921L830.629 273.872H816.725L793.675 213.921H781.783L803.919 273.872H790.015L767.696 213.921H727.999ZM595.913 144.103V273.872H582.739V144.103C582.841 130.224 580.83 116.411 576.774 103.137C573.981 94.1709 570.151 85.5608 565.362 77.481C553.775 57.9241 537.98 42.8153 517.977 32.1546C500.265 22.8071 480.719 17.445 460.713 16.4444C457.485 16.2545 454.253 16.1596 451.02 16.1599C428.24 15.9285 405.814 21.7979 386.074 33.1578C366.439 44.4897 351.01 59.8131 339.787 79.128C328.608 98.2874 322.795 120.099 322.957 142.276C322.881 156.812 325.326 171.251 330.185 184.952C333.325 193.86 337.501 202.37 342.627 210.305C344.872 213.751 347.314 217.064 349.941 220.228C358.269 230.257 368.005 239.029 378.847 246.273C389.712 253.56 401.616 259.167 414.156 262.904C426.646 266.662 439.62 268.572 452.665 268.571C466.742 268.635 480.685 265.837 493.646 260.348V273.872C480.108 278.623 466.204 280.999 451.934 280.999C437.347 281.024 422.835 278.931 408.851 274.785C394.885 270.643 381.958 264.52 370.068 256.417C358.176 248.314 347.718 238.749 338.693 227.722C329.666 216.694 322.591 203.809 317.468 189.066C312.315 174.072 309.719 158.32 309.788 142.467C309.787 142.403 309.787 142.339 309.788 142.276C309.717 123.74 313.355 105.377 320.488 88.2652C326.848 72.7281 335.991 58.4804 347.468 46.2216C348.223 45.4223 348.987 44.6324 349.761 43.8521C360.499 33.1055 372.989 24.2627 386.696 17.7021C389.35 16.4125 392.04 15.1979 394.763 14.06C412.387 6.68837 431.14 3.00257 451.02 3.00257C468.038 2.90646 484.961 5.52859 501.151 10.7697C503.486 11.5351 505.802 12.3576 508.097 13.2365C520.97 18.0871 533.078 24.7635 544.047 33.0605C547.575 35.7531 550.964 38.6229 554.201 41.6586C565.667 52.5005 575.006 65.3857 581.739 79.6521C582.798 81.8579 583.802 84.0896 584.751 86.3449C592.192 104.013 595.913 123.265 595.913 144.103ZM569.57 144.103V273.872H556.396V144.103C556.468 133.649 555.077 123.237 552.263 113.169C550.018 105.276 546.764 97.7044 542.582 90.6421C533.375 75.1053 520.782 63.1945 504.804 54.9095C491.554 48.1154 477.075 44.0437 462.222 42.935C458.496 42.6296 454.759 42.4785 451.02 42.4821C432.116 42.4821 414.859 46.959 399.248 55.9127C383.995 64.5143 371.329 77.0434 362.567 92.1956C353.725 107.425 349.304 124.119 349.304 142.276C349.304 157.873 352.169 172.098 357.899 184.952C361.196 192.46 365.462 199.505 370.589 205.907C373.736 209.805 377.235 213.406 381.042 216.664C390.739 224.949 401.777 231.376 414.156 235.946C426.602 240.527 439.768 242.848 453.032 242.8C467.017 242.757 480.843 239.832 493.646 234.209V247.553C485.122 250.811 476.259 253.106 467.224 254.396C462.4 255.068 457.535 255.407 452.665 255.41C432.383 255.612 412.376 250.71 394.489 241.156C376.941 231.781 362.271 217.82 352.047 200.763C341.722 183.726 336.226 164.206 336.146 144.29C336.135 143.618 336.13 142.947 336.131 142.276C336.073 127.203 339.092 112.277 345.003 98.4093C350.277 85.8015 357.793 74.2521 367.187 64.3199C367.804 63.6734 368.428 63.0345 369.06 62.4034C378.121 53.424 388.667 46.0777 400.233 40.6891C402.02 39.8441 403.827 39.0404 405.651 38.2785C420.021 32.2875 435.449 29.2414 451.02 29.321C473.34 29.321 493.495 34.0736 511.484 43.5789C529.206 52.828 543.95 66.8927 554.017 84.1514C562.698 98.9885 567.861 115.616 569.109 132.757C569.418 136.531 569.572 140.316 569.57 144.103ZM2237.84 122.351H2216.99C2210.92 122.391 2204.85 122.012 2198.83 121.217C2185.12 119.3 2175.41 114.962 2169.69 108.201C2165.51 103.079 2163.33 96.6104 2163.57 90.002C2163.57 80.654 2168.64 72.9031 2178.79 66.7493C2179.23 66.4823 2179.68 66.2215 2180.12 65.967C2184.23 63.697 2188.59 61.9299 2193.12 60.704C2201.53 58.3258 2211.74 56.9695 2223.75 56.6352C2225.77 56.5797 2227.78 56.5522 2229.79 56.5528C2245.28 56.5528 2259.67 58.3508 2272.97 61.9468C2285.56 65.3506 2296.08 70.1494 2304.51 76.3431C2304.98 76.6866 2305.44 77.036 2305.9 77.3912L2295.47 85.4316C2280.23 74.9531 2258.33 69.7139 2229.79 69.7139C2225.52 69.7059 2221.25 69.8245 2216.99 70.0695C2208.02 70.6035 2200.61 71.7415 2194.76 73.4833C2192.98 74.0053 2191.24 74.6392 2189.55 75.3811C2185.3 77.2602 2182.11 79.41 2179.97 81.8306C2177.91 84.0517 2176.75 86.9691 2176.74 90.002C2176.74 96.5452 2179.39 101.304 2184.69 104.279C2185.03 104.464 2185.36 104.64 2185.7 104.806C2187.59 105.697 2189.57 106.39 2191.6 106.876C2195.76 107.927 2201 108.619 2207.32 108.954C2210.54 109.119 2213.76 109.199 2216.99 109.193H2237.84C2247.96 109.134 2258.06 109.928 2268.04 111.567C2278.95 113.426 2288.76 116.382 2297.47 120.434C2304.25 123.552 2310.59 127.547 2316.33 132.315C2324.48 139.013 2331.12 147.348 2335.84 156.778C2340.56 166.208 2343.24 176.524 2343.71 187.056C2343.87 189.428 2343.95 191.805 2343.95 194.183C2343.95 206.001 2341.33 217.09 2336.08 227.449C2331.4 236.606 2325.02 244.792 2317.28 251.574C2316.04 252.672 2314.78 253.738 2313.49 254.77C2308.3 258.879 2302.68 262.418 2296.73 265.326C2291.25 268.046 2285.24 270.451 2278.72 272.539C2277.78 272.84 2276.84 273.132 2275.9 273.415C2266.44 276.209 2256.74 278.125 2246.94 279.139C2239.66 279.906 2232.35 280.283 2225.04 280.269C2208.4 280.345 2191.81 278.408 2175.64 274.501C2170.02 273.121 2164.46 271.479 2158.99 269.578C2148.77 266.078 2138.93 261.547 2129.63 256.054C2121.77 251.4 2114.44 245.915 2107.77 239.693L2118.38 231.832C2126.49 239.066 2135.57 245.142 2145.35 249.889C2151.72 253.008 2158.29 255.678 2165.03 257.881C2181.08 263.107 2197.77 266.128 2214.64 266.861C2218.1 267.027 2221.57 267.109 2225.04 267.108C2248.29 267.108 2268.01 263.645 2284.21 256.72C2290.73 253.966 2296.9 250.46 2302.6 246.273C2308.92 241.709 2314.5 236.223 2319.18 229.998C2326.86 219.647 2330.94 207.067 2330.78 194.183C2330.88 185.814 2329.53 177.491 2326.8 169.579C2322.84 158.579 2315.85 148.922 2306.63 141.726C2293.83 131.459 2276.72 125.273 2255.29 123.167C2249.49 122.61 2243.67 122.338 2237.84 122.351ZM2237.84 174.991H2216.99C2206.87 175.051 2196.77 174.257 2186.79 172.618C2175.88 170.757 2166.06 167.799 2157.35 163.747C2150.58 160.63 2144.24 156.637 2138.51 151.87C2130.36 145.172 2123.71 136.837 2118.99 127.407C2114.27 117.977 2111.59 107.661 2111.12 97.1291C2110.96 94.7569 2110.88 92.3798 2110.88 90.002C2110.88 78.1835 2113.5 67.0949 2118.74 56.7362C2123.43 47.5792 2129.81 39.3929 2137.55 32.6113C2138.78 31.512 2140.05 30.4448 2141.34 29.4109C2146.53 25.3032 2152.15 21.7655 2158.1 18.8588C2163.58 16.1387 2169.59 13.7343 2176.11 11.6456C2177.05 11.3448 2177.99 11.0528 2178.94 10.7697C2188.39 7.97595 2198.09 6.06005 2207.9 5.04636C2215.17 4.27915 2222.48 3.9018 2229.79 3.91591C2246.43 3.83878 2263.02 5.77437 2279.19 9.68044C2284.81 11.0611 2290.37 12.7049 2295.84 14.6065C2306.06 18.1068 2315.9 22.6382 2325.2 28.1307C2333.06 32.7846 2340.39 38.27 2347.06 44.4922L2336.45 52.3492C2328.34 45.1166 2319.26 39.0411 2309.48 34.2957C2303.11 31.1773 2296.54 28.5069 2289.8 26.304C2273.75 21.0783 2257.06 18.0573 2240.19 17.3241C2236.73 17.1568 2233.26 17.0732 2229.79 17.0733C2206.54 17.0733 2186.82 20.5357 2170.62 27.4606C2164.1 30.2163 2157.93 33.7238 2152.23 37.9117C2145.92 42.4745 2140.33 47.9598 2135.65 54.1834C2127.97 64.535 2123.89 77.1166 2124.05 90.002C2123.95 98.371 2125.3 106.694 2128.03 114.606C2131.99 125.606 2138.98 135.262 2148.2 142.459C2161 152.726 2178.11 158.912 2199.54 161.018C2205.34 161.573 2211.16 161.844 2216.99 161.83H2237.11C2243.26 161.791 2249.41 162.172 2255.51 162.968C2269.14 164.847 2278.87 169.055 2284.71 175.59C2289.17 180.736 2291.51 187.38 2291.26 194.183C2291.26 203.531 2286.19 211.282 2276.04 217.436C2275.6 217.703 2275.15 217.963 2274.71 218.218C2270.6 220.488 2266.24 222.255 2261.71 223.481C2253.3 225.859 2243.08 227.215 2231.07 227.55C2229.06 227.604 2227.05 227.63 2225.04 227.628C2209.55 227.628 2195.16 225.832 2181.86 222.238C2169.27 218.834 2158.75 214.036 2150.32 207.842C2149.85 207.498 2149.39 207.149 2148.93 206.794L2159.36 198.753C2174.61 209.232 2196.5 214.471 2225.04 214.471C2229.31 214.479 2233.58 214.36 2237.84 214.115C2246.81 213.581 2254.22 212.443 2260.07 210.702C2261.84 210.18 2263.59 209.546 2265.28 208.804C2269.53 206.925 2272.72 204.774 2274.86 202.35C2276.92 200.13 2278.08 197.214 2278.09 194.183C2278.09 187.64 2275.44 182.881 2270.13 179.906C2269.8 179.721 2269.47 179.545 2269.13 179.378C2267.24 178.488 2265.26 177.794 2263.23 177.308C2259.07 176.258 2253.83 175.564 2247.51 175.227C2244.29 175.063 2241.07 174.985 2237.84 174.991ZM109.278 273.872L5 10.6761H19.2712L116.412 256.144L213.557 10.6761H227.645L123.55 273.872H109.278ZM1727.43 273.872V10.6761H1740.6V208.074H1837.74V221.231H1740.6V234.392H1837.74V247.553H1740.6V260.711H1837.74V273.872H1727.43ZM727.999 161.284V148.123H807.396C812.428 148.174 817.427 147.312 822.15 145.577C826.561 143.907 830.617 141.422 834.106 138.252C839.298 133.546 842.812 127.278 844.117 120.397C844.781 117.131 845.105 113.806 845.084 110.474C845.071 103.853 842.802 97.4346 838.651 92.2742C837.143 90.3394 835.47 88.5396 833.649 86.8952C826.573 80.1664 817.165 76.4335 807.396 76.4779H694.335V273.872H681.165V63.3168H807.396C820.934 63.3168 832.795 68.0694 842.978 77.5746C846.849 81.1155 850.16 85.2223 852.798 89.755C856.415 96.0593 858.297 103.207 858.254 110.474C858.306 116.012 857.576 121.53 856.084 126.865C853.849 134.77 849.472 141.905 843.435 147.483C833.557 156.683 821.543 161.284 807.396 161.284H727.999ZM503.706 273.872V144.103C503.75 139.108 503.177 134.127 502.001 129.272C500.055 121.011 495.604 113.552 489.255 107.913C479.621 99.3838 466.876 95.119 451.02 95.119C444.621 95.0211 438.267 96.1993 432.33 98.5844C426.393 100.97 420.991 104.514 416.441 109.01C411.776 113.389 408.05 118.671 405.49 124.533C403.128 130.148 401.937 136.185 401.99 142.276C401.977 145.754 402.222 149.228 402.721 152.671C403.178 155.814 403.912 158.91 404.917 161.924C405.803 164.589 406.917 167.172 408.247 169.646C409.537 172.048 411.089 174.3 412.875 176.361C416.263 180.226 420.323 183.446 424.86 185.865C429.428 188.34 434.324 190.156 439.401 191.259C443.295 192.091 447.249 192.604 451.226 192.794C452.681 192.867 454.138 192.903 455.595 192.903C469.497 192.903 482.181 189.491 493.646 182.669V195.826C481.817 202.042 469.071 205.15 455.411 205.15C449.062 205.175 442.729 204.502 436.528 203.144C434.54 202.701 432.57 202.181 430.623 201.583C422.995 199.268 415.84 195.618 409.491 190.803C404.918 187.292 401.04 182.959 398.056 178.027C396.684 175.789 395.462 173.462 394.4 171.061C392.069 165.753 390.478 160.151 389.671 154.411C389.091 150.392 388.805 146.336 388.817 142.276C388.686 132.579 390.949 123 395.407 114.385C398.338 108.882 402.102 103.863 406.565 99.506C418.395 87.8073 433.213 81.9579 451.02 81.9579C458.061 81.9022 465.082 82.7169 471.923 84.3835C481.881 86.7828 491.079 91.6357 498.678 98.4991C507.782 106.816 513.786 117.977 515.707 130.152C516.508 134.758 516.901 139.427 516.88 144.103V273.872H503.706ZM720.682 102.796V273.872H707.508V89.6352H807.396C810.519 89.6063 813.625 90.0919 816.59 91.0726C819.596 92.0927 822.376 93.6841 824.777 95.7591C826.583 97.276 828.131 99.0748 829.363 101.086C831.062 103.921 831.943 107.17 831.911 110.474C831.958 113.745 831.549 117.006 830.697 120.165C828.618 127.409 823.878 131.995 816.474 133.921C813.504 134.652 810.454 135.003 807.396 134.965H727.999V121.804H807.396C813.396 121.804 817.015 119.426 818.254 114.67C818.593 113.297 818.757 111.887 818.741 110.474C818.735 109.135 818.244 107.844 817.358 106.839C816.839 106.218 816.171 105.631 815.354 105.08C813.098 103.557 810.446 102.796 807.396 102.796H720.682ZM194.348 273.872L298.442 10.6761H312.714L208.435 273.872H194.348ZM1019.06 273.872V10.6761H1032.24V273.872H1019.06ZM940.033 273.872V10.6761H953.203V273.872H940.033ZM1648.39 273.872V10.6761H1661.57V273.872H1648.39ZM1674.74 273.872V10.6761H1687.91V273.872H1674.74ZM1906.35 10.6761V273.872H1893.17V10.6761H1906.35ZM1880 10.6761V273.872H1866.83V10.6761H1880ZM1536.43 206.61H1453.19V219.771H1536.43C1540.23 219.845 1544.01 219.164 1547.54 217.767C1551.07 216.371 1554.29 214.287 1557.01 211.637C1561.38 207.443 1564.21 201.907 1565.05 195.916C1565.37 193.892 1565.53 191.845 1565.52 189.796C1565.55 182.202 1562.6 174.899 1557.3 169.455C1557.11 169.257 1556.93 169.061 1556.74 168.868C1554.4 166.411 1551.68 164.349 1548.69 162.762C1544.9 160.801 1540.69 159.791 1536.43 159.82H1453.01V172.981H1536.43C1539.84 172.982 1543.13 174.204 1545.72 176.425C1546.34 176.946 1546.94 177.505 1547.5 178.098C1548.99 179.634 1550.19 181.421 1551.05 183.376C1551.92 185.404 1552.36 187.59 1552.35 189.796C1552.36 191.473 1552.19 193.146 1551.83 194.785C1551.32 197.071 1550.41 199.049 1549.13 200.718C1548.72 201.253 1548.26 201.756 1547.78 202.223C1544.9 204.994 1541.08 206.56 1537.09 206.599C1536.87 206.606 1536.65 206.61 1536.43 206.61ZM118.061 224.888L33.3551 10.6761H47.4427L125.562 208.074L118.061 224.888ZM132.695 190.163L61.714 10.6761H75.9815L139.649 172.068L132.695 190.163ZM146.599 153.973L90.0691 10.6761H104.157L153.55 135.512L146.599 153.973ZM2494.07 122.351H2473.22C2467.15 122.391 2461.08 122.012 2455.06 121.217C2441.35 119.3 2431.64 114.962 2425.93 108.201C2421.74 103.079 2419.56 96.6104 2419.8 90.002C2419.8 80.654 2424.87 72.9031 2435.02 66.7493C2435.46 66.4823 2435.91 66.2215 2436.36 65.967C2440.46 63.697 2444.82 61.9299 2449.35 60.704C2457.77 58.3258 2467.98 56.9695 2479.99 56.6352C2482 56.5797 2484.01 56.5522 2486.03 56.5528C2501.52 56.5528 2515.91 58.3508 2529.2 61.9468C2541.79 65.3506 2552.31 70.1494 2560.74 76.3431C2561.21 76.6866 2561.67 77.036 2562.13 77.3912L2551.7 85.4316C2536.46 74.9531 2514.57 69.7139 2486.03 69.7139C2481.76 69.7059 2477.48 69.8245 2473.22 70.0695C2464.25 70.6035 2456.84 71.7415 2450.99 73.4833C2449.22 74.0053 2447.48 74.6392 2445.78 75.3811C2441.53 77.2602 2438.34 79.41 2436.21 81.8306C2434.14 84.0517 2432.99 86.9691 2432.97 90.002C2432.97 96.5452 2435.62 101.304 2440.93 104.279C2441.26 104.464 2441.59 104.64 2441.94 104.806C2443.83 105.697 2445.8 106.39 2447.84 106.876C2451.99 107.927 2457.23 108.619 2463.55 108.954C2466.77 109.119 2470 109.199 2473.22 109.193H2494.07C2504.19 109.134 2514.29 109.928 2524.27 111.567C2535.19 113.426 2545 116.382 2553.71 120.434C2560.49 123.552 2566.82 127.547 2572.56 132.315C2580.71 139.013 2587.36 147.348 2592.07 156.778C2596.79 166.208 2599.47 176.524 2599.94 187.056C2600.11 189.428 2600.19 191.805 2600.19 194.183C2600.19 206.001 2597.56 217.09 2592.32 227.449C2587.63 236.606 2581.25 244.792 2573.51 251.574C2572.28 252.672 2571.01 253.738 2569.72 254.77C2564.53 258.879 2558.91 262.418 2552.96 265.326C2547.48 268.046 2541.48 270.451 2534.96 272.539C2534.02 272.84 2533.07 273.132 2532.13 273.415C2522.67 276.209 2512.98 278.125 2503.17 279.139C2495.89 279.906 2488.58 280.283 2481.27 280.269C2464.63 280.345 2448.05 278.408 2431.88 274.501C2426.25 273.121 2420.7 271.479 2415.23 269.578C2405 266.078 2395.16 261.547 2385.86 256.054C2378.01 251.4 2370.68 245.915 2364 239.693L2374.61 231.832C2382.73 239.066 2391.8 245.142 2401.58 249.889C2407.95 253.008 2414.53 255.678 2421.26 257.881C2437.32 263.107 2454.01 266.128 2470.87 266.861C2474.33 267.027 2477.8 267.109 2481.27 267.108C2504.52 267.108 2524.24 263.645 2540.44 256.72C2546.96 253.966 2553.13 250.46 2558.84 246.273C2565.15 241.709 2570.74 236.223 2575.42 229.998C2583.1 219.647 2587.17 207.067 2587.01 194.183C2587.11 185.814 2585.76 177.491 2583.03 169.579C2579.08 158.579 2572.08 148.922 2562.86 141.726C2550.07 131.459 2532.95 125.273 2511.52 123.167C2505.72 122.61 2499.9 122.338 2494.07 122.351ZM2494.07 174.991H2473.22C2463.11 175.051 2453 174.257 2443.02 172.618C2432.11 170.757 2422.3 167.799 2413.59 163.747C2406.81 160.63 2400.47 156.637 2394.74 151.87C2386.59 145.172 2379.94 136.837 2375.22 127.407C2370.5 117.977 2367.82 107.661 2367.35 97.1291C2367.19 94.7569 2367.11 92.3798 2367.11 90.002C2367.11 78.1835 2369.74 67.0949 2374.98 56.7362C2379.66 47.5792 2386.04 39.3929 2393.78 32.6113C2395.02 31.512 2396.28 30.4448 2397.57 29.4109C2402.76 25.3032 2408.38 21.7655 2414.33 18.8588C2419.82 16.1387 2425.82 13.7343 2432.34 11.6456C2433.28 11.3448 2434.22 11.0528 2435.17 10.7697C2444.63 7.97596 2454.32 6.06005 2464.13 5.04636C2471.4 4.27916 2478.71 3.9018 2486.03 3.91591C2502.66 3.83878 2519.25 5.77437 2535.42 9.68044C2541.04 11.0611 2546.6 12.7049 2552.07 14.6065C2562.29 18.1068 2572.13 22.6382 2581.44 28.1307C2589.29 32.7846 2596.62 38.27 2603.3 44.4922L2592.68 52.3492C2584.57 45.1166 2575.49 39.0411 2565.71 34.2957C2559.35 31.1773 2552.77 28.5069 2546.03 26.304C2529.98 21.0783 2513.29 18.0573 2496.42 17.3241C2492.96 17.1568 2489.49 17.0732 2486.03 17.0733C2462.77 17.0733 2443.05 20.5357 2426.85 27.4606C2420.34 30.2163 2414.16 33.7238 2408.46 37.9117C2402.15 42.4745 2396.56 47.9598 2391.88 54.1834C2384.2 64.535 2380.13 77.1166 2380.28 90.002C2380.19 98.371 2381.53 106.694 2384.27 114.606C2388.22 125.606 2395.21 135.262 2404.43 142.459C2417.23 152.726 2434.34 158.912 2455.77 161.018C2461.57 161.573 2467.39 161.844 2473.22 161.83H2493.34C2499.5 161.791 2505.65 162.172 2511.75 162.968C2525.38 164.847 2535.11 169.055 2540.94 175.59C2545.4 180.736 2547.75 187.38 2547.5 194.183C2547.5 203.531 2542.42 211.282 2532.27 217.436C2531.83 217.703 2531.39 217.963 2530.94 218.218C2526.84 220.488 2522.47 222.255 2517.95 223.481C2509.53 225.859 2499.32 227.215 2487.31 227.55C2485.3 227.604 2483.28 227.63 2481.27 227.628C2465.78 227.628 2451.39 225.832 2438.09 222.238C2425.5 218.834 2414.99 214.036 2406.56 207.842C2406.09 207.498 2405.62 207.149 2405.17 206.794L2415.59 198.753C2430.84 209.232 2452.73 214.471 2481.27 214.471C2485.54 214.479 2489.81 214.36 2494.07 214.115C2503.04 213.581 2510.45 212.443 2516.3 210.702C2518.08 210.18 2519.82 209.546 2521.52 208.804C2525.76 206.925 2528.96 204.774 2531.09 202.35C2533.16 200.13 2534.31 197.214 2534.32 194.183C2534.32 187.64 2531.67 182.881 2526.37 179.906C2526.04 179.721 2525.7 179.545 2525.36 179.378C2523.47 178.488 2521.49 177.794 2519.46 177.308C2515.3 176.258 2510.07 175.564 2503.74 175.227C2500.52 175.063 2497.3 174.985 2494.07 174.991ZM1344.13 144.103V273.872H1330.95V144.103C1331.05 130.224 1329.04 116.411 1324.99 103.137C1322.2 94.1708 1318.37 85.5607 1313.58 77.481C1301.99 57.924 1286.19 42.8152 1266.19 32.1546C1248.48 22.8071 1228.93 17.445 1208.93 16.4444C1205.7 16.2544 1202.47 16.1596 1199.23 16.1599C1176.45 15.9285 1154.03 21.7979 1134.29 33.1578C1114.65 44.4897 1099.22 59.8131 1088 79.128C1076.82 98.2874 1071.01 120.099 1071.17 142.276C1071.09 156.812 1073.54 171.251 1078.4 184.952C1081.54 193.86 1085.71 202.37 1090.84 210.305C1093.09 213.751 1095.53 217.064 1098.15 220.228C1106.48 230.257 1116.22 239.029 1127.06 246.273C1137.93 253.56 1149.83 259.167 1162.37 262.904C1174.86 266.662 1187.83 268.572 1200.88 268.571C1214.96 268.635 1228.9 265.837 1241.86 260.348V273.872C1228.32 278.623 1214.42 280.999 1200.15 280.999C1185.56 281.024 1171.05 278.931 1157.06 274.785C1143.1 270.643 1130.17 264.52 1118.28 256.417C1106.39 248.314 1095.93 238.749 1086.91 227.722C1077.88 216.694 1070.81 203.809 1065.68 189.066C1060.53 174.072 1057.93 158.32 1058 142.467V142.276C1057.93 123.74 1061.57 105.377 1068.7 88.2652C1075.06 72.7281 1084.2 58.4804 1095.68 46.2215C1096.44 45.4223 1097.2 44.6324 1097.97 43.8521C1108.71 33.1055 1121.2 24.2627 1134.91 17.7021C1137.56 16.4125 1140.25 15.1979 1142.98 14.06C1160.6 6.68835 1179.35 3.00255 1199.23 3.00255C1216.25 2.90644 1233.18 5.52856 1249.36 10.7697C1251.7 11.5351 1254.02 12.3576 1256.31 13.2365C1269.18 18.0871 1281.29 24.7635 1292.26 33.0604C1295.79 35.7531 1299.18 38.6228 1302.41 41.6586C1313.88 52.5005 1323.22 65.3857 1329.95 79.6521C1331.01 81.8579 1332.02 84.0895 1332.96 86.3449C1340.41 104.013 1344.13 123.265 1344.13 144.103ZM1317.78 144.103V273.872H1304.61V144.103C1304.68 133.649 1303.29 123.237 1300.48 113.169C1298.23 105.276 1294.98 97.7044 1290.8 90.6421C1281.59 75.1053 1269 63.1945 1253.02 54.9095C1239.77 48.1154 1225.29 44.0437 1210.44 42.935C1206.71 42.6296 1202.97 42.4785 1199.23 42.4821C1180.33 42.4821 1163.07 46.959 1147.46 55.9127C1132.21 64.5143 1119.54 77.0433 1110.78 92.1955C1101.94 107.425 1097.52 124.119 1097.52 142.276C1097.52 157.872 1100.38 172.098 1106.11 184.952C1109.41 192.46 1113.68 199.505 1118.8 205.906C1121.95 209.805 1125.45 213.406 1129.26 216.664C1138.95 224.949 1149.99 231.376 1162.37 235.946C1174.82 240.527 1187.98 242.848 1201.25 242.799C1215.23 242.757 1229.06 239.832 1241.86 234.209V247.553C1233.34 250.811 1224.47 253.106 1215.44 254.396C1210.61 255.068 1205.75 255.407 1200.88 255.41C1180.6 255.612 1160.59 250.71 1142.7 241.156C1125.15 231.781 1110.48 217.82 1100.26 200.763C1089.94 183.726 1084.44 164.206 1084.36 144.29C1084.35 143.618 1084.34 142.947 1084.34 142.276C1084.29 127.203 1087.31 112.277 1093.22 98.4092C1098.49 85.8015 1106.01 74.2521 1115.4 64.3199C1116.02 63.6734 1116.64 63.0345 1117.27 62.4034C1126.33 53.424 1136.88 46.0777 1148.45 40.6891C1150.23 39.8441 1152.04 39.0404 1153.86 38.2785C1168.23 32.2874 1183.66 29.2414 1199.23 29.321C1221.55 29.321 1241.71 34.0736 1259.7 43.5788C1277.42 52.8279 1292.16 66.8927 1302.23 84.1514C1310.91 98.9885 1316.08 115.616 1317.32 132.757C1317.63 136.531 1317.79 140.316 1317.78 144.103ZM1251.92 273.872V144.103C1251.96 139.108 1251.39 134.127 1250.22 129.272C1248.27 121.011 1243.82 113.552 1237.47 107.913C1227.83 99.3837 1215.09 95.119 1199.23 95.119C1192.84 95.0211 1186.48 96.1992 1180.54 98.5844C1174.61 100.97 1169.2 104.514 1164.66 109.01C1159.99 113.389 1156.26 118.671 1153.7 124.533C1151.34 130.148 1150.15 136.185 1150.2 142.276C1150.19 145.754 1150.44 149.228 1150.93 152.671C1151.39 155.814 1152.13 158.91 1153.13 161.924C1154.02 164.589 1155.13 167.172 1156.46 169.646C1157.75 172.048 1159.3 174.3 1161.09 176.361C1164.48 180.226 1168.54 183.446 1173.07 185.865C1177.64 188.34 1182.54 190.156 1187.61 191.259C1191.51 192.091 1195.46 192.604 1199.44 192.794C1200.89 192.867 1202.35 192.903 1203.81 192.903C1217.71 192.903 1230.4 189.491 1241.86 182.669V195.826C1230.03 202.042 1217.29 205.15 1203.62 205.15C1197.28 205.175 1190.94 204.502 1184.74 203.144C1182.75 202.701 1180.78 202.181 1178.84 201.583C1171.21 199.268 1164.05 195.618 1157.71 190.803C1153.13 187.292 1149.25 182.959 1146.27 178.027C1144.9 175.789 1143.68 173.462 1142.61 171.061C1140.28 165.753 1138.69 160.151 1137.89 154.411C1137.3 150.392 1137.02 146.336 1137.03 142.276C1136.9 132.579 1139.16 123 1143.62 114.385C1146.55 108.882 1150.32 103.863 1154.78 99.506C1166.61 87.8073 1181.43 81.9579 1199.23 81.9579C1206.27 81.9022 1213.3 82.7169 1220.14 84.3835C1230.09 86.7828 1239.29 91.6356 1246.89 98.4991C1256 106.816 1262 117.977 1263.92 130.152C1264.72 134.758 1265.11 139.427 1265.09 144.103V273.872H1251.92Z" stroke="#F33052" stroke-width="6" stroke-linecap="round"/>
</svg>
