<svg width="693.408" height="74.268" viewBox="0 0 693.408 74.268" xmlns="http://www.w3.org/2000/svg">
    <g id="svgGroup" stroke-linecap="round" fill-rule="evenodd" font-size="9pt" stroke="#000" stroke-width="0.25mm"
       fill="none" style="stroke:#F33052;stroke-width:0.4mm;fill:none">
        <path d="M 521.533 45.948 L 521.533 54.786 L 555.176 54.786 L 555.176 58.301 L 521.533 58.301 L 521.533 61.817 L 555.176 61.817 L 555.176 65.333 L 521.533 65.333 L 521.533 68.848 L 555.176 68.848 L 555.176 72.364 L 518.018 72.364 L 518.018 2.051 L 555.176 2.051 L 555.176 5.567 L 521.533 5.567 L 521.533 9.083 L 555.176 9.083 L 555.176 12.598 L 521.533 12.598 L 521.533 16.114 L 555.176 16.114 L 555.176 19.63 L 521.533 19.63 L 521.533 28.37 L 553.223 28.37 L 553.223 31.885 L 521.533 31.885 L 521.533 35.401 L 553.223 35.401 L 553.223 38.917 L 521.533 38.917 L 521.533 42.432 L 553.223 42.432 L 553.223 45.948 L 521.533 45.948 Z M 192.969 56.348 L 192.969 52.833 L 214.16 52.833 Q 220.654 52.833 226.172 49.708 Q 231.689 46.583 234.985 41.016 Q 238.281 35.45 238.281 28.712 A 21.561 21.561 0 0 0 235.01 17.261 A 24.206 24.206 0 0 0 226.147 8.741 A 23.89 23.89 0 0 0 214.16 5.567 L 169.922 5.567 L 169.922 72.364 L 166.406 72.364 L 166.406 2.051 L 214.16 2.051 A 26.839 26.839 0 0 1 224.78 4.224 A 29.412 29.412 0 0 1 231.841 8.433 A 26.966 26.966 0 0 1 233.594 9.986 Q 237.305 13.575 239.551 18.507 A 24.364 24.364 0 0 1 241.797 28.712 A 31.531 31.531 0 0 1 240.836 36.655 A 25.531 25.531 0 0 1 237.891 43.629 A 25.625 25.625 0 0 1 227.393 53.321 L 234.766 72.364 L 231.006 72.364 L 224.023 54.737 A 33.624 33.624 0 0 1 222.786 55.122 Q 222.148 55.307 221.433 55.492 A 58.595 58.595 0 0 1 220.947 55.616 L 227.539 72.364 L 223.779 72.364 L 217.334 56.202 A 31.906 31.906 0 0 1 214.981 56.339 A 36.406 36.406 0 0 1 214.16 56.348 L 220.361 72.364 L 216.65 72.364 L 210.498 56.348 L 207.324 56.348 L 213.232 72.364 L 209.521 72.364 L 203.564 56.348 L 192.969 56.348 Z M 421.631 36.817 L 421.533 36.768 A 17.538 17.538 0 0 0 427.048 24.043 A 21.348 21.348 0 0 0 427.051 23.682 A 17.281 17.281 0 0 0 421.78 11.137 A 22.409 22.409 0 0 0 421.606 10.963 A 18.557 18.557 0 0 0 415.264 6.753 A 17.819 17.819 0 0 0 408.74 5.567 L 370.068 5.567 L 370.068 72.364 L 366.553 72.364 L 366.553 2.051 L 408.74 2.051 Q 414.502 2.051 419.556 5.006 Q 424.609 7.96 427.588 12.965 A 20.606 20.606 0 0 1 430.566 23.682 A 24.331 24.331 0 0 1 429.581 30.735 A 20.385 20.385 0 0 1 426.367 37.11 A 21.357 21.357 0 0 1 430.566 49.903 A 25.072 25.072 0 0 1 429.737 56.471 A 20.858 20.858 0 0 1 427.539 61.695 A 20.789 20.789 0 0 1 422.773 67.296 A 19.275 19.275 0 0 1 419.604 69.385 A 22.649 22.649 0 0 1 409.848 71.951 A 26.77 26.77 0 0 1 408.74 71.973 L 386.523 71.973 L 386.523 68.458 L 408.74 68.458 Q 416.26 68.458 421.655 63.111 A 17.822 17.822 0 0 0 427.049 50.148 A 22.739 22.739 0 0 0 427.051 49.903 Q 427.051 46.29 425.488 42.774 Q 423.926 39.258 421.582 36.866 Q 421.582 36.817 421.631 36.817 Z M 157.715 37.696 L 157.715 72.364 L 154.199 72.364 L 154.199 37.696 A 36.571 36.571 0 0 0 152.607 26.752 A 32.27 32.27 0 0 0 149.561 19.898 Q 144.922 12.061 136.914 7.789 A 36.646 36.646 0 0 0 121.63 3.592 A 43.918 43.918 0 0 0 119.043 3.516 A 34.035 34.035 0 0 0 101.709 8.057 Q 93.848 12.598 89.355 20.338 A 33.017 33.017 0 0 0 84.863 37.208 A 33.615 33.615 0 0 0 86.792 48.609 A 32.229 32.229 0 0 0 90.113 55.382 A 28.472 28.472 0 0 0 92.065 58.033 A 36.103 36.103 0 0 0 99.78 64.991 A 34.716 34.716 0 0 0 109.204 69.434 A 35.639 35.639 0 0 0 119.482 70.948 A 27.7 27.7 0 0 0 130.42 68.751 L 130.42 72.364 Q 125 74.268 119.287 74.268 A 40.183 40.183 0 0 1 107.788 72.608 Q 102.197 70.948 97.437 67.701 Q 92.676 64.454 89.063 60.035 Q 85.449 55.616 83.398 49.708 A 37.834 37.834 0 0 1 81.348 37.259 A 42.476 42.476 0 0 1 81.348 37.208 A 37.166 37.166 0 0 1 84.204 22.779 A 36.872 36.872 0 0 1 91.405 11.547 A 35.403 35.403 0 0 1 92.017 10.914 A 35.76 35.76 0 0 1 101.875 3.928 A 41.854 41.854 0 0 1 104.028 2.955 Q 111.084 0.001 119.043 0.001 A 42.623 42.623 0 0 1 132.423 2.076 A 40.141 40.141 0 0 1 134.277 2.735 A 38.269 38.269 0 0 1 143.872 8.031 A 35.033 35.033 0 0 1 146.582 10.328 A 33.853 33.853 0 0 1 153.932 20.478 A 39.697 39.697 0 0 1 154.736 22.266 Q 157.715 29.346 157.715 37.696 Z M 357.861 37.696 L 357.861 72.364 L 354.346 72.364 L 354.346 37.696 A 36.571 36.571 0 0 0 352.753 26.752 A 32.27 32.27 0 0 0 349.707 19.898 Q 345.068 12.061 337.061 7.789 A 36.646 36.646 0 0 0 321.777 3.592 A 43.918 43.918 0 0 0 319.189 3.516 A 34.035 34.035 0 0 0 301.855 8.057 Q 293.994 12.598 289.502 20.338 A 33.017 33.017 0 0 0 285.01 37.208 A 33.615 33.615 0 0 0 286.938 48.609 A 32.229 32.229 0 0 0 290.26 55.382 A 28.472 28.472 0 0 0 292.212 58.033 A 36.103 36.103 0 0 0 299.927 64.991 A 34.716 34.716 0 0 0 309.351 69.434 A 35.639 35.639 0 0 0 319.629 70.948 A 27.7 27.7 0 0 0 330.566 68.751 L 330.566 72.364 Q 325.146 74.268 319.434 74.268 A 40.183 40.183 0 0 1 307.935 72.608 Q 302.344 70.948 297.583 67.701 Q 292.822 64.454 289.209 60.035 Q 285.596 55.616 283.545 49.708 A 37.834 37.834 0 0 1 281.494 37.259 A 42.476 42.476 0 0 1 281.494 37.208 A 37.166 37.166 0 0 1 284.351 22.779 A 36.872 36.872 0 0 1 291.552 11.547 A 35.403 35.403 0 0 1 292.163 10.914 A 35.76 35.76 0 0 1 302.021 3.928 A 41.854 41.854 0 0 1 304.175 2.955 Q 311.23 0.001 319.189 0.001 A 42.623 42.623 0 0 1 332.57 2.076 A 40.141 40.141 0 0 1 334.424 2.735 A 38.269 38.269 0 0 1 344.019 8.031 A 35.033 35.033 0 0 1 346.729 10.328 A 33.853 33.853 0 0 1 354.078 20.478 A 39.697 39.697 0 0 1 354.883 22.266 Q 357.861 29.346 357.861 37.696 Z M 408.74 61.426 L 386.523 61.426 L 386.523 64.942 L 408.74 64.942 A 14.3 14.3 0 0 0 419.097 60.688 A 17.672 17.672 0 0 0 419.165 60.621 A 14.434 14.434 0 0 0 423.534 50.127 A 18.565 18.565 0 0 0 423.535 49.903 A 14.511 14.511 0 0 0 421.362 42.261 A 15.111 15.111 0 0 0 415.625 36.719 A 14.715 14.715 0 0 0 421.362 31.422 A 14.143 14.143 0 0 0 423.533 23.95 A 16.838 16.838 0 0 0 423.535 23.682 A 13.861 13.861 0 0 0 419.396 13.736 A 18.247 18.247 0 0 0 419.116 13.453 A 15.183 15.183 0 0 0 414.171 10.116 A 14.235 14.235 0 0 0 408.74 9.083 L 373.584 9.083 L 373.584 72.364 L 377.1 72.364 L 377.1 12.598 L 408.74 12.598 Q 413.232 12.598 416.626 15.943 A 11.857 11.857 0 0 1 418.975 19.13 A 10.142 10.142 0 0 1 420.02 23.682 A 11.723 11.723 0 0 1 419.338 27.751 A 10.313 10.313 0 0 1 416.699 31.715 A 11.158 11.158 0 0 1 408.74 34.864 L 397.998 34.864 L 386.523 34.864 L 386.523 38.38 L 397.998 38.38 L 408.74 38.38 A 10.552 10.552 0 0 1 416.089 41.326 A 14.082 14.082 0 0 1 416.626 41.846 A 12.063 12.063 0 0 1 419.144 45.531 A 10.977 10.977 0 0 1 420.02 49.903 A 12.691 12.691 0 0 1 419.429 53.857 A 10.532 10.532 0 0 1 416.699 58.204 A 11.023 11.023 0 0 1 408.74 61.426 Z M 150.684 37.696 L 150.684 72.364 L 147.168 72.364 L 147.168 37.696 A 29.957 29.957 0 0 0 146.065 29.432 A 25.52 25.52 0 0 0 143.481 23.414 Q 139.795 17.188 133.398 13.868 A 29.744 29.744 0 0 0 122.033 10.669 A 36.148 36.148 0 0 0 119.043 10.548 Q 111.475 10.548 105.225 14.136 A 26.152 26.152 0 0 0 95.435 23.829 Q 91.895 29.932 91.895 37.208 Q 91.895 43.458 94.189 48.609 A 25.097 25.097 0 0 0 97.576 54.207 A 21.823 21.823 0 0 0 100.366 57.081 Q 104.248 60.401 109.204 62.232 A 29.699 29.699 0 0 0 119.58 64.063 A 27.138 27.138 0 0 0 130.42 61.768 L 130.42 65.333 A 32.688 32.688 0 0 1 123.368 67.161 A 28.26 28.26 0 0 1 119.482 67.432 A 32.253 32.253 0 0 1 103.955 63.624 A 29.318 29.318 0 0 1 92.627 52.833 A 29.358 29.358 0 0 1 88.383 37.746 A 34.855 34.855 0 0 1 88.379 37.208 A 29.627 29.627 0 0 1 90.747 25.489 A 30.24 30.24 0 0 1 96.668 16.382 A 29.001 29.001 0 0 1 97.168 15.87 A 29.542 29.542 0 0 1 105.488 10.069 A 34.373 34.373 0 0 1 106.934 9.425 A 31.03 31.03 0 0 1 119.043 7.032 Q 127.979 7.032 135.181 10.841 A 28.311 28.311 0 0 1 146.533 21.68 A 30.047 30.047 0 0 1 150.561 34.665 A 36.861 36.861 0 0 1 150.684 37.696 Z M 350.83 37.696 L 350.83 72.364 L 347.314 72.364 L 347.314 37.696 A 29.957 29.957 0 0 0 346.212 29.432 A 25.52 25.52 0 0 0 343.628 23.414 Q 339.941 17.188 333.545 13.868 A 29.744 29.744 0 0 0 322.179 10.669 A 36.148 36.148 0 0 0 319.189 10.548 Q 311.621 10.548 305.371 14.136 A 26.152 26.152 0 0 0 295.581 23.829 Q 292.041 29.932 292.041 37.208 Q 292.041 43.458 294.336 48.609 A 25.097 25.097 0 0 0 297.722 54.207 A 21.823 21.823 0 0 0 300.513 57.081 Q 304.395 60.401 309.351 62.232 A 29.699 29.699 0 0 0 319.727 64.063 A 27.138 27.138 0 0 0 330.566 61.768 L 330.566 65.333 A 32.688 32.688 0 0 1 323.515 67.161 A 28.26 28.26 0 0 1 319.629 67.432 A 32.253 32.253 0 0 1 304.102 63.624 A 29.318 29.318 0 0 1 292.773 52.833 A 29.358 29.358 0 0 1 288.53 37.746 A 34.855 34.855 0 0 1 288.525 37.208 A 29.627 29.627 0 0 1 290.894 25.489 A 30.24 30.24 0 0 1 296.814 16.382 A 29.001 29.001 0 0 1 297.314 15.87 A 29.542 29.542 0 0 1 305.635 10.069 A 34.373 34.373 0 0 1 307.08 9.425 A 31.03 31.03 0 0 1 319.189 7.032 Q 328.125 7.032 335.327 10.841 A 28.311 28.311 0 0 1 346.68 21.68 A 30.047 30.047 0 0 1 350.707 34.665 A 36.861 36.861 0 0 1 350.83 37.696 Z M 192.969 49.317 L 192.969 45.801 L 214.16 45.801 A 16.879 16.879 0 0 0 226.221 41.016 A 15.974 15.974 0 0 0 231.216 29.927 A 21.523 21.523 0 0 0 231.25 28.712 A 14.675 14.675 0 0 0 227.325 18.695 A 20.066 20.066 0 0 0 226.123 17.457 Q 220.996 12.598 214.16 12.598 L 176.953 12.598 L 176.953 72.364 L 173.438 72.364 L 173.438 9.083 L 214.16 9.083 A 20.233 20.233 0 0 1 228.613 14.967 Q 234.766 20.85 234.766 28.712 A 20.866 20.866 0 0 1 233.198 36.895 A 19.718 19.718 0 0 1 228.687 43.409 A 20.114 20.114 0 0 1 214.16 49.317 L 192.969 49.317 Z M 595.947 31.885 L 590.381 31.885 A 35.176 35.176 0 0 1 585.535 31.582 Q 580.046 30.814 577.758 28.105 A 7.275 7.275 0 0 1 576.123 23.243 Q 576.123 19.497 580.186 17.031 A 14.658 14.658 0 0 1 580.542 16.822 A 15.566 15.566 0 0 1 584.01 15.416 Q 587.379 14.463 592.187 14.329 A 57.883 57.883 0 0 1 593.799 14.307 Q 600 14.307 605.322 15.748 Q 610.364 17.112 613.741 19.594 A 18.375 18.375 0 0 1 614.111 19.874 L 611.328 22.022 Q 605.225 17.823 593.799 17.823 A 57.635 57.635 0 0 0 590.381 17.918 Q 586.79 18.132 584.449 18.83 A 11.716 11.716 0 0 0 583.057 19.337 Q 581.356 20.09 580.502 21.06 A 3.224 3.224 0 0 0 579.639 23.243 Q 579.639 25.865 581.762 27.057 A 5.424 5.424 0 0 0 582.031 27.198 A 8.133 8.133 0 0 0 583.606 27.751 Q 585.269 28.172 587.801 28.306 A 48.759 48.759 0 0 0 590.381 28.37 L 595.947 28.37 A 47.965 47.965 0 0 1 604.007 29.004 Q 608.376 29.749 611.863 31.373 A 22.726 22.726 0 0 1 616.895 34.547 A 20.097 20.097 0 0 1 624.203 49.171 A 27.503 27.503 0 0 1 624.268 51.075 Q 624.268 55.811 622.168 59.962 A 21.729 21.729 0 0 1 617.149 66.407 A 25.543 25.543 0 0 1 616.138 67.261 A 24.652 24.652 0 0 1 611.664 70.081 Q 609.469 71.171 606.858 72.008 A 41.973 41.973 0 0 1 606.104 72.242 A 42.786 42.786 0 0 1 598.374 73.771 A 54.652 54.652 0 0 1 592.529 74.073 A 55.011 55.011 0 0 1 579.346 72.532 A 49.363 49.363 0 0 1 574.902 71.217 A 42.479 42.479 0 0 1 567.064 67.604 A 33.934 33.934 0 0 1 561.23 63.233 L 564.063 61.133 A 31.445 31.445 0 0 0 571.261 65.957 A 40.644 40.644 0 0 0 576.514 68.092 A 49.708 49.708 0 0 0 589.754 70.491 A 57.465 57.465 0 0 0 592.529 70.557 Q 601.838 70.557 608.322 67.782 A 24.244 24.244 0 0 0 613.232 64.991 A 20.732 20.732 0 0 0 617.657 60.643 A 15.746 15.746 0 0 0 620.752 51.075 A 19.479 19.479 0 0 0 619.69 44.502 A 16.542 16.542 0 0 0 614.307 37.061 Q 609.183 32.947 600.604 32.103 A 47.621 47.621 0 0 0 595.947 31.885 Z M 664.258 31.885 L 658.691 31.885 A 35.176 35.176 0 0 1 653.846 31.582 Q 648.356 30.814 646.068 28.105 A 7.275 7.275 0 0 1 644.434 23.243 Q 644.434 19.497 648.497 17.031 A 14.658 14.658 0 0 1 648.853 16.822 A 15.566 15.566 0 0 1 652.32 15.416 Q 655.689 14.463 660.497 14.329 A 57.883 57.883 0 0 1 662.109 14.307 Q 668.311 14.307 673.633 15.748 Q 678.674 17.112 682.051 19.594 A 18.375 18.375 0 0 1 682.422 19.874 L 679.639 22.022 Q 673.535 17.823 662.109 17.823 A 57.635 57.635 0 0 0 658.691 17.918 Q 655.1 18.132 652.759 18.83 A 11.716 11.716 0 0 0 651.367 19.337 Q 649.667 20.09 648.812 21.06 A 3.224 3.224 0 0 0 647.949 23.243 Q 647.949 25.865 650.073 27.057 A 5.424 5.424 0 0 0 650.342 27.198 A 8.133 8.133 0 0 0 651.917 27.751 Q 653.58 28.172 656.112 28.306 A 48.759 48.759 0 0 0 658.691 28.37 L 664.258 28.37 A 47.965 47.965 0 0 1 672.318 29.004 Q 676.686 29.749 680.174 31.373 A 22.726 22.726 0 0 1 685.205 34.547 A 20.097 20.097 0 0 1 692.513 49.171 A 27.503 27.503 0 0 1 692.578 51.075 Q 692.578 55.811 690.479 59.962 A 21.729 21.729 0 0 1 685.46 66.407 A 25.543 25.543 0 0 1 684.448 67.261 A 24.652 24.652 0 0 1 679.974 70.081 Q 677.779 71.171 675.169 72.008 A 41.973 41.973 0 0 1 674.414 72.242 A 42.786 42.786 0 0 1 666.684 73.771 A 54.652 54.652 0 0 1 660.84 74.073 A 55.011 55.011 0 0 1 647.657 72.532 A 49.363 49.363 0 0 1 643.213 71.217 A 42.479 42.479 0 0 1 635.374 67.604 A 33.934 33.934 0 0 1 629.541 63.233 L 632.373 61.133 A 31.445 31.445 0 0 0 639.571 65.957 A 40.644 40.644 0 0 0 644.824 68.092 A 49.708 49.708 0 0 0 658.065 70.491 A 57.465 57.465 0 0 0 660.84 70.557 Q 670.148 70.557 676.633 67.782 A 24.244 24.244 0 0 0 681.543 64.991 A 20.732 20.732 0 0 0 685.967 60.643 A 15.746 15.746 0 0 0 689.063 51.075 A 19.479 19.479 0 0 0 688 44.502 A 16.542 16.542 0 0 0 682.617 37.061 Q 677.494 32.947 668.914 32.103 A 47.621 47.621 0 0 0 664.258 31.885 Z M 595.947 45.948 L 590.381 45.948 A 47.965 47.965 0 0 1 582.321 45.314 Q 577.952 44.568 574.465 42.944 A 22.726 22.726 0 0 1 569.434 39.771 A 20.097 20.097 0 0 1 562.125 25.147 A 27.503 27.503 0 0 1 562.061 23.243 Q 562.061 18.507 564.16 14.356 A 21.729 21.729 0 0 1 569.179 7.911 A 25.543 25.543 0 0 1 570.19 7.056 A 24.652 24.652 0 0 1 574.664 4.237 Q 576.859 3.147 579.47 2.31 A 41.973 41.973 0 0 1 580.225 2.076 A 42.786 42.786 0 0 1 587.955 0.547 A 54.652 54.652 0 0 1 593.799 0.245 A 55.011 55.011 0 0 1 606.982 1.785 A 49.363 49.363 0 0 1 611.426 3.101 A 42.479 42.479 0 0 1 619.264 6.714 A 33.934 33.934 0 0 1 625.098 11.085 L 622.266 13.184 A 31.445 31.445 0 0 0 615.067 8.361 A 40.644 40.644 0 0 0 609.814 6.226 A 49.708 49.708 0 0 0 596.574 3.827 A 57.465 57.465 0 0 0 593.799 3.76 Q 584.49 3.76 578.006 6.535 A 24.244 24.244 0 0 0 573.096 9.327 A 20.732 20.732 0 0 0 568.672 13.674 A 15.746 15.746 0 0 0 565.576 23.243 A 19.479 19.479 0 0 0 566.639 29.816 A 16.542 16.542 0 0 0 572.021 37.257 Q 577.145 41.371 585.724 42.215 A 47.621 47.621 0 0 0 590.381 42.432 L 595.752 42.432 A 36.139 36.139 0 0 1 600.664 42.736 Q 606.12 43.489 608.456 46.108 A 7.183 7.183 0 0 1 610.205 51.075 Q 610.205 54.821 606.142 57.287 A 14.658 14.658 0 0 1 605.786 57.496 A 15.566 15.566 0 0 1 602.318 58.902 Q 598.949 59.855 594.141 59.989 A 57.883 57.883 0 0 1 592.529 60.01 Q 586.328 60.01 581.006 58.57 Q 575.964 57.206 572.588 54.724 A 18.375 18.375 0 0 1 572.217 54.444 L 575 52.296 Q 581.104 56.495 592.529 56.495 A 57.635 57.635 0 0 0 595.947 56.4 Q 599.538 56.186 601.879 55.488 A 11.716 11.716 0 0 0 603.271 54.981 Q 604.972 54.228 605.827 53.257 A 3.224 3.224 0 0 0 606.689 51.075 Q 606.689 48.453 604.566 47.261 A 5.424 5.424 0 0 0 604.297 47.12 A 8.133 8.133 0 0 0 602.722 46.567 Q 601.059 46.146 598.527 46.011 A 48.759 48.759 0 0 0 595.947 45.948 Z M 664.258 45.948 L 658.691 45.948 A 47.965 47.965 0 0 1 650.632 45.314 Q 646.263 44.568 642.775 42.944 A 22.726 22.726 0 0 1 637.744 39.771 A 20.097 20.097 0 0 1 630.436 25.147 A 27.503 27.503 0 0 1 630.371 23.243 Q 630.371 18.507 632.471 14.356 A 21.729 21.729 0 0 1 637.489 7.911 A 25.543 25.543 0 0 1 638.501 7.056 A 24.652 24.652 0 0 1 642.975 4.237 Q 645.17 3.147 647.781 2.31 A 41.973 41.973 0 0 1 648.535 2.076 A 42.786 42.786 0 0 1 656.265 0.547 A 54.652 54.652 0 0 1 662.109 0.245 A 55.011 55.011 0 0 1 675.292 1.785 A 49.363 49.363 0 0 1 679.736 3.101 A 42.479 42.479 0 0 1 687.575 6.714 A 33.934 33.934 0 0 1 693.408 11.085 L 690.576 13.184 A 31.445 31.445 0 0 0 683.378 8.361 A 40.644 40.644 0 0 0 678.125 6.226 A 49.708 49.708 0 0 0 664.884 3.827 A 57.465 57.465 0 0 0 662.109 3.76 Q 652.801 3.76 646.316 6.535 A 24.244 24.244 0 0 0 641.406 9.327 A 20.732 20.732 0 0 0 636.982 13.674 A 15.746 15.746 0 0 0 633.887 23.243 A 19.479 19.479 0 0 0 634.949 29.816 A 16.542 16.542 0 0 0 640.332 37.257 Q 645.456 41.371 654.035 42.215 A 47.621 47.621 0 0 0 658.691 42.432 L 664.063 42.432 A 36.139 36.139 0 0 1 668.974 42.736 Q 674.431 43.489 676.767 46.108 A 7.183 7.183 0 0 1 678.516 51.075 Q 678.516 54.821 674.452 57.287 A 14.658 14.658 0 0 1 674.097 57.496 A 15.566 15.566 0 0 1 670.629 58.902 Q 667.26 59.855 662.452 59.989 A 57.883 57.883 0 0 1 660.84 60.01 Q 654.639 60.01 649.316 58.57 Q 644.275 57.206 640.898 54.724 A 18.375 18.375 0 0 1 640.527 54.444 L 643.311 52.296 Q 649.414 56.495 660.84 56.495 A 57.635 57.635 0 0 0 664.258 56.4 Q 667.849 56.186 670.19 55.488 A 11.716 11.716 0 0 0 671.582 54.981 Q 673.283 54.228 674.137 53.257 A 3.224 3.224 0 0 0 675 51.075 Q 675 48.453 672.876 47.261 A 5.424 5.424 0 0 0 672.607 47.12 A 8.133 8.133 0 0 0 671.032 46.567 Q 669.37 46.146 666.837 46.011 A 48.759 48.759 0 0 0 664.258 45.948 Z M 595.947 38.917 L 590.381 38.917 A 40.518 40.518 0 0 1 584.435 38.509 Q 581.419 38.061 578.962 37.119 A 17.617 17.617 0 0 1 574.609 34.742 A 13.347 13.347 0 0 1 569.178 25.025 A 17.99 17.99 0 0 1 569.092 23.243 A 12.772 12.772 0 0 1 573.297 13.711 A 19.536 19.536 0 0 1 575.586 11.842 A 22.328 22.328 0 0 1 581.995 8.802 Q 587.024 7.276 593.799 7.276 A 50.145 50.145 0 0 1 604.045 8.292 A 43.765 43.765 0 0 1 608.374 9.425 A 36.331 36.331 0 0 1 614.393 11.918 A 27.7 27.7 0 0 1 619.629 15.479 L 616.895 17.676 A 25.094 25.094 0 0 0 611.782 14.479 A 34.27 34.27 0 0 0 606.836 12.598 Q 600.781 10.792 593.799 10.792 Q 587.302 10.792 582.737 12.19 A 18.671 18.671 0 0 0 578.052 14.307 A 14.461 14.461 0 0 0 575.181 16.691 A 9.435 9.435 0 0 0 572.607 23.243 A 12.211 12.211 0 0 0 573.236 27.256 A 10.033 10.033 0 0 0 577.075 32.252 Q 581.543 35.401 590.381 35.401 L 595.752 35.401 Q 602.577 35.401 607.31 37.199 A 17.657 17.657 0 0 1 611.694 39.576 Q 617.236 43.751 617.236 51.075 A 12.772 12.772 0 0 1 613.031 60.606 A 19.536 19.536 0 0 1 610.742 62.476 A 22.328 22.328 0 0 1 604.333 65.516 Q 599.304 67.042 592.529 67.042 A 50.145 50.145 0 0 1 582.283 66.026 A 43.765 43.765 0 0 1 577.954 64.893 A 36.331 36.331 0 0 1 571.935 62.4 A 27.7 27.7 0 0 1 566.699 58.839 L 569.434 56.641 A 25.094 25.094 0 0 0 574.547 59.839 A 34.27 34.27 0 0 0 579.492 61.719 Q 585.547 63.526 592.529 63.526 Q 599.026 63.526 603.591 62.128 A 18.671 18.671 0 0 0 608.276 60.01 A 14.461 14.461 0 0 0 611.147 57.627 A 9.435 9.435 0 0 0 613.721 51.075 A 12.211 12.211 0 0 0 613.092 47.061 A 10.033 10.033 0 0 0 609.253 42.066 Q 604.785 38.917 595.947 38.917 Z M 664.258 38.917 L 658.691 38.917 A 40.518 40.518 0 0 1 652.745 38.509 Q 649.729 38.061 647.273 37.119 A 17.617 17.617 0 0 1 642.92 34.742 A 13.347 13.347 0 0 1 637.489 25.025 A 17.99 17.99 0 0 1 637.402 23.243 A 12.772 12.772 0 0 1 641.607 13.711 A 19.536 19.536 0 0 1 643.896 11.842 A 22.328 22.328 0 0 1 650.306 8.802 Q 655.334 7.276 662.109 7.276 A 50.145 50.145 0 0 1 672.355 8.292 A 43.765 43.765 0 0 1 676.685 9.425 A 36.331 36.331 0 0 1 682.703 11.918 A 27.7 27.7 0 0 1 687.939 15.479 L 685.205 17.676 A 25.094 25.094 0 0 0 680.092 14.479 A 34.27 34.27 0 0 0 675.146 12.598 Q 669.092 10.792 662.109 10.792 Q 655.612 10.792 651.047 12.19 A 18.671 18.671 0 0 0 646.362 14.307 A 14.461 14.461 0 0 0 643.491 16.691 A 9.435 9.435 0 0 0 640.918 23.243 A 12.211 12.211 0 0 0 641.546 27.256 A 10.033 10.033 0 0 0 645.386 32.252 Q 649.854 35.401 658.691 35.401 L 664.063 35.401 Q 670.888 35.401 675.621 37.199 A 17.657 17.657 0 0 1 680.005 39.576 Q 685.547 43.751 685.547 51.075 A 12.772 12.772 0 0 1 681.342 60.606 A 19.536 19.536 0 0 1 679.053 62.476 A 22.328 22.328 0 0 1 672.643 65.516 Q 667.615 67.042 660.84 67.042 A 50.145 50.145 0 0 1 650.594 66.026 A 43.765 43.765 0 0 1 646.265 64.893 A 36.331 36.331 0 0 1 640.246 62.4 A 27.7 27.7 0 0 1 635.01 58.839 L 637.744 56.641 A 25.094 25.094 0 0 0 642.857 59.839 A 34.27 34.27 0 0 0 647.803 61.719 Q 653.857 63.526 660.84 63.526 Q 667.337 63.526 671.902 62.128 A 18.671 18.671 0 0 0 676.587 60.01 A 14.461 14.461 0 0 0 679.458 57.627 A 9.435 9.435 0 0 0 682.031 51.075 A 12.211 12.211 0 0 0 681.403 47.061 A 10.033 10.033 0 0 0 677.563 42.066 Q 673.096 38.917 664.258 38.917 Z M 143.652 37.696 L 143.652 72.364 L 140.137 72.364 L 140.137 37.696 A 23.343 23.343 0 0 0 139.306 31.307 A 17.567 17.567 0 0 0 134.229 23.023 A 20.308 20.308 0 0 0 123.207 17.878 A 27.994 27.994 0 0 0 119.043 17.579 A 21.242 21.242 0 0 0 111.384 18.918 A 19.198 19.198 0 0 0 104.687 23.292 A 18.829 18.829 0 0 0 98.927 36.952 A 23.191 23.191 0 0 0 98.926 37.208 A 24.575 24.575 0 0 0 99.415 42.21 A 19.789 19.789 0 0 0 100.659 46.143 A 18.086 18.086 0 0 0 102.852 49.905 A 15.016 15.016 0 0 0 105.371 52.491 Q 108.35 54.883 112.036 56.129 Q 115.723 57.374 119.824 57.374 A 22.849 22.849 0 0 0 130.42 54.786 L 130.42 58.497 A 27.878 27.878 0 0 1 121.619 60.629 A 26.193 26.193 0 0 1 119.775 60.694 Q 114.941 60.694 110.596 59.205 A 24.248 24.248 0 0 1 102.832 54.859 A 19.016 19.016 0 0 1 98.502 49.613 A 23.334 23.334 0 0 1 97.412 47.437 A 23.788 23.788 0 0 1 95.587 40.474 A 29.507 29.507 0 0 1 95.41 37.208 A 22.205 22.205 0 0 1 102.01 21.038 A 26.804 26.804 0 0 1 102.222 20.826 A 22.886 22.886 0 0 1 118.731 14.065 A 29.416 29.416 0 0 1 119.043 14.063 A 29.651 29.651 0 0 1 126.441 14.954 A 24.933 24.933 0 0 1 131.641 16.92 Q 137.207 19.776 140.43 25.196 A 22.981 22.981 0 0 1 143.487 34.573 A 28.833 28.833 0 0 1 143.652 37.696 Z M 343.799 37.696 L 343.799 72.364 L 340.283 72.364 L 340.283 37.696 A 23.343 23.343 0 0 0 339.452 31.307 A 17.567 17.567 0 0 0 334.375 23.023 A 20.308 20.308 0 0 0 323.353 17.878 A 27.994 27.994 0 0 0 319.189 17.579 A 21.242 21.242 0 0 0 311.53 18.918 A 19.198 19.198 0 0 0 304.834 23.292 A 18.829 18.829 0 0 0 299.074 36.952 A 23.191 23.191 0 0 0 299.072 37.208 A 24.575 24.575 0 0 0 299.561 42.21 A 19.789 19.789 0 0 0 300.806 46.143 A 18.086 18.086 0 0 0 302.999 49.905 A 15.016 15.016 0 0 0 305.518 52.491 Q 308.496 54.883 312.183 56.129 Q 315.869 57.374 319.971 57.374 A 22.849 22.849 0 0 0 330.566 54.786 L 330.566 58.497 A 27.878 27.878 0 0 1 321.765 60.629 A 26.193 26.193 0 0 1 319.922 60.694 Q 315.088 60.694 310.742 59.205 A 24.248 24.248 0 0 1 302.979 54.859 A 19.016 19.016 0 0 1 298.648 49.613 A 23.334 23.334 0 0 1 297.559 47.437 A 23.788 23.788 0 0 1 295.733 40.474 A 29.507 29.507 0 0 1 295.557 37.208 A 22.205 22.205 0 0 1 302.157 21.038 A 26.804 26.804 0 0 1 302.368 20.826 A 22.886 22.886 0 0 1 318.877 14.065 A 29.416 29.416 0 0 1 319.189 14.063 A 29.651 29.651 0 0 1 326.588 14.954 A 24.933 24.933 0 0 1 331.787 16.92 Q 337.354 19.776 340.576 25.196 A 22.981 22.981 0 0 1 343.633 34.573 A 28.833 28.833 0 0 1 343.799 37.696 Z M 27.832 72.364 L 0 2.051 L 3.809 2.051 L 29.736 67.628 L 55.664 2.051 L 59.424 2.051 L 31.641 72.364 L 27.832 72.364 Z M 459.717 72.364 L 459.717 2.051 L 463.232 2.051 L 463.232 54.786 L 489.16 54.786 L 489.16 58.301 L 463.232 58.301 L 463.232 61.817 L 489.16 61.817 L 489.16 65.333 L 463.232 65.333 L 463.232 68.848 L 489.16 68.848 L 489.16 72.364 L 459.717 72.364 Z M 192.969 42.286 L 192.969 38.77 L 214.16 38.77 A 11.083 11.083 0 0 0 218.098 38.09 A 10.022 10.022 0 0 0 221.289 36.133 A 8.603 8.603 0 0 0 223.961 31.363 A 12.913 12.913 0 0 0 224.219 28.712 A 7.786 7.786 0 0 0 222.502 23.85 A 11.274 11.274 0 0 0 221.167 22.413 A 10.097 10.097 0 0 0 214.16 19.63 L 183.984 19.63 L 183.984 72.364 L 180.469 72.364 L 180.469 16.114 L 214.16 16.114 Q 219.58 16.114 223.657 19.923 A 13.856 13.856 0 0 1 226.278 23.177 A 11 11 0 0 1 227.734 28.712 A 15.724 15.724 0 0 1 227.155 33.091 A 11.914 11.914 0 0 1 223.779 38.599 Q 219.824 42.286 214.16 42.286 L 192.969 42.286 Z M 408.74 27.833 L 386.523 27.833 L 386.523 31.348 L 408.74 31.348 A 8.519 8.519 0 0 0 411.712 30.846 A 7.607 7.607 0 0 0 414.258 29.273 A 6.867 6.867 0 0 0 416.409 25.064 A 9.752 9.752 0 0 0 416.504 23.682 A 6.997 6.997 0 0 0 414.709 18.993 A 9.464 9.464 0 0 0 414.16 18.409 A 8.221 8.221 0 0 0 411.76 16.743 A 7.327 7.327 0 0 0 408.74 16.114 L 380.615 16.114 L 380.615 72.364 L 384.131 72.364 L 384.131 19.63 L 408.74 19.63 A 4.082 4.082 0 0 1 411.48 20.679 A 5.382 5.382 0 0 1 411.694 20.875 A 4.637 4.637 0 0 1 412.506 21.893 A 3.522 3.522 0 0 1 412.988 23.682 A 5.244 5.244 0 0 1 412.847 24.936 A 3.462 3.462 0 0 1 411.768 26.758 A 4.28 4.28 0 0 1 409.291 27.806 A 5.648 5.648 0 0 1 408.74 27.833 Z M 133.105 72.364 L 133.105 37.696 A 16.238 16.238 0 0 0 132.65 33.734 A 11.009 11.009 0 0 0 129.248 28.028 Q 125.391 24.61 119.043 24.61 A 12.844 12.844 0 0 0 109.814 28.321 A 12.607 12.607 0 0 0 106.891 32.468 A 11.963 11.963 0 0 0 105.957 37.208 A 18.868 18.868 0 0 0 106.152 39.985 A 14.349 14.349 0 0 0 106.738 42.457 A 13.059 13.059 0 0 0 107.627 44.52 A 9.879 9.879 0 0 0 108.862 46.314 A 11.367 11.367 0 0 0 112.061 48.853 A 14.703 14.703 0 0 0 115.942 50.294 A 19.568 19.568 0 0 0 119.098 50.704 A 22.925 22.925 0 0 0 120.264 50.733 Q 125.83 50.733 130.42 47.999 L 130.42 51.514 Q 125.684 54.005 120.215 54.005 A 23.112 23.112 0 0 1 115.175 53.469 A 20.721 20.721 0 0 1 113.599 53.052 A 17.963 17.963 0 0 1 107.959 50.172 A 12.378 12.378 0 0 1 104.907 46.759 A 15.8 15.8 0 0 1 103.931 44.898 A 16.945 16.945 0 0 1 102.669 40.45 A 22.273 22.273 0 0 1 102.441 37.208 A 15.76 15.76 0 0 1 104.2 29.757 A 16.191 16.191 0 0 1 107.178 25.782 Q 111.914 21.094 119.043 21.094 A 22.788 22.788 0 0 1 124.622 21.742 A 16.371 16.371 0 0 1 131.763 25.513 A 14.522 14.522 0 0 1 136.308 33.969 A 21.21 21.21 0 0 1 136.621 37.696 L 136.621 72.364 L 133.105 72.364 Z M 333.252 72.364 L 333.252 37.696 A 16.238 16.238 0 0 0 332.796 33.734 A 11.009 11.009 0 0 0 329.395 28.028 Q 325.537 24.61 319.189 24.61 A 12.844 12.844 0 0 0 309.961 28.321 A 12.607 12.607 0 0 0 307.038 32.468 A 11.963 11.963 0 0 0 306.104 37.208 A 18.868 18.868 0 0 0 306.299 39.985 A 14.349 14.349 0 0 0 306.885 42.457 A 13.059 13.059 0 0 0 307.773 44.52 A 9.879 9.879 0 0 0 309.009 46.314 A 11.367 11.367 0 0 0 312.207 48.853 A 14.703 14.703 0 0 0 316.089 50.294 A 19.568 19.568 0 0 0 319.245 50.704 A 22.925 22.925 0 0 0 320.41 50.733 Q 325.977 50.733 330.566 47.999 L 330.566 51.514 Q 325.83 54.005 320.361 54.005 A 23.112 23.112 0 0 1 315.321 53.469 A 20.721 20.721 0 0 1 313.745 53.052 A 17.963 17.963 0 0 1 308.105 50.172 A 12.378 12.378 0 0 1 305.054 46.759 A 15.8 15.8 0 0 1 304.077 44.898 A 16.945 16.945 0 0 1 302.815 40.45 A 22.273 22.273 0 0 1 302.588 37.208 A 15.76 15.76 0 0 1 304.347 29.757 A 16.191 16.191 0 0 1 307.324 25.782 Q 312.061 21.094 319.189 21.094 A 22.788 22.788 0 0 1 324.768 21.742 A 16.371 16.371 0 0 1 331.909 25.513 A 14.522 14.522 0 0 1 336.454 33.969 A 21.21 21.21 0 0 1 336.768 37.696 L 336.768 72.364 L 333.252 72.364 Z M 191.016 26.661 L 191.016 72.364 L 187.5 72.364 L 187.5 23.145 L 214.16 23.145 A 7.584 7.584 0 0 1 216.614 23.529 A 6.569 6.569 0 0 1 218.799 24.781 A 5.841 5.841 0 0 1 220.023 26.204 A 4.79 4.79 0 0 1 220.703 28.712 A 9.419 9.419 0 0 1 220.379 31.301 Q 219.547 34.204 216.583 34.976 A 9.64 9.64 0 0 1 214.16 35.255 L 192.969 35.255 L 192.969 31.739 L 214.16 31.739 Q 216.562 31.739 217.058 29.833 A 4.46 4.46 0 0 0 217.188 28.712 A 1.479 1.479 0 0 0 216.819 27.741 Q 216.611 27.492 216.284 27.271 Q 215.381 26.661 214.16 26.661 L 191.016 26.661 Z M 50.537 72.364 L 78.32 2.051 L 82.129 2.051 L 54.297 72.364 L 50.537 72.364 Z M 35.4 72.364 L 63.184 2.051 L 66.992 2.051 L 39.16 72.364 L 35.4 72.364 Z M 42.969 72.364 L 70.801 2.051 L 74.561 2.051 L 46.729 72.364 L 42.969 72.364 Z M 270.654 72.364 L 270.654 2.051 L 274.17 2.051 L 274.17 72.364 L 270.654 72.364 Z M 263.623 72.364 L 263.623 2.051 L 267.139 2.051 L 267.139 72.364 L 263.623 72.364 Z M 256.592 72.364 L 256.592 2.051 L 260.107 2.051 L 260.107 72.364 L 256.592 72.364 Z M 249.561 72.364 L 249.561 2.051 L 253.076 2.051 L 253.076 72.364 L 249.561 72.364 Z M 438.623 72.364 L 438.623 2.051 L 442.139 2.051 L 442.139 72.364 L 438.623 72.364 Z M 452.686 72.364 L 452.686 2.051 L 456.201 2.051 L 456.201 72.364 L 452.686 72.364 Z M 445.654 72.364 L 445.654 2.051 L 449.17 2.051 L 449.17 72.364 L 445.654 72.364 Z M 514.502 2.051 L 514.502 72.364 L 510.986 72.364 L 510.986 2.051 L 514.502 2.051 Z M 507.471 2.051 L 507.471 72.364 L 503.955 72.364 L 503.955 2.051 L 507.471 2.051 Z M 500.439 2.051 L 500.439 72.364 L 496.924 72.364 L 496.924 2.051 L 500.439 2.051 Z M 408.74 54.395 L 386.523 54.395 L 386.523 57.911 L 408.74 57.911 A 7.656 7.656 0 0 0 414.233 55.738 A 7.225 7.225 0 0 0 416.379 51.538 A 10.304 10.304 0 0 0 416.504 49.903 A 7.751 7.751 0 0 0 414.309 44.469 A 10.103 10.103 0 0 0 414.16 44.312 A 8.372 8.372 0 0 0 412.011 42.681 A 7.001 7.001 0 0 0 408.74 41.895 L 386.475 41.895 L 386.475 45.411 L 408.74 45.411 A 3.8 3.8 0 0 1 411.218 46.331 A 5.307 5.307 0 0 1 411.694 46.778 A 4.833 4.833 0 0 1 412.642 48.188 A 4.291 4.291 0 0 1 412.988 49.903 A 6.066 6.066 0 0 1 412.851 51.236 Q 412.644 52.152 412.129 52.821 A 3.623 3.623 0 0 1 411.768 53.223 A 4.166 4.166 0 0 1 408.915 54.392 A 5.441 5.441 0 0 1 408.74 54.395 Z M 30.176 59.278 L 7.568 2.051 L 11.328 2.051 L 32.178 54.786 L 30.176 59.278 Z M 34.082 50.001 L 15.137 2.051 L 18.945 2.051 L 35.938 45.167 L 34.082 50.001 Z M 37.793 40.333 L 22.705 2.051 L 26.465 2.051 L 39.648 35.401 L 37.793 40.333 Z"
              vector-effect="non-scaling-stroke"/>
    </g>
</svg>
