<svg width="2634" height="339" viewBox="0 0 2634 339" fill="none" xmlns="http://www.w3.org/2000/svg">
    <g opacity="0.5">
        <mask id="mask0" mask-type="alpha" maskUnits="userSpaceOnUse" x="0" y="0" width="2634" height="339">
            <path fill-rule="evenodd" clip-rule="evenodd" d="M1980.1 209.494V249.597H2107.71V265.547H1980.1V281.502H2107.71V297.456H1980.1V313.406H2107.71V329.36H1966.77V10.3053H2107.71V26.2596H1980.1V42.2139H2107.71V58.1637H1980.1V74.118H2107.71V90.0724H1980.1V129.731H2100.3V145.681H1980.1V161.635H2100.3V177.59H1980.1V193.54H2100.3V209.494H1980.1ZM733.905 256.685V240.735H814.279C830.7 240.735 845.886 236.009 859.839 226.555C873.789 217.102 884.931 203.955 893.265 187.114C901.6 170.277 905.767 151.666 905.767 131.283C905.791 112.913 901.491 94.9059 893.36 79.3227C885.123 63.1895 873.544 49.8731 859.744 40.6621C845.913 31.1575 830.23 26.1893 814.279 26.2596H646.49V329.36H633.155V10.3053H814.279C828.127 10.2802 841.833 13.6353 854.559 20.1656C864.19 25.0006 873.205 31.4297 881.341 39.2645C883.641 41.4971 885.86 43.8483 887.989 46.3114C897.373 57.1685 904.904 70.0569 910.584 84.9766C916.189 99.4934 919.095 115.292 919.102 131.283C919.172 143.434 917.947 155.545 915.457 167.326C913.069 178.48 909.305 189.145 904.287 198.971C894.769 217.851 880.959 233.103 864.47 242.95L892.435 329.36H878.174L851.688 249.375C850.134 249.993 848.569 250.576 846.996 251.122C845.383 251.682 843.672 252.241 841.865 252.801C841.251 252.992 840.636 253.179 840.021 253.364L865.024 329.36H850.763L826.318 256.023C823.35 256.361 820.373 256.569 817.393 256.644C816.355 256.672 815.317 256.686 814.279 256.685L837.799 329.36H823.723L800.39 256.685H788.351L810.759 329.36H796.684L774.09 256.685H733.905ZM1601.19 168.061L1600.82 167.838C1607.4 160.421 1612.65 151.474 1616.25 141.546C1619.84 131.618 1621.71 120.917 1621.73 110.097C1621.74 109.551 1621.75 109.005 1621.74 108.459C1621.81 97.8457 1620.07 87.3281 1616.63 77.5433C1613.19 67.7585 1608.13 58.9101 1601.75 51.5342C1601.53 51.2696 1601.31 51.0064 1601.09 50.7447C1594.26 42.4567 1586.07 35.952 1577.04 31.6412C1569.14 28.0109 1560.75 26.1855 1552.29 26.2596H1405.62V329.36H1392.28V10.3053H1552.29C1566.86 10.3053 1580.54 14.7748 1593.32 23.714C1606.09 32.6501 1616.25 44.6884 1623.78 59.829C1631.2 74.4938 1635.11 91.3167 1635.08 108.459C1635.15 119.288 1633.89 130.072 1631.34 140.463C1628.73 150.888 1624.6 160.681 1619.15 169.39C1629.55 186.18 1635.14 206.542 1635.08 227.44C1635.13 237.497 1634.08 247.519 1631.93 257.243C1630.07 265.562 1627.26 273.537 1623.6 280.948C1618.88 290.638 1612.76 299.244 1605.52 306.363C1601.78 309.988 1597.76 313.164 1593.5 315.842C1582.05 323.002 1569.41 326.982 1556.5 327.486C1555.1 327.554 1553.7 327.587 1552.29 327.586H1468.03V311.636H1552.29C1571.31 311.636 1587.64 303.548 1601.28 287.373C1607.84 279.737 1613.04 270.586 1616.55 260.474C1620.07 250.363 1621.83 239.503 1621.74 228.552C1621.74 228.181 1621.74 227.811 1621.74 227.44C1621.74 216.511 1619.77 205.728 1615.82 195.091C1611.87 184.455 1606.93 175.519 1601 168.283C1601 168.135 1601.06 168.061 1601.19 168.061ZM600.191 172.049V329.36H586.855V172.049C586.958 155.226 584.922 138.481 580.817 122.389C577.99 111.52 574.112 101.083 569.264 91.2885C557.534 67.5808 541.545 49.2654 521.296 36.3422C503.365 25.0109 483.579 18.5107 463.326 17.2978C460.058 17.0675 456.786 16.9525 453.514 16.9529C430.453 16.6724 407.751 23.7874 387.768 37.5583C367.891 51.2952 352.272 69.8708 340.911 93.285C329.594 116.511 323.709 142.952 323.874 169.835C323.796 187.456 326.272 204.959 331.19 221.569C334.369 232.368 338.596 242.683 343.786 252.302C346.058 256.479 348.53 260.496 351.19 264.331C359.62 276.488 369.476 287.123 380.452 295.904C391.451 304.737 403.501 311.534 416.196 316.065C428.84 320.62 441.974 322.935 455.179 322.935C469.429 323.012 483.544 319.62 496.665 312.966V329.36C482.96 335.12 468.885 338 454.439 338C439.673 338.03 424.981 335.492 410.825 330.467C396.688 325.446 383.601 318.024 371.565 308.201C359.526 298.379 348.939 286.783 339.804 273.416C330.665 260.048 323.503 244.428 318.317 226.555C313.101 208.379 310.472 189.284 310.542 170.066C310.542 169.989 310.542 169.912 310.542 169.835C310.47 147.365 314.153 125.105 321.374 104.361C327.812 85.5268 337.067 68.2552 348.686 53.3947C349.45 52.4257 350.224 51.4682 351.008 50.5223C361.878 37.495 374.522 26.7754 388.398 18.8224C391.084 17.2591 393.808 15.7868 396.564 14.4073C414.405 5.47117 433.389 1.00312 453.514 1.00312C470.741 0.88661 487.873 4.06524 504.262 10.4187C506.626 11.3466 508.971 12.3437 511.294 13.409C524.326 19.2891 536.582 27.3825 547.686 37.4403C551.258 40.7044 554.688 44.1832 557.965 47.8633C569.573 61.0062 579.027 76.6261 585.843 93.9203C586.915 96.5943 587.932 99.2995 588.892 102.034C596.425 123.451 600.191 146.79 600.191 172.049ZM1359.32 172.049V329.36H1345.99V172.049C1346.09 155.225 1344.05 138.481 1339.94 122.389C1337.12 111.52 1333.24 101.083 1328.39 91.2885C1316.66 67.5808 1300.67 49.2654 1280.43 36.3422C1262.49 25.0109 1242.71 18.5107 1222.46 17.2978C1219.19 17.0674 1215.91 16.9524 1212.64 16.9529C1189.58 16.6724 1166.88 23.7874 1146.89 37.5583C1127.02 51.2952 1111.4 69.8708 1100.04 93.285C1088.72 116.511 1082.84 142.952 1083 169.835C1082.92 187.455 1085.4 204.959 1090.32 221.569C1093.5 232.368 1097.72 242.683 1102.92 252.302C1105.19 256.479 1107.66 260.496 1110.32 264.331C1118.75 276.488 1128.61 287.123 1139.58 295.904C1150.58 304.737 1162.63 311.534 1175.33 316.065C1187.97 320.62 1201.1 322.935 1214.31 322.935C1228.56 323.012 1242.67 319.62 1255.79 312.966V329.36C1242.09 335.12 1228.01 338 1213.57 338C1198.8 338.03 1184.11 335.492 1169.95 330.467C1155.82 325.446 1142.73 318.024 1130.69 308.201C1118.65 298.379 1108.07 286.783 1098.93 273.416C1089.79 260.048 1082.63 244.428 1077.45 226.555C1072.23 208.379 1069.6 189.284 1069.67 170.066C1069.67 169.989 1069.67 169.912 1069.67 169.835C1069.6 147.365 1073.28 125.104 1080.5 104.361C1086.94 85.5268 1096.2 68.2552 1107.82 53.3947C1108.58 52.4258 1109.35 51.4683 1110.13 50.5223C1121 37.495 1133.65 26.7754 1147.52 18.8224C1150.21 17.259 1152.94 15.7867 1155.69 14.4073C1173.53 5.47117 1192.51 1.00312 1212.64 1.00312C1229.87 0.886126 1247 4.06476 1263.39 10.4187C1265.76 11.3466 1268.1 12.3437 1270.42 13.409C1283.46 19.2891 1295.71 27.3825 1306.82 37.4403C1310.39 40.7044 1313.82 44.1832 1317.09 47.8633C1328.7 61.0066 1338.15 76.6265 1344.97 93.9203C1346.04 96.5942 1347.06 99.2995 1348.02 102.034C1355.55 123.451 1359.32 146.79 1359.32 172.049ZM1552.29 279.727H1468.03V295.682H1552.29C1559.59 295.791 1566.83 294.138 1573.58 290.821C1580.33 287.504 1586.45 282.592 1591.58 276.379C1591.66 276.278 1591.75 276.176 1591.83 276.075C1597.15 269.893 1601.35 262.485 1604.2 254.299C1607.05 246.114 1608.48 237.322 1608.41 228.457C1608.41 228.118 1608.41 227.779 1608.41 227.44C1608.41 215.189 1605.56 203.18 1600.17 192.764C1594.93 182.201 1587.41 173.516 1578.41 167.616C1587.34 162.095 1594.86 153.79 1600.17 143.58C1605.51 133.422 1608.36 121.675 1608.4 109.675C1608.41 109.27 1608.41 108.864 1608.41 108.459C1608.44 100.063 1607.07 91.7451 1604.37 83.994C1601.68 76.2429 1597.71 69.216 1592.71 63.3275C1592.36 62.8949 1592.01 62.4668 1591.65 62.0434C1586.3 55.5618 1579.92 50.4151 1572.89 46.9013C1566.35 43.7434 1559.35 42.1509 1552.29 42.2139H1418.95V329.36H1432.29V58.1637H1552.29C1563.65 58.1637 1573.62 63.2232 1582.2 73.3421C1585.83 77.5311 1588.84 82.4198 1591.11 87.8035C1593.76 94.226 1595.12 101.299 1595.08 108.459C1595.13 114.748 1594.26 120.999 1592.49 126.923C1590.37 133.77 1586.94 139.93 1582.48 144.91C1578.48 149.551 1573.76 153.203 1568.58 155.655C1563.4 158.107 1557.86 159.311 1552.29 159.199H1511.55H1468.03V175.153H1511.55H1552.29C1562.68 175.112 1572.68 179.906 1580.17 188.521C1580.86 189.286 1581.54 190.073 1582.2 190.88C1586.23 195.695 1589.47 201.366 1591.75 207.602C1593.99 213.873 1595.12 220.625 1595.08 227.44C1595.13 233.525 1594.37 239.581 1592.84 245.382C1590.8 252.878 1587.24 259.654 1582.48 265.107C1578.52 269.836 1573.81 273.567 1568.63 276.078C1563.44 278.59 1557.89 279.83 1552.29 279.727ZM573.523 172.049V329.36H560.188V172.049C560.261 159.377 558.853 146.756 556.004 134.55C553.731 124.982 550.437 115.804 546.203 107.243C536.883 88.4086 524.135 73.9698 507.96 63.9265C494.547 55.6905 479.889 50.7546 464.854 49.4106C461.082 49.0404 457.298 48.8572 453.514 48.8616C434.377 48.8616 416.907 54.2886 401.104 65.1426C385.663 75.5697 372.841 90.7579 363.972 109.126C355.021 127.588 350.545 147.824 350.545 169.835C350.545 188.742 353.445 205.986 359.246 221.569C362.583 230.67 366.902 239.21 372.092 246.97C375.278 251.696 378.82 256.062 382.674 260.011C392.49 270.055 403.664 277.846 416.196 283.385C428.795 288.938 442.123 291.752 455.55 291.693C469.708 291.642 483.705 288.096 496.665 281.279V297.456C488.035 301.405 479.064 304.187 469.918 305.751C465.034 306.566 460.109 306.977 455.179 306.98C434.647 307.225 414.394 301.282 396.287 289.701C378.522 278.337 363.671 261.412 353.321 240.735C342.869 220.082 337.306 196.419 337.224 172.276C337.214 171.462 337.209 170.649 337.209 169.835C337.151 151.563 340.207 133.47 346.191 116.658C351.53 101.375 359.139 87.3743 368.648 75.3341C369.272 74.5504 369.905 73.7759 370.545 73.0109C379.716 62.1257 390.393 53.2202 402.101 46.688C403.91 45.6637 405.739 44.6894 407.586 43.7658C422.133 36.5033 437.751 32.8107 453.514 32.9072C476.109 32.9072 496.512 38.6685 514.723 50.1911C532.663 61.4032 547.588 78.4529 557.779 99.3745C566.568 117.361 571.794 137.517 573.057 158.296C573.37 162.871 573.526 167.459 573.523 172.049ZM1332.65 172.049V329.36H1319.31V172.049C1319.39 159.378 1317.98 146.756 1315.13 134.55C1312.86 124.982 1309.57 115.804 1305.33 107.243C1296.01 88.4086 1283.26 73.9698 1267.09 63.9265C1253.68 55.6899 1239.02 50.754 1223.98 49.4106C1220.21 49.0404 1216.42 48.8572 1212.64 48.8616C1193.5 48.8616 1176.03 54.2886 1160.23 65.1426C1144.79 75.5697 1131.97 90.7579 1123.1 109.126C1114.15 127.588 1109.67 147.824 1109.67 169.835C1109.67 188.742 1112.57 205.986 1118.38 221.569C1121.71 230.67 1126.03 239.21 1131.22 246.97C1134.4 251.696 1137.95 256.062 1141.8 260.011C1151.62 270.055 1162.79 277.846 1175.33 283.385C1187.92 288.938 1201.25 291.752 1214.68 291.693C1228.84 291.641 1242.83 288.096 1255.79 281.279V297.456C1247.16 301.404 1238.19 304.186 1229.05 305.751C1224.16 306.566 1219.24 306.977 1214.31 306.98C1193.78 307.225 1173.52 301.282 1155.42 289.701C1137.65 278.337 1122.8 261.413 1112.45 240.735C1102 220.082 1096.43 196.419 1096.35 172.276C1096.34 171.462 1096.34 170.649 1096.34 169.835C1096.28 151.563 1099.34 133.469 1105.32 116.658C1110.66 101.375 1118.27 87.3746 1127.77 75.3341C1128.4 74.5504 1129.03 73.7759 1129.67 73.0109C1138.84 62.1253 1149.52 53.2198 1161.23 46.688C1163.04 45.6638 1164.87 44.6894 1166.71 43.7658C1181.26 36.5033 1196.88 32.8107 1212.64 32.9072C1235.23 32.9072 1255.64 38.6685 1273.85 50.1911C1291.79 61.4025 1306.72 78.4523 1316.91 99.3745C1325.7 117.361 1330.92 137.517 1332.18 158.296C1332.5 162.871 1332.65 167.459 1332.65 172.049ZM733.905 224.781V208.827H814.279C822.724 208.997 831.114 207.166 838.966 203.44C846.817 199.713 853.974 194.165 860.025 187.114C871.639 173.986 878.448 155.902 878.97 136.796C879.056 134.96 879.099 133.122 879.099 131.283C879.125 114.424 873.805 98.1799 864.212 85.8297C862.76 83.8798 861.239 82.0056 859.653 80.2121C846.689 65.5132 831.564 58.1637 814.279 58.1637H673.158V329.36H659.826V42.2139H814.279C824.439 42.1013 834.516 44.4034 843.926 48.9867C853.336 53.57 861.892 60.3432 869.097 68.9134C884.656 86.71 892.435 107.5 892.435 131.283C892.559 144.013 890.536 156.642 886.488 168.415C882.515 179.551 876.694 189.607 869.378 197.973C862.162 206.628 853.567 213.461 844.102 218.066C834.637 222.671 824.496 224.955 814.279 224.781H733.905ZM2262.34 145.681H2241.23C2235.09 145.73 2228.95 145.27 2222.85 144.306C2208.97 141.983 2199.14 136.724 2193.36 128.529C2189.12 122.32 2186.91 114.478 2187.15 106.467C2187.15 95.1349 2192.29 85.7389 2202.56 78.2791C2203.01 77.9554 2203.46 77.6392 2203.91 77.3307C2208.07 74.579 2212.49 72.4369 2217.07 70.9508C2225.59 68.0679 2235.93 66.4237 2248.08 66.0184C2250.12 65.9511 2252.16 65.9179 2254.2 65.9185C2269.88 65.9185 2284.45 68.0981 2297.9 72.4573C2310.65 76.5835 2321.3 82.4007 2329.83 89.909C2330.31 90.3254 2330.77 90.749 2331.24 91.1796L2320.68 100.926C2305.25 88.224 2283.09 81.8729 2254.2 81.8729C2249.87 81.8631 2245.55 82.0069 2241.23 82.3039C2232.15 82.9513 2224.65 84.3307 2218.73 86.4423C2216.93 87.0751 2215.17 87.8435 2213.45 88.7428C2209.15 91.0207 2205.92 93.6269 2203.76 96.5612C2201.67 99.2537 2200.5 102.79 2200.49 106.467C2200.49 114.399 2203.17 120.167 2208.54 123.773C2208.88 123.998 2209.22 124.211 2209.56 124.413C2211.48 125.493 2213.48 126.333 2215.54 126.923C2219.74 128.196 2225.05 129.036 2231.45 129.441C2234.71 129.641 2237.97 129.738 2241.23 129.731H2262.34C2272.58 129.659 2282.81 130.622 2292.91 132.608C2303.96 134.862 2313.89 138.445 2322.71 143.358C2329.57 147.137 2335.99 151.98 2341.8 157.76C2350.05 165.88 2356.78 175.983 2361.55 187.415C2366.33 198.847 2369.04 211.352 2369.52 224.119C2369.68 226.994 2369.76 229.876 2369.76 232.758C2369.76 247.085 2367.11 260.527 2361.8 273.084C2357.05 284.185 2350.59 294.108 2342.76 302.329C2341.51 303.66 2340.23 304.953 2338.93 306.205C2333.67 311.186 2327.98 315.476 2321.96 319.001C2316.41 322.298 2310.33 325.213 2303.73 327.745C2302.78 328.109 2301.82 328.463 2300.87 328.806C2291.29 332.193 2281.48 334.516 2271.55 335.745C2264.19 336.675 2256.78 337.132 2249.38 337.115C2232.54 337.207 2215.75 334.859 2199.38 330.122C2193.69 328.45 2188.06 326.459 2182.52 324.155C2172.17 319.912 2162.21 314.419 2152.79 307.761C2144.85 302.119 2137.43 295.47 2130.67 287.927L2141.41 278.398C2149.62 287.167 2158.81 294.533 2168.71 300.287C2175.16 304.068 2181.82 307.305 2188.64 309.975C2204.89 316.31 2221.78 319.972 2238.85 320.861C2242.36 321.062 2245.87 321.162 2249.38 321.161C2272.92 321.161 2292.89 316.963 2309.28 308.569C2315.88 305.229 2322.13 300.979 2327.9 295.904C2334.29 290.372 2339.95 283.721 2344.69 276.174C2352.46 263.626 2356.58 248.376 2356.43 232.758C2356.52 222.613 2355.16 212.524 2352.4 202.932C2348.39 189.598 2341.31 177.892 2331.98 169.168C2319.02 156.723 2301.7 149.223 2280.01 146.67C2274.14 145.996 2268.24 145.666 2262.34 145.681ZM2521.44 145.681H2500.32C2494.18 145.73 2488.04 145.27 2481.95 144.306C2468.06 141.983 2458.23 136.724 2452.45 128.529C2448.21 122.319 2446.01 114.477 2446.25 106.467C2446.25 95.1349 2451.39 85.7389 2461.66 78.2791C2462.11 77.9554 2462.56 77.6392 2463.01 77.3307C2467.16 74.5793 2471.58 72.4372 2476.16 70.9508C2484.68 68.0679 2495.02 66.4237 2507.17 66.0184C2509.21 65.9511 2511.25 65.9179 2513.29 65.9185C2528.97 65.9185 2543.54 68.0981 2557 72.4573C2569.74 76.5835 2580.39 82.4007 2588.92 89.909C2589.4 90.3254 2589.87 90.749 2590.33 91.1796L2579.78 100.926C2564.34 88.224 2542.18 81.8729 2513.29 81.8729C2508.96 81.8631 2504.64 82.0069 2500.32 82.3039C2491.24 82.9513 2483.74 84.3307 2477.82 86.4423C2476.03 87.0751 2474.26 87.8435 2472.54 88.7428C2468.25 91.0207 2465.02 93.6269 2462.85 96.5612C2460.76 99.2537 2459.59 102.79 2459.58 106.467C2459.58 114.399 2462.27 120.167 2467.64 123.773C2467.97 123.998 2468.31 124.211 2468.66 124.413C2470.57 125.493 2472.57 126.333 2474.63 126.923C2478.84 128.196 2484.14 129.036 2490.54 129.441C2493.8 129.641 2497.06 129.738 2500.32 129.731H2521.44C2531.68 129.659 2541.9 130.622 2552.01 132.608C2563.05 134.862 2572.99 138.445 2581.81 143.358C2588.67 147.138 2595.08 151.98 2600.89 157.76C2609.14 165.88 2615.87 175.983 2620.64 187.415C2625.42 198.847 2628.13 211.352 2628.61 224.119C2628.77 226.994 2628.85 229.876 2628.85 232.758C2628.85 247.085 2626.2 260.527 2620.89 273.084C2616.15 284.185 2609.69 294.108 2601.85 302.329C2600.6 303.661 2599.32 304.953 2598.02 306.205C2592.76 311.186 2587.07 315.476 2581.05 319.001C2575.5 322.298 2569.42 325.213 2562.82 327.745C2561.87 328.109 2560.92 328.463 2559.96 328.806C2550.38 332.193 2540.57 334.516 2530.64 335.745C2523.28 336.675 2515.88 337.132 2508.47 337.115C2491.63 337.207 2474.84 334.859 2458.47 330.122C2452.78 328.45 2447.15 326.459 2441.62 324.155C2431.27 319.913 2421.3 314.419 2411.89 307.761C2403.94 302.119 2396.52 295.469 2389.76 287.927L2400.5 278.398C2408.72 287.167 2417.9 294.533 2427.8 300.287C2434.25 304.068 2440.91 307.305 2447.73 309.975C2463.98 316.311 2480.87 319.973 2497.95 320.861C2501.45 321.062 2504.96 321.162 2508.47 321.161C2532.01 321.161 2551.98 316.963 2568.37 308.569C2574.97 305.229 2581.22 300.979 2587 295.904C2593.39 290.371 2599.04 283.72 2603.78 276.174C2611.55 263.627 2615.68 248.377 2615.52 232.758C2615.62 222.613 2614.25 212.524 2611.49 202.932C2607.48 189.598 2600.4 177.892 2591.07 169.168C2578.12 156.723 2560.79 149.223 2539.1 146.67C2533.23 145.996 2527.33 145.666 2521.44 145.681ZM2262.34 209.494H2241.23C2230.99 209.566 2220.77 208.604 2210.66 206.617C2199.62 204.36 2189.68 200.776 2180.87 195.863C2174.01 192.084 2167.59 187.244 2161.78 181.465C2153.53 173.345 2146.8 163.242 2142.03 151.811C2137.25 140.379 2134.54 127.874 2134.06 115.107C2133.9 112.231 2133.82 109.349 2133.82 106.467C2133.82 92.14 2136.47 78.698 2141.78 66.1409C2146.52 55.0404 2152.98 45.1167 2160.82 36.8958C2162.07 35.5632 2163.35 34.2695 2164.65 33.0161C2169.91 28.0367 2175.6 23.7482 2181.62 20.2245C2187.17 16.9272 2193.25 14.0125 2199.85 11.4805C2200.8 11.1158 2201.76 10.7619 2202.71 10.4187C2212.29 7.03202 2222.1 4.70949 2232.03 3.48066C2239.39 2.55063 2246.79 2.09319 2254.2 2.1103C2271.04 2.01679 2287.83 4.36319 2304.2 9.09826C2309.89 10.7719 2315.52 12.7646 2321.05 15.0698C2331.4 19.313 2341.36 24.8061 2350.78 31.4643C2358.73 37.1059 2366.15 43.7555 2372.91 51.2983L2362.17 60.8228C2353.95 52.0552 2344.77 44.6903 2334.86 38.9377C2328.42 35.1575 2321.76 31.9203 2314.94 29.2499C2298.69 22.9151 2281.8 19.2529 2264.72 18.3641C2261.22 18.1614 2257.71 18.06 2254.2 18.0601C2230.66 18.0601 2210.69 22.2574 2194.3 30.652C2187.7 33.9926 2181.45 38.2444 2175.67 43.3211C2169.29 48.8524 2163.63 55.5018 2158.89 63.0462C2151.12 75.5949 2146.99 90.8467 2147.15 106.467C2147.05 116.612 2148.42 126.701 2151.18 136.293C2155.19 149.627 2162.26 161.333 2171.6 170.057C2184.55 182.503 2201.88 190.002 2223.57 192.555C2229.44 193.228 2235.34 193.557 2241.23 193.54H2261.6C2267.83 193.492 2274.06 193.953 2280.23 194.919C2294.03 197.197 2303.88 202.297 2309.79 210.22C2314.31 216.457 2316.68 224.512 2316.42 232.758C2316.42 244.09 2311.29 253.486 2301.01 260.946C2300.57 261.27 2300.12 261.586 2299.66 261.894C2295.51 264.646 2291.09 266.788 2286.51 268.274C2277.99 271.157 2267.65 272.801 2255.49 273.207C2253.46 273.273 2251.42 273.304 2249.38 273.302C2233.7 273.302 2219.13 271.124 2205.67 266.768C2192.93 262.642 2182.28 256.824 2173.75 249.316C2173.27 248.9 2172.8 248.476 2172.34 248.046L2182.89 238.299C2198.33 251.001 2220.49 257.352 2249.38 257.352C2253.7 257.362 2258.03 257.218 2262.34 256.921C2271.42 256.274 2278.92 254.894 2284.84 252.783C2286.64 252.15 2288.41 251.382 2290.12 250.482C2294.42 248.204 2297.66 245.597 2299.82 242.659C2301.91 239.967 2303.08 236.433 2303.09 232.758C2303.09 224.827 2300.4 219.058 2295.03 215.452C2294.7 215.227 2294.36 215.014 2294.01 214.812C2292.1 213.733 2290.1 212.892 2288.04 212.303C2283.84 211.029 2278.53 210.188 2272.13 209.78C2268.87 209.581 2265.61 209.486 2262.34 209.494ZM2521.44 209.494H2500.32C2490.08 209.566 2479.86 208.603 2469.76 206.617C2458.71 204.36 2448.78 200.776 2439.96 195.863C2433.1 192.084 2426.68 187.244 2420.87 181.465C2412.63 173.345 2405.9 163.242 2401.12 151.81C2396.34 140.378 2393.63 127.873 2393.16 115.107C2392.99 112.231 2392.91 109.349 2392.91 106.467C2392.91 92.14 2395.56 78.698 2400.87 66.1409C2405.62 55.0408 2412.07 45.1171 2419.91 36.8958C2421.16 35.5631 2422.44 34.2694 2423.75 33.0161C2429 28.0367 2434.69 23.7482 2440.71 20.2245C2446.26 16.9272 2452.34 14.0125 2458.94 11.4805C2459.89 11.1159 2460.85 10.7619 2461.8 10.4187C2471.38 7.03202 2481.19 4.70949 2491.12 3.48066C2498.48 2.55063 2505.88 2.09319 2513.29 2.1103C2530.13 2.01679 2546.92 4.36319 2563.29 9.09826C2568.98 10.7719 2574.61 12.7646 2580.14 15.0698C2590.49 19.3127 2600.46 24.8059 2609.88 31.4643C2617.82 37.1061 2625.24 43.7558 2632 51.2983L2621.26 60.8228C2613.05 52.0556 2603.86 44.6907 2593.96 38.9377C2587.51 35.1575 2580.86 31.9203 2574.03 29.2499C2557.78 22.9147 2540.89 19.2525 2523.81 18.3641C2520.31 18.1614 2516.8 18.06 2513.29 18.0601C2489.75 18.0601 2469.78 22.2574 2453.39 30.652C2446.79 33.9926 2440.54 38.2444 2434.76 43.3211C2428.38 48.8524 2422.72 55.5018 2417.98 63.0462C2410.21 75.5954 2406.09 90.8472 2406.25 106.467C2406.15 116.612 2407.51 126.701 2410.27 136.293C2414.28 149.627 2421.36 161.334 2430.69 170.057C2443.65 182.503 2460.97 190.002 2482.66 192.555C2488.53 193.228 2494.43 193.556 2500.32 193.54H2520.7C2526.93 193.493 2533.15 193.953 2539.33 194.919C2553.12 197.197 2562.98 202.297 2568.88 210.22C2573.4 216.457 2575.77 224.512 2575.52 232.758C2575.52 244.09 2570.38 253.486 2560.1 260.946C2559.66 261.27 2559.21 261.586 2558.76 261.894C2554.6 264.646 2550.19 266.788 2545.6 268.274C2537.08 271.157 2526.75 272.801 2514.59 273.207C2512.55 273.273 2510.51 273.304 2508.47 273.302C2492.79 273.302 2478.22 271.124 2464.77 266.768C2452.02 262.642 2441.38 256.824 2432.84 249.316C2432.36 248.9 2431.89 248.476 2431.43 248.046L2441.99 238.299C2457.42 251.001 2479.58 257.352 2508.47 257.352C2512.8 257.362 2517.12 257.218 2521.44 256.921C2530.52 256.274 2538.02 254.894 2543.94 252.783C2545.74 252.15 2547.5 251.382 2549.22 250.482C2553.52 248.204 2556.75 245.597 2558.91 242.659C2561 239.968 2562.17 236.433 2562.18 232.758C2562.18 224.827 2559.5 219.058 2554.12 215.452C2553.79 215.227 2553.45 215.014 2553.1 214.812C2551.19 213.733 2549.19 212.892 2547.13 212.303C2542.93 211.029 2537.62 210.188 2531.22 209.78C2527.96 209.581 2524.7 209.486 2521.44 209.494ZM2262.34 177.59H2241.23C2233.69 177.636 2226.15 177.017 2218.68 175.738C2211.05 174.383 2204.13 172.281 2197.92 169.431C2192.02 166.785 2186.46 163.154 2181.41 158.645C2175.53 153.502 2170.64 146.901 2167.09 139.291C2163.53 131.681 2161.39 123.243 2160.81 114.553C2160.59 111.866 2160.48 109.167 2160.49 106.467C2160.46 98.3213 2161.86 90.2592 2164.61 82.8065C2167.36 75.3538 2171.39 68.6778 2176.44 63.2141C2179.15 60.129 2182.05 57.2939 2185.12 54.7333C2192.55 48.6148 2200.76 43.9579 2209.43 40.9388C2222.14 36.3226 2237.07 34.0144 2254.2 34.0144C2267.25 33.9518 2280.27 35.4967 2293.06 38.6247C2298.6 40.0023 2304.08 41.7182 2309.48 43.7658C2317.36 46.7111 2325 50.497 2332.31 55.0781C2339.42 59.5384 2346.08 64.96 2352.17 71.2366L2341.8 81.2058C2335.84 75.4552 2329.33 70.5844 2322.4 66.699C2316.34 63.2797 2310.07 60.4261 2303.64 58.1637C2288.33 52.7004 2271.85 49.9687 2254.2 49.9687C2237.77 49.9687 2223.78 52.0833 2212.24 56.3124C2205.98 58.5188 2200 61.7515 2194.47 65.9185C2190.47 68.9466 2186.81 72.5828 2183.58 76.7363C2177.24 84.7686 2173.75 95.421 2173.82 106.467C2173.76 112.653 2174.56 118.808 2176.2 124.676C2178.9 133.908 2184 141.856 2190.77 147.346C2202.06 156.872 2218.89 161.635 2241.23 161.635H2261.6C2278.86 161.635 2293.47 164.355 2305.44 169.794C2311.38 172.43 2316.98 176.062 2322.07 180.58C2336.08 193.21 2343.09 210.603 2343.09 232.758C2343.12 240.903 2341.72 248.964 2338.97 256.416C2336.22 263.868 2332.19 270.543 2327.14 276.007C2324.43 279.093 2321.53 281.93 2318.46 284.492C2311.02 290.61 2302.82 295.267 2294.15 298.286C2281.43 302.903 2266.51 305.211 2249.38 305.211C2236.33 305.273 2223.31 303.728 2210.52 300.601C2204.98 299.223 2199.5 297.507 2194.1 295.459C2186.22 292.514 2178.58 288.728 2171.27 284.147C2164.16 279.687 2157.49 274.265 2151.41 267.989L2161.78 258.015C2167.74 263.767 2174.25 268.639 2181.18 272.526C2187.24 275.944 2193.51 278.796 2199.93 281.057C2215.24 286.523 2231.73 289.256 2249.38 289.256C2265.81 289.256 2279.79 287.142 2291.34 282.913C2297.6 280.705 2303.58 277.471 2309.11 273.302C2313.11 270.275 2316.77 266.641 2320 262.489C2326.33 254.457 2329.83 243.804 2329.76 232.758C2329.82 226.57 2329.01 220.414 2327.37 214.544C2324.68 205.315 2319.57 197.368 2312.81 191.879C2301.51 182.353 2284.69 177.59 2262.34 177.59ZM2521.44 177.59H2500.32C2492.78 177.636 2485.24 177.017 2477.77 175.738C2470.14 174.383 2463.23 172.281 2457.02 169.431C2451.12 166.785 2445.56 163.154 2440.51 158.645C2434.62 153.502 2429.74 146.901 2426.18 139.291C2422.63 131.681 2420.49 123.243 2419.91 114.553C2419.69 111.866 2419.58 109.167 2419.58 106.467C2419.55 98.3213 2420.95 90.2592 2423.7 82.8065C2426.45 75.3538 2430.48 68.6778 2435.53 63.2141C2438.24 60.129 2441.14 57.2939 2444.21 54.7333C2451.65 48.6144 2459.85 43.9575 2468.52 40.9388C2481.23 36.3226 2496.16 34.0144 2513.29 34.0144C2526.34 33.9518 2539.36 35.4967 2552.15 38.6247C2557.69 40.0021 2563.17 41.7181 2568.57 43.7658C2576.45 46.7113 2584.09 50.4973 2591.4 55.0781C2598.51 59.5384 2605.18 64.96 2611.26 71.2366L2600.89 81.2058C2594.93 75.4552 2588.42 70.5844 2581.49 66.699C2575.43 63.2797 2569.16 60.4261 2562.73 58.1637C2547.43 52.7004 2530.94 49.9687 2513.29 49.9687C2496.86 49.9687 2482.87 52.0833 2471.33 56.3124C2465.07 58.5188 2459.09 61.7515 2453.56 65.9185C2449.56 68.9466 2445.9 72.5828 2442.67 76.7363C2436.33 84.7693 2432.84 95.4216 2432.91 106.467C2432.85 112.653 2433.66 118.808 2435.29 124.676C2437.99 133.908 2443.1 141.857 2449.86 147.346C2461.16 156.872 2477.98 161.635 2500.32 161.635H2520.7C2537.96 161.635 2552.57 164.355 2564.54 169.794C2570.48 172.43 2576.08 176.062 2581.16 180.58C2595.18 193.21 2602.18 210.603 2602.18 232.758C2602.22 240.903 2600.81 248.964 2598.06 256.416C2595.31 263.868 2591.28 270.543 2586.24 276.007C2583.52 279.093 2580.62 281.93 2577.55 284.492C2570.12 290.611 2561.91 295.268 2553.24 298.286C2540.53 302.903 2525.61 305.211 2508.47 305.211C2495.42 305.273 2482.4 303.728 2469.61 300.601C2464.07 299.223 2458.59 297.507 2453.19 295.459C2445.32 292.514 2437.68 288.728 2430.36 284.147C2423.25 279.687 2416.59 274.265 2410.5 267.989L2420.87 258.015C2426.83 263.767 2433.34 268.639 2440.27 272.526C2446.33 275.944 2452.6 278.796 2459.03 281.057C2474.33 286.523 2490.82 289.256 2508.47 289.256C2524.9 289.256 2538.89 287.142 2550.43 282.913C2556.7 280.705 2562.68 277.471 2568.2 273.302C2572.21 270.275 2575.87 266.641 2579.09 262.489C2585.43 254.456 2588.92 243.804 2588.85 232.758C2588.91 226.57 2588.11 220.414 2586.47 214.544C2583.77 205.314 2578.67 197.367 2571.9 191.879C2560.61 182.353 2543.79 177.59 2521.44 177.59ZM546.852 172.049V329.36H533.52V172.049C533.595 162.258 532.534 152.501 530.368 143.058C527.031 128.612 520.357 115.583 511.112 105.469C499.498 92.7593 484.908 84.6117 469.307 82.1224C464.078 81.2005 458.799 80.747 453.514 80.7657C443.6 80.6355 433.752 82.6953 424.464 86.8416C414.926 91.2504 406.271 98.0131 399.063 106.689C392.105 114.715 386.581 124.346 382.826 135.001C379.071 145.655 377.162 157.111 377.216 168.673C377.213 169.06 377.212 169.448 377.213 169.835C377.181 177.457 377.802 185.062 379.067 192.532C380.116 198.661 381.697 204.643 383.786 210.379C385.973 216.449 388.766 222.181 392.103 227.449C394.882 231.806 398.09 235.746 401.658 239.184C409.19 246.42 417.617 251.922 426.937 255.692C436.26 259.458 446.106 261.341 456.476 261.341C470.468 261.365 484.257 257.336 496.665 249.597V266.437C486.053 271.816 474.777 275.084 463.284 276.111C460.956 276.307 458.623 276.406 456.29 276.406C444.067 276.406 432.462 274.154 421.475 269.649C410.727 265.305 400.743 258.619 392.027 249.929C385.402 243.239 379.838 235.176 375.604 226.124C374.084 222.921 372.704 219.626 371.47 216.25C367.837 206.2 365.503 195.546 364.548 184.655C364.096 179.734 363.871 174.786 363.877 169.835C363.687 156.215 365.808 142.691 370.11 130.08C374.413 117.469 380.808 106.032 388.91 96.4614C389.176 96.1389 389.444 95.8182 389.714 95.4994C397.902 85.6307 407.664 77.8301 418.42 72.5601C429.177 67.2902 440.708 64.6582 452.33 64.8204C452.725 64.8149 453.119 64.8119 453.514 64.8113C462.972 64.742 472.399 66.1004 481.573 68.8544C488.405 70.9392 495.02 73.9314 501.296 77.7754C515.37 86.415 526.482 98.9329 534.631 115.329C541.025 128.341 544.981 142.858 546.226 157.878C546.649 162.585 546.858 167.316 546.852 172.049ZM1305.98 172.049V329.36H1292.65V172.049C1292.72 162.258 1291.66 152.501 1289.49 143.058C1286.16 128.612 1279.48 115.583 1270.24 105.469C1258.62 92.7593 1244.03 84.6117 1228.43 82.1224C1223.2 81.2005 1217.92 80.747 1212.64 80.7657C1202.73 80.6355 1192.88 82.6953 1183.59 86.8416C1174.05 91.251 1165.4 98.0136 1158.19 106.689C1151.24 114.715 1145.71 124.346 1141.96 135.001C1138.2 145.655 1136.29 157.111 1136.35 168.673C1136.34 169.06 1136.34 169.448 1136.34 169.835C1136.31 177.457 1136.93 185.062 1138.19 192.532C1139.24 198.662 1140.83 204.643 1142.92 210.379C1145.1 216.449 1147.9 222.181 1151.23 227.449C1154.01 231.806 1157.22 235.746 1160.79 239.184C1168.32 246.42 1176.74 251.922 1186.07 255.692C1195.39 259.458 1205.23 261.341 1215.61 261.341C1229.6 261.365 1243.38 257.335 1255.79 249.597V266.437C1245.18 271.816 1233.9 275.084 1222.41 276.111C1220.08 276.307 1217.75 276.406 1215.42 276.406C1203.2 276.406 1191.59 274.154 1180.6 269.649C1169.85 265.305 1159.87 258.619 1151.16 249.929C1144.53 243.24 1138.97 235.176 1134.73 226.124C1133.21 222.921 1131.83 219.625 1130.6 216.25C1126.96 206.2 1124.63 195.546 1123.67 184.655C1123.22 179.733 1123 174.786 1123.01 169.835C1122.82 156.215 1124.94 142.691 1129.24 130.08C1133.54 117.469 1139.94 106.032 1148.04 96.4614C1148.3 96.1389 1148.57 95.8183 1148.84 95.4994C1157.03 85.6307 1166.79 77.8301 1177.55 72.5601C1188.3 67.2902 1199.83 64.6582 1211.46 64.8204C1211.85 64.8149 1212.24 64.8119 1212.64 64.8113C1222.1 64.7417 1231.53 66.1001 1240.7 68.8544C1247.53 70.9395 1254.15 73.9317 1260.42 77.7754C1274.5 86.415 1285.61 98.9329 1293.76 115.329C1300.15 128.341 1304.11 142.858 1305.35 157.878C1305.78 162.585 1305.99 167.315 1305.98 172.049ZM107.563 329.36L2 10.3053H16.447L114.785 307.87L213.126 10.3053H227.387L122.01 329.36H107.563ZM1745.64 329.36V10.3053H1758.97V249.597H1857.32V265.547H1758.97V281.502H1857.32V297.456H1758.97V313.406H1857.32V329.36H1745.64ZM733.905 192.877V176.923H814.279C819.373 176.985 824.434 175.94 829.215 173.837C833.68 171.813 837.786 168.8 841.318 164.957C846.574 159.252 850.132 151.654 851.453 143.312C852.125 139.354 852.453 135.323 852.431 131.283C852.418 123.258 850.121 115.477 845.919 109.221C844.393 106.876 842.699 104.694 840.856 102.701C833.692 94.5438 824.169 90.0185 814.279 90.0724H699.826V329.36H686.494V74.118H814.279C827.984 74.118 839.991 79.8793 850.3 91.4019C854.218 95.6943 857.57 100.673 860.241 106.167C863.902 113.81 865.807 122.475 865.763 131.283C865.816 137.997 865.077 144.687 863.567 151.153C861.305 160.736 856.873 169.386 850.763 176.147C840.762 187.3 828.601 192.877 814.279 192.877H733.905ZM1552.29 127.295H1468.03V143.244H1552.29C1556.13 143.293 1559.95 142.521 1563.57 140.966C1567.15 139.376 1570.43 136.95 1573.22 133.829C1577.75 128.818 1580.64 122.051 1581.38 114.73C1581.63 112.652 1581.75 110.557 1581.74 108.459C1581.75 100.603 1579.32 93.0223 1574.93 87.1819C1574.27 86.2638 1573.58 85.3797 1572.85 84.5319C1570.22 81.382 1567.14 78.8217 1563.75 76.9722C1560.14 75.0591 1556.24 74.0862 1552.29 74.118H1445.62V329.36H1458.96V90.0724H1552.29C1556.13 90.0633 1559.84 91.7597 1562.69 94.8324C1562.96 95.12 1563.23 95.4166 1563.5 95.7217C1564.7 97.0805 1565.74 98.6356 1566.58 100.341C1567.78 102.803 1568.41 105.606 1568.41 108.459C1568.42 110.374 1568.24 112.285 1567.87 114.149C1567.26 117.349 1565.83 120.24 1563.78 122.417C1561.16 125.168 1557.86 126.836 1554.38 127.172C1553.69 127.254 1552.99 127.295 1552.29 127.295ZM506.849 329.36V172.049C506.893 165.995 506.313 159.956 505.123 154.071C503.153 144.057 498.647 135.015 492.22 128.179C482.467 117.84 469.565 112.67 453.514 112.67C447.036 112.551 440.604 113.979 434.593 116.871C428.583 119.762 423.115 124.059 418.509 129.509C413.786 134.818 410.014 141.22 407.423 148.327C405.031 155.133 403.826 162.452 403.88 169.835C403.867 174.051 404.114 178.263 404.62 182.436C405.082 186.246 405.826 190 406.842 193.653C407.739 196.883 408.868 200.015 410.214 203.014C411.52 205.926 413.091 208.656 414.898 211.155C418.328 215.84 422.439 219.743 427.032 222.676C431.656 225.675 436.612 227.876 441.752 229.214C445.693 230.222 449.696 230.845 453.722 231.075C455.195 231.164 456.67 231.207 458.145 231.206C472.219 231.206 485.059 227.071 496.665 218.801V234.75C484.69 242.286 471.788 246.054 457.959 246.054C451.531 246.084 445.121 245.268 438.843 243.621C436.83 243.085 434.836 242.454 432.865 241.729C425.144 238.923 417.901 234.498 411.473 228.661C406.843 224.405 402.918 219.152 399.898 213.174C398.508 210.46 397.272 207.639 396.196 204.729C393.837 198.295 392.226 191.504 391.409 184.546C390.822 179.674 390.533 174.757 390.544 169.835C390.412 158.08 392.703 146.468 397.216 136.025C400.183 129.353 403.993 123.269 408.511 117.988C420.487 103.806 435.487 96.7155 453.514 96.7155C460.641 96.648 467.749 97.6356 474.674 99.6559C484.755 102.564 494.066 108.447 501.759 116.767C510.975 126.85 517.053 140.379 518.997 155.138C519.808 160.722 520.206 166.381 520.184 172.049V329.36H506.849ZM1265.98 329.36V172.049C1266.02 165.994 1265.44 159.956 1264.25 154.071C1262.28 144.057 1257.77 135.015 1251.35 128.179C1241.59 117.84 1228.69 112.67 1212.64 112.67C1206.16 112.552 1199.73 113.98 1193.72 116.872C1187.71 119.763 1182.24 124.059 1177.64 129.509C1172.92 134.818 1169.14 141.22 1166.55 148.327C1164.16 155.133 1162.96 162.452 1163.01 169.835C1163 174.051 1163.24 178.263 1163.75 182.436C1164.21 186.246 1164.96 190 1165.97 193.653C1166.87 196.883 1167.99 200.015 1169.34 203.014C1170.65 205.926 1172.22 208.656 1174.03 211.155C1177.46 215.839 1181.57 219.743 1186.16 222.676C1190.78 225.675 1195.74 227.877 1200.88 229.214C1204.82 230.222 1208.83 230.845 1212.85 231.075C1214.32 231.164 1215.8 231.207 1217.27 231.206C1231.35 231.206 1244.19 227.071 1255.79 218.801V234.75C1243.82 242.286 1230.91 246.054 1217.08 246.054C1210.66 246.084 1204.25 245.268 1197.97 243.621C1195.96 243.085 1193.96 242.454 1191.99 241.729C1184.27 238.923 1177.03 234.498 1170.6 228.661C1165.97 224.404 1162.05 219.152 1159.03 213.174C1157.64 210.461 1156.4 207.639 1155.32 204.729C1152.96 198.295 1151.35 191.504 1150.54 184.546C1149.95 179.674 1149.66 174.757 1149.67 169.835C1149.54 158.08 1151.83 146.468 1156.35 136.025C1159.31 129.354 1163.12 123.27 1167.64 117.988C1179.62 103.806 1194.62 96.7155 1212.64 96.7155C1219.77 96.648 1226.87 97.6356 1233.8 99.6559C1243.88 102.564 1253.19 108.447 1260.88 116.767C1270.1 126.85 1276.18 140.379 1278.12 155.138C1278.94 160.722 1279.33 166.381 1279.31 172.049V329.36H1265.98ZM726.497 121.976V329.36H713.161V106.022H814.279C817.441 105.987 820.585 106.576 823.587 107.765C826.63 109.001 829.444 110.93 831.874 113.446C833.702 115.285 835.27 117.465 836.517 119.903C838.236 123.339 839.129 127.278 839.096 131.283C839.144 135.248 838.73 139.202 837.867 143.031C835.763 151.813 830.964 157.372 823.469 159.707C820.463 160.593 817.375 161.018 814.279 160.973H733.905V145.019H814.279C820.353 145.019 824.017 142.136 825.271 136.37C825.614 134.706 825.78 132.997 825.764 131.283C825.758 129.66 825.261 128.095 824.364 126.877C823.838 126.124 823.162 125.413 822.335 124.744C820.052 122.899 817.366 121.976 814.279 121.976H726.497ZM193.68 329.36L299.057 10.3053H313.504L207.941 329.36H193.68ZM136.267 329.36L241.648 10.3053H256.091L150.528 329.36H136.267ZM164.975 329.36L270.538 10.3053H284.799L179.237 329.36H164.975ZM1028.55 329.36V10.3053H1041.89V329.36H1028.55ZM1001.89 329.36V10.3053H1015.22V329.36H1001.89ZM975.218 329.36V10.3053H988.55V329.36H975.218ZM948.55 329.36V10.3053H961.882V329.36H948.55ZM1665.64 329.36V10.3053H1678.97V329.36H1665.64ZM1718.97 329.36V10.3053H1732.31V329.36H1718.97ZM1692.3 329.36V10.3053H1705.64V329.36H1692.3ZM1953.43 10.3053V329.36H1940.1V10.3053H1953.43ZM1926.77 10.3053V329.36H1913.43V10.3053H1926.77ZM1900.1 10.3053V329.36H1886.76V10.3053H1900.1ZM1552.29 247.823H1468.03V263.778H1552.29C1556.14 263.867 1559.96 263.041 1563.54 261.348C1567.11 259.656 1570.37 257.13 1573.13 253.917C1577.55 248.833 1580.41 242.122 1581.27 234.859C1581.59 232.405 1581.75 229.924 1581.74 227.44C1581.77 218.234 1578.78 209.382 1573.42 202.783C1573.23 202.543 1573.04 202.305 1572.85 202.07C1570.49 199.092 1567.73 196.593 1564.7 194.669C1560.87 192.292 1556.61 191.068 1552.29 191.103H1467.85V207.057H1552.29C1555.74 207.058 1559.08 208.54 1561.69 211.232C1562.33 211.863 1562.93 212.54 1563.5 213.26C1565 215.122 1566.22 217.288 1567.09 219.658C1567.97 222.117 1568.42 224.766 1568.41 227.44C1568.42 229.473 1568.25 231.502 1567.89 233.489C1567.36 236.26 1566.45 238.657 1565.15 240.681C1564.73 241.329 1564.27 241.939 1563.78 242.505C1560.87 245.864 1557 247.762 1552.96 247.81C1552.74 247.818 1552.52 247.823 1552.29 247.823ZM116.453 269.981L30.7044 10.3053H44.9655L124.047 249.597L116.453 269.981ZM131.268 227.885L59.4125 10.3053H73.8557L138.308 205.95L131.268 227.885ZM145.344 184.015L88.1169 10.3053H102.378L152.379 161.635L145.344 184.015Z" stroke="#CFCFCF" stroke-width="2" stroke-linecap="round"/>
        </mask>
        <g mask="url(#mask0)">
            <rect width="2905.98" height="642.409" transform="matrix(0.998124 0.0612288 -0.0427397 0.999086 -129.46 -219.521)" fill="#C87EF6"/>
        </g>
    </g>
    <mask id="mask1" mask-type="alpha" maskUnits="userSpaceOnUse" x="19" y="26" width="2614" height="288">
        <path fill-rule="evenodd" clip-rule="evenodd" d="M1981.03 202.991V236.074H2107.08V249.231H1981.03V262.392H2107.08V275.553H1981.03V288.711H2107.08V301.872H1967.86V38.6761H2107.08V51.8372H1981.03V64.9983H2107.08V78.1557H1981.03V91.3168H2107.08V104.478L1981.03 104.478V137.193H2099.77V150.351H1981.03V163.512H2099.77V176.673H1981.03V189.83H2099.77V202.991H1981.03ZM749.999 241.921V228.763H829.396C845.617 228.763 860.618 224.864 874.401 217.066C888.182 209.268 899.188 198.422 907.421 184.53C915.654 170.64 919.77 155.288 919.77 138.474C919.794 123.32 915.547 108.465 907.515 95.6102C899.377 82.3016 887.939 71.3166 874.308 63.7181C860.645 55.8776 845.152 51.7792 829.396 51.8372H663.649V301.872H650.475V38.6761H829.396C843.075 38.6554 856.614 41.4232 869.186 46.8101C878.699 50.7987 887.605 56.1022 895.641 62.5652C897.914 64.407 900.105 66.3466 902.209 68.3784C911.479 77.3347 918.918 87.9666 924.529 100.274C930.066 112.249 932.937 125.282 932.944 138.474C933.012 148.497 931.802 158.488 929.343 168.206C926.984 177.407 923.265 186.205 918.309 194.311C908.906 209.885 895.265 222.467 878.976 230.59L906.601 301.872H892.513L866.35 235.89C864.814 236.4 863.269 236.881 861.715 237.332C860.121 237.793 858.432 238.255 856.646 238.717C856.039 238.874 855.432 239.029 854.825 239.181L879.523 301.872H865.435L841.288 241.374C838.356 241.654 835.416 241.825 832.472 241.887C831.447 241.91 830.421 241.921 829.396 241.921L852.629 301.872H838.725L815.675 241.921H803.783L825.919 301.872H812.015L789.696 241.921H749.999ZM1606.73 168.812L1606.36 168.629C1612.87 162.51 1618.05 155.13 1621.61 146.94C1625.16 138.75 1627 129.922 1627.03 120.997C1627.03 120.546 1627.04 120.096 1627.04 119.645C1627.1 110.89 1625.38 102.214 1621.98 94.1424C1618.59 86.0706 1613.59 78.7714 1607.29 72.6869C1607.07 72.4686 1606.85 72.2514 1606.64 72.0355C1599.89 65.1986 1591.8 59.8327 1582.87 56.2767C1575.08 53.2819 1566.79 51.7761 1558.43 51.8372H1413.54V301.872H1400.37V38.6761H1558.43C1572.82 38.6761 1586.33 42.3632 1598.96 49.7373C1611.58 57.1089 1621.61 67.0396 1629.05 79.5294C1636.38 91.6267 1640.24 105.504 1640.21 119.645C1640.28 128.579 1639.04 137.474 1636.52 146.046C1633.94 154.646 1629.86 162.724 1624.47 169.909C1634.75 183.759 1640.27 200.556 1640.21 217.796C1640.26 226.092 1639.22 234.359 1637.1 242.381C1635.26 249.243 1632.49 255.822 1628.87 261.936C1624.21 269.929 1618.16 277.028 1611.01 282.901C1607.32 285.892 1603.34 288.511 1599.14 290.721C1587.83 296.627 1575.33 299.91 1562.58 300.326C1561.2 300.382 1559.82 300.409 1558.43 300.408H1475.19V287.251H1558.43C1577.21 287.251 1593.34 280.579 1606.82 267.236C1613.3 260.937 1618.44 253.387 1621.91 245.047C1625.38 236.706 1627.13 227.747 1627.03 218.713C1627.03 218.407 1627.04 218.101 1627.04 217.796C1627.04 208.78 1625.08 199.885 1621.18 191.11C1617.28 182.336 1612.4 174.965 1606.55 168.996C1606.55 168.873 1606.61 168.812 1606.73 168.812ZM617.913 172.103V301.872H604.739V172.103C604.841 158.224 602.83 144.411 598.774 131.137C595.981 122.171 592.151 113.561 587.362 105.481C575.775 85.9241 559.98 70.8153 539.977 60.1546C522.265 50.8071 502.719 45.445 482.713 44.4444C479.485 44.2545 476.253 44.1596 473.02 44.1599C450.24 43.9285 427.814 49.7979 408.074 61.1578C388.439 72.4897 373.01 87.8131 361.787 107.128C350.608 126.287 344.795 148.099 344.957 170.276C344.881 184.812 347.326 199.251 352.185 212.952C355.325 221.86 359.501 230.37 364.627 238.305C366.872 241.751 369.314 245.064 371.941 248.228C380.269 258.257 390.005 267.029 400.847 274.273C411.712 281.56 423.616 287.167 436.156 290.904C448.646 294.662 461.62 296.572 474.665 296.571C488.742 296.635 502.685 293.837 515.646 288.348V301.872C502.108 306.623 488.204 308.999 473.934 308.999C459.347 309.024 444.835 306.931 430.851 302.785C416.885 298.643 403.958 292.52 392.068 284.417C380.176 276.314 369.718 266.749 360.693 255.722C351.666 244.694 344.591 231.809 339.468 217.066C334.315 202.072 331.719 186.32 331.788 170.467C331.787 170.403 331.787 170.339 331.788 170.276C331.717 151.74 335.355 133.377 342.488 116.265C348.848 100.728 357.991 86.4804 369.468 74.2216C370.223 73.4223 370.987 72.6324 371.761 71.8521C382.499 61.1055 394.989 52.2627 408.696 45.7021C411.35 44.4125 414.04 43.1979 416.763 42.06C434.387 34.6884 453.14 31.0026 473.02 31.0026C490.038 30.9065 506.961 33.5286 523.151 38.7697C525.486 39.5351 527.802 40.3576 530.097 41.2365C542.97 46.0871 555.078 52.7635 566.047 61.0605C569.575 63.7531 572.964 66.6229 576.201 69.6586C587.667 80.5005 597.006 93.3857 603.739 107.652C604.798 109.858 605.802 112.09 606.751 114.345C614.192 132.013 617.913 151.265 617.913 172.103ZM1367.8 172.103V301.872H1354.63V172.103C1354.73 158.224 1352.72 144.411 1348.66 131.137C1345.87 122.171 1342.04 113.561 1337.25 105.481C1325.66 85.9241 1309.87 70.8153 1289.87 60.1546C1272.16 50.8071 1252.61 45.445 1232.61 44.4444C1229.38 44.2544 1226.14 44.1595 1222.91 44.1599C1200.13 43.9285 1177.7 49.7979 1157.96 61.1578C1138.33 72.4897 1122.9 87.8131 1111.68 107.128C1100.5 126.287 1094.69 148.099 1094.85 170.276C1094.77 184.811 1097.22 199.25 1102.07 212.952C1105.22 221.861 1109.39 230.37 1114.52 238.305C1116.76 241.751 1119.21 245.064 1121.83 248.228C1130.16 258.257 1139.9 267.029 1150.74 274.273C1161.61 281.56 1173.51 287.167 1186.05 290.904C1198.54 294.662 1211.51 296.572 1224.56 296.571C1238.63 296.635 1252.58 293.837 1265.54 288.348V301.872C1252 306.623 1238.09 308.999 1223.83 308.999C1209.24 309.024 1194.73 306.931 1180.74 302.785C1166.78 298.643 1153.85 292.52 1141.96 284.417C1130.07 276.314 1119.61 266.749 1110.58 255.722C1101.56 244.694 1094.48 231.809 1089.36 217.066C1084.21 202.072 1081.61 186.32 1081.68 170.467C1081.68 170.403 1081.68 170.339 1081.68 170.276C1081.61 151.74 1085.25 133.377 1092.38 116.265C1098.74 100.728 1107.88 86.4804 1119.36 74.2216C1120.11 73.4223 1120.88 72.6324 1121.65 71.8521C1132.39 61.1055 1144.88 52.2627 1158.59 45.7021C1161.24 44.4124 1163.93 43.1979 1166.66 42.06C1184.28 34.6884 1203.03 31.0026 1222.91 31.0026C1239.93 30.9061 1256.85 33.5282 1273.04 38.7697C1275.38 39.5351 1277.7 40.3576 1279.99 41.2365C1292.86 46.0871 1304.97 52.7635 1315.94 61.0605C1319.47 63.7531 1322.86 66.6229 1326.09 69.6586C1337.56 80.5008 1346.9 93.386 1353.63 107.652C1354.69 109.858 1355.69 112.09 1356.64 114.345C1364.08 132.013 1367.8 151.265 1367.8 172.103ZM1558.43 260.929H1475.19V274.09H1558.43C1565.64 274.18 1572.79 272.816 1579.46 270.08C1586.13 267.344 1592.17 263.292 1597.24 258.166C1597.32 258.083 1597.41 257.999 1597.49 257.915C1602.74 252.816 1606.89 246.705 1609.71 239.953C1612.52 233.2 1613.93 225.948 1613.86 218.634C1613.86 218.355 1613.86 218.075 1613.86 217.796C1613.87 207.69 1611.05 197.783 1605.72 189.19C1600.55 180.477 1593.12 173.312 1584.23 168.445C1593.05 163.891 1600.47 157.04 1605.72 148.618C1611 140.238 1613.82 130.548 1613.86 120.648C1613.86 120.314 1613.86 119.98 1613.86 119.645C1613.9 112.72 1612.54 105.858 1609.88 99.4636C1607.21 93.0696 1603.3 87.2729 1598.36 82.4154C1598.01 82.0585 1597.66 81.7054 1597.31 81.3561C1592.02 76.0093 1585.72 71.7637 1578.78 68.865C1572.31 66.26 1565.4 64.9463 1558.43 64.9983H1426.71V301.872H1439.89V78.1557H1558.43C1569.65 78.1557 1579.5 82.3293 1587.98 90.6767C1591.56 94.1323 1594.53 98.165 1596.78 102.606C1599.39 107.904 1600.73 113.739 1600.69 119.645C1600.75 124.833 1599.88 129.99 1598.14 134.876C1596.05 140.525 1592.66 145.607 1588.25 149.714C1584.3 153.543 1579.63 156.556 1574.52 158.578C1569.4 160.601 1563.93 161.595 1558.43 161.502H1518.18H1475.19V174.663H1518.18H1558.43C1568.69 174.629 1578.57 178.583 1585.97 185.69C1586.65 186.321 1587.32 186.97 1587.98 187.637C1591.95 191.608 1595.15 196.286 1597.41 201.43C1599.61 206.604 1600.73 212.174 1600.69 217.796C1600.74 222.815 1600 227.811 1598.48 232.596C1596.47 238.78 1592.95 244.37 1588.25 248.868C1584.34 252.769 1579.69 255.847 1574.56 257.918C1569.44 259.99 1563.96 261.014 1558.43 260.929ZM591.57 172.103V301.872H578.396V172.103C578.468 161.649 577.077 151.237 574.263 141.169C572.018 133.276 568.764 125.704 564.582 118.642C555.375 103.105 542.782 91.1945 526.804 82.9095C513.554 76.1154 499.075 72.0437 484.222 70.935C480.496 70.6296 476.759 70.4785 473.02 70.4821C454.116 70.4821 436.859 74.959 421.248 83.9127C405.995 92.5143 393.329 105.043 384.567 120.196C375.725 135.425 371.304 152.119 371.304 170.276C371.304 185.873 374.169 200.098 379.899 212.952C383.196 220.46 387.462 227.505 392.589 233.907C395.736 237.805 399.235 241.406 403.042 244.664C412.739 252.949 423.777 259.376 436.156 263.946C448.602 268.527 461.768 270.848 475.032 270.8C489.017 270.757 502.843 267.832 515.646 262.209V275.553C507.122 278.811 498.259 281.106 489.224 282.396C484.4 283.068 479.535 283.407 474.665 283.41C454.383 283.612 434.377 278.71 416.489 269.156C398.941 259.781 384.271 245.82 374.047 228.763C363.722 211.726 358.226 192.206 358.146 172.29C358.135 171.618 358.13 170.947 358.131 170.276C358.073 155.203 361.092 140.277 367.003 126.409C372.277 113.802 379.793 102.252 389.187 92.3199C389.804 91.6734 390.428 91.0345 391.06 90.4034C400.121 81.424 410.667 74.0777 422.233 68.6891C424.02 67.8441 425.827 67.0404 427.651 66.2785C442.021 60.2875 457.449 57.2414 473.02 57.321C495.34 57.321 515.495 62.0736 533.484 71.5789C551.206 80.828 565.95 94.8927 576.017 112.151C584.698 126.988 589.861 143.616 591.109 160.757C591.418 164.531 591.572 168.316 591.57 172.103ZM1341.46 172.103V301.872H1328.29V172.103C1328.36 161.649 1326.97 151.237 1324.16 141.169C1321.91 133.276 1318.66 125.704 1314.48 118.642C1305.27 103.105 1292.67 91.1945 1276.7 82.9095C1263.45 76.115 1248.97 72.0432 1234.11 70.935C1230.39 70.6296 1226.65 70.4785 1222.91 70.4821C1204.01 70.4821 1186.75 74.959 1171.14 83.9127C1155.88 92.5143 1143.22 105.043 1134.46 120.196C1125.61 135.425 1121.19 152.119 1121.19 170.276C1121.19 185.873 1124.06 200.098 1129.79 212.952C1133.09 220.46 1137.35 227.505 1142.48 233.907C1145.63 237.805 1149.13 241.406 1152.94 244.664C1162.63 252.949 1173.67 259.376 1186.05 263.946C1198.5 268.527 1211.66 270.848 1224.92 270.8C1238.91 270.756 1252.73 267.832 1265.54 262.209V275.553C1257.01 278.81 1248.15 281.106 1239.12 282.396C1234.29 283.068 1229.43 283.407 1224.56 283.41C1204.28 283.612 1184.27 278.71 1166.38 269.156C1148.83 259.782 1134.16 245.82 1123.94 228.763C1113.61 211.726 1108.12 192.206 1108.04 172.29C1108.03 171.618 1108.02 170.947 1108.02 170.276C1107.96 155.203 1110.98 140.277 1116.9 126.409C1122.17 113.802 1129.68 102.252 1139.08 92.3199C1139.69 91.6734 1140.32 91.0345 1140.95 90.4034C1150.01 81.4237 1160.56 74.0773 1172.13 68.6891C1173.91 67.8442 1175.72 67.0404 1177.54 66.2785C1191.91 60.2875 1207.34 57.2414 1222.91 57.321C1245.23 57.321 1265.38 62.0736 1283.37 71.5789C1301.1 80.8274 1315.84 94.8922 1325.91 112.151C1334.59 126.989 1339.75 143.616 1341 160.757C1341.31 164.531 1341.46 168.316 1341.46 172.103ZM749.999 215.602V202.441H829.396C837.738 202.582 846.026 201.071 853.782 197.997C861.538 194.923 868.608 190.346 874.585 184.53C886.057 173.7 892.784 158.782 893.3 143.022C893.385 141.507 893.427 139.991 893.427 138.474C893.453 124.566 888.198 111.166 878.721 100.978C877.287 99.3695 875.785 97.8234 874.218 96.3439C861.411 84.2184 846.471 78.1557 829.396 78.1557H689.992V301.872H676.822V64.9983H829.396C839.432 64.9054 849.387 66.8045 858.682 70.5853C867.978 74.3662 876.43 79.9536 883.547 87.0233C898.916 101.704 906.601 118.854 906.601 138.474C906.723 148.975 904.725 159.392 900.726 169.104C896.801 178.291 891.051 186.586 883.824 193.487C876.697 200.627 868.206 206.264 858.856 210.063C849.506 213.862 839.488 215.745 829.396 215.602H749.999ZM2259.84 150.351H2238.99C2232.92 150.391 2226.85 150.012 2220.83 149.217C2207.12 147.3 2197.41 142.962 2191.69 136.201C2187.51 131.079 2185.33 124.61 2185.57 118.002C2185.57 108.654 2190.64 100.903 2200.79 94.7493C2201.23 94.4823 2201.68 94.2215 2202.12 93.967C2206.23 91.697 2210.59 89.9299 2215.12 88.704C2223.53 86.3258 2233.74 84.9695 2245.75 84.6352C2247.77 84.5797 2249.78 84.5522 2251.79 84.5528C2267.28 84.5528 2281.67 86.3508 2294.97 89.9468C2307.56 93.3506 2318.08 98.1494 2326.51 104.343C2326.98 104.687 2327.44 105.036 2327.9 105.391L2317.47 113.432C2302.23 102.953 2280.33 97.7139 2251.79 97.7139C2247.52 97.7059 2243.25 97.8245 2238.99 98.0695C2230.02 98.6035 2222.61 99.7415 2216.76 101.483C2214.99 102.005 2213.24 102.639 2211.55 103.381C2207.3 105.26 2204.11 107.41 2201.97 109.831C2199.91 112.052 2198.75 114.969 2198.74 118.002C2198.74 124.545 2201.39 129.304 2206.69 132.279C2207.03 132.464 2207.36 132.64 2207.7 132.806C2209.59 133.697 2211.57 134.39 2213.6 134.876C2217.76 135.927 2223 136.619 2229.32 136.954C2232.54 137.119 2235.76 137.199 2238.99 137.193H2259.84C2269.96 137.134 2280.06 137.928 2290.04 139.567C2300.95 141.426 2310.76 144.382 2319.47 148.434C2326.25 151.552 2332.59 155.547 2338.33 160.315C2346.48 167.013 2353.12 175.348 2357.84 184.778C2362.56 194.208 2365.24 204.524 2365.71 215.056C2365.87 217.428 2365.95 219.805 2365.95 222.183C2365.95 234.001 2363.33 245.09 2358.08 255.449C2353.4 264.606 2347.02 272.792 2339.28 279.574C2338.04 280.672 2336.78 281.738 2335.49 282.77C2330.3 286.879 2324.68 290.418 2318.73 293.326C2313.25 296.046 2307.24 298.451 2300.72 300.539C2299.78 300.84 2298.84 301.132 2297.9 301.415C2288.44 304.209 2278.74 306.125 2268.93 307.139C2261.66 307.906 2254.35 308.283 2247.04 308.269C2230.4 308.345 2213.81 306.408 2197.64 302.501C2192.02 301.121 2186.46 299.479 2180.99 297.578C2170.77 294.078 2160.93 289.547 2151.63 284.054C2143.77 279.4 2136.44 273.915 2129.77 267.693L2140.38 259.832C2148.49 267.066 2157.57 273.142 2167.35 277.889C2173.72 281.008 2180.29 283.678 2187.03 285.881C2203.08 291.107 2219.77 294.128 2236.64 294.861C2240.1 295.027 2243.57 295.109 2247.04 295.108C2270.29 295.108 2290.01 291.645 2306.21 284.72C2312.73 281.966 2318.9 278.46 2324.6 274.273C2330.92 269.709 2336.5 264.223 2341.18 257.998C2348.86 247.647 2352.94 235.067 2352.78 222.183C2352.88 213.814 2351.53 205.491 2348.8 197.579C2344.84 186.579 2337.85 176.922 2328.63 169.726C2315.83 159.459 2298.72 153.273 2277.29 151.167C2271.49 150.61 2265.67 150.338 2259.84 150.351ZM2515.78 150.351H2494.93C2488.86 150.391 2482.79 150.012 2476.77 149.217C2463.06 147.3 2453.35 142.962 2447.63 136.201C2443.45 131.079 2441.27 124.61 2441.51 118.002C2441.51 108.654 2446.58 100.903 2456.73 94.7493C2457.17 94.4823 2457.62 94.2215 2458.07 93.967C2462.17 91.6973 2466.53 89.9302 2471.06 88.704C2479.47 86.3258 2489.68 84.9695 2501.69 84.6352C2503.7 84.5797 2505.72 84.5522 2507.73 84.5528C2523.22 84.5528 2537.62 86.3508 2550.91 89.9468C2563.5 93.3506 2574.01 98.1494 2582.45 104.343C2582.92 104.687 2583.38 105.036 2583.84 105.391L2573.41 113.432C2558.16 102.953 2536.27 97.7139 2507.73 97.7139C2503.46 97.7059 2499.19 97.8245 2494.93 98.0695C2485.96 98.6035 2478.55 99.7415 2472.7 101.483C2470.92 102.005 2469.18 102.639 2467.48 103.381C2463.24 105.26 2460.05 107.41 2457.91 109.831C2455.84 112.052 2454.69 114.969 2454.68 118.002C2454.68 124.545 2457.33 129.304 2462.64 132.279C2462.97 132.464 2463.3 132.64 2463.64 132.806C2465.53 133.697 2467.51 134.39 2469.55 134.876C2473.7 135.927 2478.94 136.619 2485.26 136.954C2488.48 137.119 2491.7 137.199 2494.93 137.193H2515.78C2525.9 137.134 2536 137.928 2545.98 139.567C2556.89 141.426 2566.7 144.382 2575.42 148.434C2582.19 151.552 2588.53 155.547 2594.27 160.315C2602.41 167.013 2609.06 175.348 2613.78 184.778C2618.5 194.208 2621.18 204.524 2621.65 215.056C2621.81 217.428 2621.89 219.805 2621.89 222.183C2621.89 234.001 2619.27 245.09 2614.03 255.449C2609.34 264.606 2602.96 272.792 2595.22 279.574C2593.99 280.672 2592.72 281.738 2591.43 282.77C2586.24 286.879 2580.62 290.418 2574.67 293.326C2569.18 296.046 2563.18 298.451 2556.66 300.539C2555.72 300.84 2554.78 301.132 2553.83 301.415C2544.38 304.209 2534.68 306.125 2524.87 307.139C2517.6 307.906 2510.29 308.283 2502.98 308.269C2486.34 308.345 2469.75 306.408 2453.58 302.501C2447.96 301.121 2442.4 299.479 2436.93 297.578C2426.71 294.078 2416.87 289.547 2407.56 284.054C2399.71 279.4 2392.38 273.915 2385.71 267.693L2396.32 259.832C2404.43 267.066 2413.51 273.142 2423.29 277.889C2429.65 281.008 2436.23 283.678 2442.97 285.881C2459.02 291.107 2475.71 294.128 2492.58 294.861C2496.04 295.027 2499.51 295.109 2502.98 295.108C2526.23 295.108 2545.95 291.645 2562.15 284.72C2568.67 281.966 2574.84 278.46 2580.55 274.273C2586.86 269.709 2592.44 264.223 2597.12 257.998C2604.8 247.647 2608.88 235.067 2608.72 222.183C2608.82 213.814 2607.47 205.491 2604.74 197.579C2600.78 186.579 2593.79 176.922 2584.57 169.726C2571.77 159.459 2554.66 153.273 2533.23 151.167C2527.43 150.61 2521.61 150.338 2515.78 150.351ZM2259.84 202.991H2238.99C2228.87 203.051 2218.77 202.257 2208.79 200.618C2197.88 198.757 2188.06 195.799 2179.35 191.747C2172.58 188.63 2166.24 184.637 2160.51 179.87C2152.36 173.172 2145.71 164.837 2140.99 155.407C2136.27 145.977 2133.59 135.661 2133.12 125.129C2132.96 122.757 2132.88 120.38 2132.88 118.002C2132.88 106.184 2135.5 95.0949 2140.74 84.7362C2145.43 75.5792 2151.81 67.3929 2159.55 60.6113C2160.78 59.512 2162.05 58.4448 2163.34 57.4109C2168.53 53.3032 2174.15 49.7655 2180.1 46.8588C2185.58 44.1387 2191.59 41.7343 2198.11 39.6456C2199.05 39.3448 2199.99 39.0528 2200.94 38.7697C2210.39 35.976 2220.09 34.06 2229.9 33.0464C2237.17 32.2792 2244.48 31.9018 2251.79 31.9159C2268.43 31.8388 2285.02 33.7744 2301.19 37.6804C2306.81 39.0611 2312.37 40.7049 2317.84 42.6065C2328.06 46.1068 2337.9 50.6382 2347.2 56.1307C2355.06 60.7846 2362.39 66.27 2369.06 72.4922L2358.45 80.3492C2350.34 73.1166 2341.26 67.0411 2331.48 62.2957C2325.11 59.1773 2318.54 56.5069 2311.8 54.304C2295.75 49.0783 2279.06 46.0573 2262.19 45.3241C2258.73 45.1568 2255.26 45.0732 2251.79 45.0733C2228.54 45.0733 2208.82 48.5357 2192.62 55.4606C2186.1 58.2163 2179.93 61.7238 2174.23 65.9117C2167.91 70.4745 2162.33 75.9598 2157.65 82.1834C2149.97 92.535 2145.89 105.117 2146.05 118.002C2145.95 126.371 2147.3 134.694 2150.03 142.606C2153.99 153.606 2160.98 163.262 2170.2 170.459C2183 180.726 2200.11 186.912 2221.54 189.018C2227.34 189.573 2233.16 189.844 2238.99 189.83H2259.11C2265.26 189.791 2271.41 190.172 2277.51 190.968C2291.14 192.847 2300.87 197.055 2306.71 203.59C2311.17 208.736 2313.51 215.38 2313.26 222.183C2313.26 231.531 2308.19 239.282 2298.04 245.436C2297.6 245.703 2297.15 245.963 2296.71 246.218C2292.6 248.488 2288.24 250.255 2283.71 251.481C2275.3 253.859 2265.08 255.215 2253.08 255.55C2251.06 255.604 2249.05 255.63 2247.04 255.628C2231.55 255.628 2217.16 253.832 2203.86 250.238C2191.27 246.834 2180.75 242.035 2172.32 235.842C2171.85 235.498 2171.39 235.149 2170.93 234.794L2181.36 226.753C2196.61 237.232 2218.5 242.471 2247.04 242.471C2251.31 242.479 2255.58 242.36 2259.84 242.115C2268.81 241.581 2276.22 240.443 2282.07 238.702C2283.84 238.18 2285.59 237.546 2287.28 236.804C2291.53 234.925 2294.72 232.774 2296.86 230.35C2298.92 228.13 2300.08 225.214 2300.09 222.183C2300.09 215.64 2297.44 210.881 2292.13 207.906C2291.8 207.721 2291.47 207.545 2291.13 207.378C2289.24 206.488 2287.26 205.794 2285.23 205.308C2281.07 204.258 2275.83 203.564 2269.51 203.227C2266.29 203.063 2263.07 202.985 2259.84 202.991ZM2515.78 202.991H2494.93C2484.81 203.051 2474.71 202.257 2464.73 200.618C2453.82 198.757 2444.01 195.799 2435.29 191.747C2428.52 188.63 2422.18 184.637 2416.44 179.87C2408.29 173.171 2401.65 164.837 2396.93 155.407C2392.21 145.976 2389.53 135.661 2389.06 125.129C2388.9 122.757 2388.82 120.38 2388.82 118.002C2388.82 106.184 2391.44 95.0949 2396.69 84.7362C2401.37 75.5795 2407.75 67.3932 2415.49 60.6113C2416.72 59.5119 2417.99 58.4447 2419.28 57.4109C2424.47 53.3032 2430.09 49.7655 2436.04 46.8588C2441.52 44.1387 2447.53 41.7343 2454.05 39.6456C2454.99 39.3448 2455.93 39.0528 2456.87 38.7697C2466.33 35.976 2476.03 34.06 2485.84 33.0464C2493.11 32.2792 2500.42 31.9018 2507.73 31.9159C2524.37 31.8388 2540.95 33.7744 2557.12 37.6804C2562.75 39.0611 2568.31 40.7049 2573.77 42.6065C2584 46.1066 2593.84 50.638 2603.15 56.1307C2611 60.7848 2618.32 66.2703 2625 72.4922L2614.39 80.3492C2606.28 73.1169 2597.2 67.0414 2587.42 62.2957C2581.05 59.1773 2574.48 56.5069 2567.74 54.304C2551.69 49.0779 2535 46.0569 2518.13 45.3241C2514.67 45.1568 2511.2 45.0732 2507.73 45.0733C2484.48 45.0733 2464.76 48.5357 2448.56 55.4606C2442.04 58.2163 2435.87 61.7238 2430.16 65.9117C2423.85 70.4745 2418.27 75.9598 2413.59 82.1834C2405.91 92.5355 2401.83 105.117 2401.99 118.002C2401.9 126.371 2403.24 134.694 2405.97 142.606C2409.93 153.606 2416.92 163.263 2426.14 170.459C2438.94 180.726 2456.05 186.912 2477.48 189.018C2483.28 189.573 2489.1 189.844 2494.93 189.83H2515.05C2521.2 189.792 2527.35 190.172 2533.45 190.968C2547.08 192.847 2556.82 197.055 2562.65 203.59C2567.11 208.736 2569.45 215.38 2569.2 222.183C2569.2 231.531 2564.13 239.282 2553.98 245.436C2553.54 245.703 2553.09 245.963 2552.65 246.218C2548.54 248.488 2544.18 250.255 2539.65 251.481C2531.24 253.859 2521.03 255.215 2509.02 255.55C2507 255.604 2504.99 255.63 2502.98 255.628C2487.49 255.628 2473.1 253.832 2459.8 250.238C2447.21 246.834 2436.7 242.035 2428.26 235.842C2427.79 235.498 2427.33 235.149 2426.87 234.794L2437.3 226.753C2452.54 237.232 2474.44 242.471 2502.98 242.471C2507.25 242.479 2511.52 242.36 2515.78 242.115C2524.75 241.581 2532.16 240.443 2538.01 238.702C2539.79 238.18 2541.53 237.546 2543.22 236.804C2547.47 234.925 2550.66 232.774 2552.8 230.35C2554.86 228.13 2556.02 225.214 2556.03 222.183C2556.03 215.64 2553.38 210.881 2548.07 207.906C2547.74 207.721 2547.41 207.545 2547.06 207.378C2545.17 206.488 2543.2 205.794 2541.16 205.308C2537.01 204.258 2531.77 203.564 2525.45 203.227C2522.23 203.064 2519.01 202.985 2515.78 202.991ZM2259.84 176.673H2238.99C2231.53 176.711 2224.09 176.201 2216.71 175.146C2209.18 174.028 2202.34 172.293 2196.2 169.943C2190.37 167.76 2184.88 164.765 2179.89 161.045C2174.08 156.803 2169.26 151.357 2165.74 145.079C2162.23 138.802 2160.12 131.841 2159.55 124.672C2159.33 122.456 2159.22 120.229 2159.22 118.002C2159.19 111.283 2160.58 104.632 2163.29 98.4841C2166.01 92.3362 2169.99 86.829 2174.98 82.3219C2177.66 79.7769 2180.52 77.4382 2183.55 75.3258C2190.9 70.2786 2199.01 66.437 2207.57 63.9465C2220.13 60.1384 2234.87 58.2344 2251.79 58.2344C2264.69 58.1827 2277.55 59.4571 2290.18 62.0374C2295.66 63.1739 2301.07 64.5894 2306.4 66.2785C2314.18 68.7081 2321.73 71.8313 2328.95 75.6103C2335.98 79.2897 2342.56 83.7621 2348.57 88.9398L2338.33 97.1636C2332.45 92.4198 2326.01 88.4018 2319.17 85.1966C2313.18 82.376 2306.99 80.022 2300.64 78.1557C2285.52 73.6489 2269.23 71.3954 2251.79 71.3954C2235.57 71.3954 2221.75 73.1398 2210.35 76.6284C2204.16 78.4486 2198.25 81.1153 2192.79 84.5528C2188.84 87.0508 2185.22 90.0503 2182.04 93.4766C2175.78 100.103 2172.32 108.89 2172.39 118.002C2172.33 123.106 2173.13 128.183 2174.75 133.024C2177.41 140.639 2182.45 147.196 2189.13 151.725C2200.29 159.583 2216.91 163.512 2238.99 163.512H2259.11C2276.16 163.512 2290.59 165.755 2302.42 170.242C2308.28 172.417 2313.81 175.412 2318.84 179.14C2332.68 189.558 2339.61 203.906 2339.61 222.183C2339.64 228.902 2338.25 235.552 2335.53 241.699C2332.82 247.846 2328.84 253.353 2323.85 257.859C2321.17 260.406 2318.31 262.746 2315.27 264.859C2307.93 269.906 2299.82 273.748 2291.26 276.238C2278.7 280.046 2263.96 281.95 2247.04 281.95C2234.14 282.002 2221.28 280.728 2208.65 278.147C2203.17 277.011 2197.76 275.595 2192.43 273.906C2184.65 271.477 2177.1 268.354 2169.88 264.575C2162.85 260.895 2156.27 256.423 2150.26 251.245L2160.51 243.017C2166.39 247.763 2172.82 251.782 2179.66 254.988C2185.65 257.807 2191.84 260.16 2198.19 262.025C2213.31 266.535 2229.6 268.789 2247.04 268.789C2263.26 268.789 2277.08 267.045 2288.48 263.556C2294.67 261.735 2300.58 259.067 2306.03 255.628C2309.99 253.131 2313.61 250.133 2316.79 246.708C2323.05 240.082 2326.51 231.295 2326.44 222.183C2326.5 217.078 2325.7 211.999 2324.08 207.158C2321.42 199.544 2316.37 192.988 2309.7 188.46C2298.54 180.602 2281.92 176.673 2259.84 176.673ZM2515.78 176.673H2494.93C2487.47 176.711 2480.03 176.201 2472.65 175.146C2465.11 174.028 2458.28 172.293 2452.15 169.943C2446.32 167.76 2440.83 164.765 2435.84 161.045C2430.02 156.803 2425.2 151.357 2421.69 145.079C2418.17 138.802 2416.06 131.841 2415.49 124.672C2415.27 122.456 2415.16 120.23 2415.16 118.002C2415.13 111.283 2416.52 104.632 2419.23 98.4841C2421.95 92.3362 2425.93 86.829 2430.92 82.3219C2433.59 79.7769 2436.46 77.4382 2439.49 75.3258C2446.84 70.2782 2454.95 66.4366 2463.51 63.9465C2476.07 60.1384 2490.81 58.2344 2507.73 58.2344C2520.62 58.1827 2533.49 59.4571 2546.12 62.0374C2551.6 63.1738 2557.01 64.5893 2562.34 66.2785C2570.12 68.7083 2577.67 71.8315 2584.89 75.6103C2591.92 79.2897 2598.5 83.7621 2604.51 88.9398L2594.27 97.1636C2588.38 92.4198 2581.95 88.4018 2575.11 85.1966C2569.12 82.376 2562.93 80.022 2556.58 78.1557C2541.46 73.6489 2525.17 71.3954 2507.73 71.3954C2491.5 71.3954 2477.69 73.1398 2466.29 76.6284C2460.1 78.4486 2454.19 81.1153 2448.73 84.5528C2444.78 87.0508 2441.16 90.0503 2437.98 93.4766C2431.72 100.103 2428.26 108.891 2428.34 118.002C2428.27 123.105 2429.07 128.183 2430.69 133.024C2433.35 140.639 2438.39 147.196 2445.08 151.725C2456.24 159.583 2472.85 163.512 2494.93 163.512H2515.05C2532.1 163.512 2546.53 165.755 2558.36 170.242C2564.23 172.417 2569.76 175.412 2574.78 179.14C2588.63 189.558 2595.55 203.906 2595.55 222.183C2595.58 228.902 2594.19 235.552 2591.48 241.699C2588.76 247.846 2584.78 253.353 2579.79 257.859C2577.11 260.406 2574.25 262.746 2571.22 264.859C2563.87 269.907 2555.76 273.748 2547.2 276.238C2534.64 280.046 2519.9 281.95 2502.98 281.95C2490.08 282.002 2477.22 280.728 2464.59 278.147C2459.11 277.011 2453.7 275.595 2448.37 273.906C2440.59 271.477 2433.04 268.354 2425.82 264.575C2418.79 260.895 2412.21 256.423 2406.2 251.245L2416.44 243.017C2422.32 247.763 2428.76 251.782 2435.6 254.988C2441.59 257.808 2447.78 260.16 2454.13 262.025C2469.25 266.535 2485.53 268.789 2502.98 268.789C2519.21 268.789 2533.02 267.045 2544.42 263.556C2550.61 261.735 2556.52 259.067 2561.98 255.628C2565.93 253.131 2569.55 250.133 2572.73 246.708C2578.99 240.082 2582.45 231.294 2582.37 222.183C2582.43 217.078 2581.64 212 2580.02 207.158C2577.36 199.543 2572.31 192.988 2565.63 188.46C2554.48 180.602 2537.86 176.673 2515.78 176.673ZM565.223 172.103V301.872H552.053V172.103C552.127 164.025 551.079 155.977 548.939 148.187C545.643 136.27 539.05 125.523 529.917 117.179C518.445 106.694 504.033 99.9732 488.621 97.9198C483.456 97.1593 478.241 96.7852 473.02 96.8006C463.227 96.6932 453.499 98.3924 444.324 101.813C434.902 105.45 426.352 111.028 419.232 118.185C412.359 124.806 406.902 132.751 403.193 141.54C399.483 150.329 397.598 159.779 397.651 169.318C397.648 169.637 397.647 169.956 397.647 170.276C397.616 176.563 398.23 182.837 399.479 188.999C400.515 194.055 402.078 198.99 404.14 203.721C406.301 208.729 409.06 213.457 412.357 217.803C415.102 221.397 418.271 224.647 421.795 227.483C429.236 233.452 437.56 237.992 446.767 241.101C455.976 244.208 465.702 245.761 475.946 245.761C489.768 245.781 503.39 242.458 515.646 236.074V249.965C505.163 254.403 494.025 257.098 482.671 257.945C480.372 258.107 478.068 258.189 475.762 258.189C463.688 258.189 452.224 256.331 441.371 252.615C430.753 249.031 420.891 243.516 412.282 236.347C405.737 230.829 400.241 224.177 396.059 216.71C394.556 214.068 393.193 211.349 391.975 208.565C388.385 200.274 386.08 191.485 385.137 182.501C384.69 178.441 384.468 174.36 384.474 170.276C384.286 159.041 386.381 147.885 390.631 137.481C394.882 127.078 401.199 117.643 409.202 109.748C409.465 109.482 409.73 109.218 409.996 108.955C418.085 100.814 427.728 94.3789 438.354 90.0316C448.979 85.6843 460.37 83.5131 471.851 83.6469C472.24 83.6424 472.63 83.6399 473.02 83.6395C482.363 83.5823 491.676 84.7029 500.738 86.9747C507.487 88.6944 514.021 91.1628 520.221 94.3338C534.124 101.461 545.1 111.787 553.151 125.313C559.466 136.046 563.374 148.022 564.604 160.413C565.022 164.295 565.228 168.198 565.223 172.103ZM1315.12 172.103V301.872H1301.94V172.103C1302.02 164.025 1300.97 155.977 1298.83 148.187C1295.53 136.27 1288.94 125.523 1279.81 117.179C1268.33 106.694 1253.92 99.9732 1238.51 97.9198C1233.35 97.1593 1228.13 96.7852 1222.91 96.8006C1213.12 96.6932 1203.39 98.3924 1194.21 101.813C1184.79 105.45 1176.24 111.029 1169.13 118.185C1162.25 124.806 1156.8 132.751 1153.09 141.54C1149.38 150.329 1147.49 159.779 1147.54 169.318C1147.54 169.637 1147.54 169.956 1147.54 170.276C1147.51 176.563 1148.12 182.837 1149.37 188.999C1150.41 194.056 1151.97 198.99 1154.03 203.721C1156.19 208.729 1158.95 213.457 1162.25 217.803C1164.99 221.397 1168.16 224.647 1171.69 227.483C1179.13 233.452 1187.45 237.992 1196.66 241.101C1205.87 244.208 1215.59 245.761 1225.84 245.761C1239.66 245.781 1253.28 242.457 1265.54 236.074V249.965C1255.05 254.403 1243.91 257.098 1232.56 257.945C1230.26 258.107 1227.96 258.189 1225.66 258.189C1213.58 258.189 1202.12 256.331 1191.26 252.615C1180.64 249.031 1170.78 243.515 1162.17 236.347C1155.63 230.829 1150.13 224.177 1145.95 216.71C1144.45 214.068 1143.09 211.349 1141.87 208.565C1138.28 200.274 1135.97 191.486 1135.03 182.501C1134.58 178.441 1134.36 174.36 1134.37 170.276C1134.18 159.041 1136.27 147.885 1140.52 137.481C1144.77 127.078 1151.09 117.643 1159.1 109.748C1159.36 109.482 1159.62 109.218 1159.89 108.955C1167.97 100.814 1177.62 94.3789 1188.24 90.0316C1198.87 85.6843 1210.26 83.5131 1221.74 83.6469C1222.13 83.6424 1222.52 83.6399 1222.91 83.6395C1232.25 83.582 1241.57 84.7025 1250.63 86.9747C1257.38 88.6947 1263.91 91.1631 1270.11 94.3338C1284.02 101.461 1294.99 111.787 1303.04 125.313C1309.36 136.046 1313.26 148.022 1314.49 160.413C1314.91 164.295 1315.12 168.197 1315.12 172.103ZM131.278 301.872L27 38.6761H41.2712L138.412 284.144L235.557 38.6761H249.645L145.55 301.872H131.278ZM1749.43 301.872V38.6761H1762.6V236.074H1859.74V249.231H1762.6V262.392H1859.74V275.553H1762.6V288.711H1859.74V301.872H1749.43ZM749.999 189.284V176.123H829.396C834.428 176.174 839.427 175.312 844.15 173.577C848.561 171.907 852.617 169.422 856.106 166.252C861.298 161.546 864.812 155.278 866.117 148.397C866.781 145.131 867.105 141.806 867.084 138.474C867.071 131.853 864.802 125.435 860.651 120.274C859.143 118.339 857.47 116.54 855.649 114.895C848.573 108.166 839.165 104.433 829.396 104.478H716.335V301.872H703.165V91.3168H829.396C842.934 91.3168 854.795 96.0694 864.978 105.575C868.849 109.115 872.16 113.222 874.798 117.755C878.415 124.059 880.297 131.207 880.254 138.474C880.306 144.012 879.576 149.53 878.084 154.865C875.849 162.77 871.472 169.905 865.435 175.483C855.557 184.683 843.543 189.284 829.396 189.284H749.999ZM1558.43 135.183H1475.19V148.341H1558.43C1562.22 148.381 1566 147.744 1569.57 146.462C1573.1 145.149 1576.35 143.148 1579.11 140.574C1583.57 136.44 1586.43 130.857 1587.16 124.818C1587.41 123.105 1587.52 121.376 1587.52 119.645C1587.53 113.165 1585.13 106.911 1580.8 102.093C1580.14 101.336 1579.45 100.607 1578.74 99.9074C1576.14 97.309 1573.09 95.1969 1569.75 93.6712C1566.18 92.0931 1562.33 91.2905 1558.43 91.3168H1453.05V301.872H1466.23V104.478H1558.43C1562.22 104.47 1565.88 105.87 1568.7 108.404C1568.97 108.642 1569.24 108.886 1569.5 109.138C1570.69 110.259 1571.71 111.542 1572.54 112.949C1573.73 114.98 1574.35 117.292 1574.35 119.645C1574.36 121.226 1574.18 122.802 1573.82 124.339C1573.22 126.979 1571.8 129.364 1569.78 131.159C1567.18 133.429 1563.93 134.805 1560.5 135.082C1559.81 135.15 1559.12 135.183 1558.43 135.183ZM525.706 301.872V172.103C525.75 167.108 525.177 162.127 524.001 157.272C522.055 149.011 517.604 141.552 511.255 135.913C501.621 127.384 488.876 123.119 473.02 123.119C466.621 123.021 460.267 124.199 454.33 126.584C448.393 128.97 442.991 132.514 438.441 137.01C433.776 141.389 430.05 146.671 427.49 152.533C425.128 158.148 423.937 164.185 423.99 170.276C423.977 173.754 424.222 177.228 424.721 180.671C425.178 183.814 425.912 186.91 426.917 189.924C427.803 192.589 428.917 195.172 430.247 197.646C431.537 200.048 433.089 202.3 434.875 204.361C438.263 208.226 442.323 211.446 446.86 213.865C451.428 216.34 456.324 218.156 461.401 219.259C465.295 220.091 469.249 220.604 473.226 220.794C474.681 220.867 476.138 220.903 477.595 220.903C491.497 220.903 504.181 217.491 515.646 210.669V223.826C503.817 230.042 491.071 233.15 477.411 233.15C471.062 233.175 464.729 232.502 458.528 231.144C456.54 230.701 454.57 230.181 452.623 229.583C444.995 227.268 437.84 223.618 431.491 218.803C426.918 215.292 423.04 210.959 420.056 206.027C418.684 203.789 417.462 201.462 416.399 199.061C414.069 193.753 412.478 188.151 411.671 182.411C411.091 178.392 410.805 174.336 410.817 170.276C410.686 160.579 412.949 151 417.407 142.385C420.338 136.882 424.102 131.863 428.565 127.506C440.395 115.807 455.213 109.958 473.02 109.958C480.061 109.902 487.082 110.717 493.923 112.384C503.881 114.783 513.079 119.636 520.678 126.499C529.782 134.816 535.786 145.977 537.707 158.152C538.508 162.758 538.901 167.427 538.88 172.103V301.872H525.706ZM1275.6 301.872V172.103C1275.64 167.108 1275.07 162.127 1273.89 157.272C1271.95 149.011 1267.5 141.552 1261.15 135.913C1251.51 127.384 1238.77 123.119 1222.91 123.119C1216.51 123.022 1210.16 124.2 1204.22 126.585C1198.28 128.97 1192.88 132.514 1188.33 137.01C1183.67 141.389 1179.94 146.671 1177.38 152.533C1175.02 158.148 1173.83 164.185 1173.88 170.276C1173.87 173.754 1174.11 177.228 1174.61 180.671C1175.07 183.814 1175.81 186.91 1176.81 189.924C1177.69 192.589 1178.81 195.172 1180.14 197.646C1181.43 200.048 1182.98 202.3 1184.77 204.361C1188.15 208.226 1192.21 211.446 1196.75 213.865C1201.32 216.34 1206.22 218.156 1211.29 219.259C1215.19 220.091 1219.14 220.604 1223.12 220.794C1224.57 220.867 1226.03 220.903 1227.48 220.903C1241.39 220.903 1254.07 217.491 1265.54 210.669V223.826C1253.71 230.042 1240.96 233.15 1227.3 233.15C1220.95 233.175 1214.62 232.502 1208.42 231.144C1206.43 230.701 1204.46 230.181 1202.51 229.583C1194.88 227.268 1187.73 223.618 1181.38 218.803C1176.81 215.291 1172.93 210.959 1169.95 206.027C1168.58 203.789 1167.35 201.462 1166.29 199.061C1163.96 193.753 1162.37 188.151 1161.56 182.411C1160.98 178.392 1160.7 174.336 1160.71 170.276C1160.58 160.579 1162.84 151 1167.3 142.385C1170.23 136.882 1173.99 131.863 1178.45 127.506C1190.29 115.807 1205.1 109.958 1222.91 109.958C1229.95 109.902 1236.97 110.717 1243.81 112.384C1253.77 114.783 1262.97 119.636 1270.57 126.499C1279.67 134.816 1285.68 145.977 1287.6 158.152C1288.4 162.758 1288.79 167.427 1288.77 172.103V301.872H1275.6ZM742.682 130.796V301.872H729.508V117.635H829.396C832.519 117.606 835.625 118.092 838.59 119.073C841.596 120.093 844.376 121.684 846.777 123.759C848.583 125.276 850.131 127.075 851.363 129.086C853.062 131.921 853.943 135.17 853.911 138.474C853.958 141.745 853.549 145.006 852.697 148.165C850.618 155.409 845.878 159.995 838.474 161.921C835.504 162.652 832.454 163.003 829.396 162.965H749.999V149.804H829.396C835.396 149.804 839.015 147.426 840.254 142.67C840.593 141.297 840.757 139.887 840.741 138.474C840.735 137.135 840.244 135.844 839.358 134.839C838.839 134.218 838.171 133.631 837.354 133.08C835.098 131.557 832.446 130.796 829.396 130.796H742.682ZM216.348 301.872L320.442 38.6761H334.714L230.435 301.872H216.348ZM159.634 301.872L263.732 38.6761H278L173.721 301.872H159.634ZM187.992 301.872L292.271 38.6761H306.359L202.08 301.872H187.992ZM1041.06 301.872V38.6761H1054.24V301.872H1041.06ZM1014.72 301.872V38.6761H1027.89V301.872H1014.72ZM988.376 301.872V38.6761H1001.55V301.872H988.376ZM962.033 301.872V38.6761H975.203V301.872H962.033ZM1670.39 301.872V38.6761H1683.57V301.872H1670.39ZM1723.08 301.872V38.6761H1736.25V301.872H1723.08ZM1696.74 301.872V38.6761H1709.91V301.872H1696.74ZM1954.69 38.6761V301.872H1941.52V38.6761H1954.69ZM1928.35 38.6761V301.872H1915.17V38.6761H1928.35ZM1902 38.6761V301.872H1888.83V38.6761H1902ZM1558.43 234.61H1475.19V247.771H1558.43C1562.23 247.845 1566.01 247.164 1569.54 245.767C1573.07 244.371 1576.29 242.287 1579.01 239.637C1583.38 235.443 1586.21 229.907 1587.05 223.916C1587.37 221.892 1587.53 219.845 1587.52 217.796C1587.55 210.202 1584.6 202.899 1579.3 197.455C1579.11 197.257 1578.93 197.061 1578.74 196.868C1576.4 194.411 1573.68 192.349 1570.69 190.762C1566.9 188.801 1562.69 187.791 1558.43 187.82H1475.01V200.981H1558.43C1561.84 200.982 1565.13 202.204 1567.72 204.425C1568.34 204.946 1568.94 205.504 1569.5 206.098C1570.99 207.634 1572.19 209.421 1573.05 211.376C1573.92 213.404 1574.36 215.59 1574.35 217.796C1574.36 219.473 1574.19 221.146 1573.83 222.785C1573.32 225.071 1572.41 227.049 1571.13 228.718C1570.72 229.253 1570.26 229.756 1569.78 230.223C1566.9 232.994 1563.08 234.56 1559.09 234.599C1558.87 234.606 1558.65 234.61 1558.43 234.61ZM140.061 252.888L55.3551 38.6761H69.4428L147.562 236.074L140.061 252.888ZM154.695 218.163L83.714 38.6761H97.9815L161.649 200.068L154.695 218.163ZM168.599 181.973L112.069 38.6761H126.157L175.55 163.512L168.599 181.973Z" stroke="#CFCFCF" stroke-width="10" stroke-linecap="round"/>
    </mask>
    <g mask="url(#mask1)">
        <rect width="2869" height="538.312" transform="matrix(0.998726 0.0504714 0.0504714 -0.998726 -125.867 359.626)" fill="#07D8A6"/>
    </g>
</svg>
